<svg xmlns="http://www.w3.org/2000/svg" xmlns:xlink="http://www.w3.org/1999/xlink" width="578" height="450" viewBox="0 0 578 450"><defs><path id="5r45a" d="M935.337 2734.167a159.03 159.03 0 0 1-5.341 11.9c-9.153 18.343-24.552 52.085-65.196 72.423 0 0-50.413 33.627-130.235 8.402 0 0-81.921-27.325-212.156-31.526 0 0-76.036 5.15-122.1-40.087-12.755-12.516-23.2-28.89-29.12-50.3 0 0-17.858-85.122 55.657-127.143 0 0 28.76-17.982 74.666-10.705 15.425 2.452 31.21 2.285 46.345-1.564 20.986-5.344 45.511-17.798 55.472-46.582l4.392-12.041a446.913 446.913 0 0 0 13.598-43.48c6.878-27.167 33.6-88.277 133.59-74.443 2.521.343 5.034.659 7.564.923 14.564 1.45 83.555 13.825 102.318 113.273 0 0 .43 4.201 1.713 11.004 3.654 19.468 14.23 60.196 41.505 84.375 16.962 15.02 29.287 34.62 34.048 56.786a138.42 138.42 0 0 1-6.72 78.785z"/><path id="5r45b" d="M591.82 2767.01l26.967-237.181c.805-7.076 6.789-12.42 13.906-12.419h254.03a13.99 13.99 0 0 1 10.485 4.72 14.006 14.006 0 0 1 3.412 10.986l-27.407 223.998a12.08 12.08 0 0 1-12.017 10.617z"/><path id="5r45c" d="M582.85 2767.01l26.967-237.181c.805-7.076 6.789-12.42 13.906-12.419h254.03a13.99 13.99 0 0 1 10.485 4.72 14.006 14.006 0 0 1 3.412 10.986l-28.698 234.668z"/><path id="5r45e" d="M632.513 2530.49h236.54a11.417 11.417 0 0 1 8.57 3.863 11.43 11.43 0 0 1 2.771 8.987l-26.748 215.077-258.466-2.277 25.65-215.332a11.756 11.756 0 0 1 11.683-10.318z"/><path id="5r45f" d="M640.106 2541.69h219.482a10.538 10.538 0 0 1 7.913 3.502 10.55 10.55 0 0 1 2.628 8.25l-22.479 179.56H607.13l22.145-181.82a10.86 10.86 0 0 1 10.83-9.492z"/><path id="5r45g" d="M418.91 2754.943a5.493 5.493 0 0 1 5.493-5.493h342.304a5.493 5.493 0 0 1 5.493 5.493v6.954a5.493 5.493 0 0 1-5.493 5.493H424.403a5.493 5.493 0 0 1-5.493-5.493z"/><path id="5r45i" d="M862.95 2767.76h-205.4c-5.604.378-8.96-4.034-8.96-8.965.014-4.945 4.017-8.95 8.96-8.965h207.64z"/><path id="5r45k" d="M629.16 2553.28H870.42l-22.787 179.728H607.13l22.03-179.728z"/><path id="5r45l" d="M820.33 2754.68h35.216v2.892a4.58 4.58 0 0 1-4.577 4.579h-26.062a4.575 4.575 0 0 1-4.577-4.58v-2.891z"/><path id="5r45m" d="M763.24 2756.398a3.208 3.208 0 0 1 3.208-3.208h33.174a3.208 3.208 0 0 1 3.208 3.208v4.044a3.208 3.208 0 0 1-3.208 3.208h-33.174a3.208 3.208 0 0 1-3.208-3.208z"/><path id="5r45n" d="M818.089 2754.68h35.207v2.892a4.58 4.58 0 0 1-4.577 4.579h-26.062a4.578 4.578 0 0 1-4.577-4.58v-2.891z"/><path id="5r45o" d="M650.356 2556.63h109.9v15.697H640.79v-6.029a9.618 9.618 0 0 1 2.78-6.818 9.607 9.607 0 0 1 6.786-2.85z"/><path id="5r45p" d="M763.51 2557.02h54.532a7.557 7.557 0 0 1 7.555 7.559v8.13H753.9v-6.083c.005-5.306 4.306-9.606 9.61-9.606z"/><path id="5r45q" d="M611.2 2729.647l19.923-154.503a8.786 8.786 0 0 1 8.713-7.664h215.837a8.325 8.325 0 0 1 6.27 2.845 8.335 8.335 0 0 1 1.987 6.594l-20.397 152.728z"/><path id="5r45r" d="M632.9 2613.06h218.85l-14.943 110.61H619.46l13.44-110.61z"/><path id="5r45s" d="M641.184 2572.71h212.683a3.513 3.513 0 0 1 3.514 3.84l-1.546 15.443a3.514 3.514 0 0 1-3.514 3.147H639.129a3.513 3.513 0 0 1-3.461-3.955l2.055-15.443a3.514 3.514 0 0 1 3.461-3.032z"/><path id="5r45t" d="M640.37 2581.55a4.35 4.35 0 0 1 4.35-4.35h24.91a4.35 4.35 0 0 1 4.35 4.35v5.5a4.35 4.35 0 0 1-4.35 4.35h-24.91a4.35 4.35 0 0 1-4.35-4.35z"/><path id="5r45u" d="M682.94 2579.311c0-.757.614-1.371 1.371-1.371h95.848c.757 0 1.371.614 1.371 1.371v1.738c0 .757-.614 1.371-1.371 1.371H684.31a1.371 1.371 0 0 1-1.371-1.371z"/><path id="5r45v" d="M788.25 2579.311c0-.757.614-1.371 1.371-1.371h62.988c.757 0 1.371.614 1.371 1.371v1.738c0 .757-.614 1.371-1.371 1.371H789.62a1.371 1.371 0 0 1-1.371-1.371z"/><path id="5r45w" d="M768.84 2587.238c0-1.01.818-1.828 1.828-1.828h62.074c1.01 0 1.828.818 1.828 1.828v2.324c0 1.01-.818 1.828-1.828 1.828h-62.074a1.828 1.828 0 0 1-1.828-1.828z"/><path id="5r45x" d="M756.522 2709.245l12.175-83.364a7.116 7.116 0 0 1 7.028-6.091h62.113a6.313 6.313 0 0 1 6.254 7.163l-11.736 86.133a6.15 6.15 0 0 1-6.149 5.273l-63.035-1.256a6.859 6.859 0 0 1-5.097-2.428 6.867 6.867 0 0 1-1.553-5.43z"/><path id="5r45y" d="M767.72 2632.872l.975-7.031a7.116 7.116 0 0 1 7.027-6.091h62.113a6.313 6.313 0 0 1 6.254 7.163l-.517 5.537z"/><path id="5r45z" d="M783.03 2638.351c0-.757.614-1.371 1.371-1.371h51.038c.757 0 1.371.614 1.371 1.371v1.738c0 .757-.614 1.371-1.371 1.371H784.4a1.371 1.371 0 0 1-1.371-1.371z"/><path id="5r45A" d="M812.9 2647.321c0-.757.614-1.371 1.371-1.371h21.158c.757 0 1.371.614 1.371 1.371v1.738c0 .757-.614 1.371-1.371 1.371H814.27a1.371 1.371 0 0 1-1.371-1.371z"/><path id="5r45B" d="M781.53 2656.291c0-.757.614-1.371 1.371-1.371h51.038c.757 0 1.371.614 1.371 1.371v1.738c0 .757-.614 1.371-1.371 1.371H782.9a1.371 1.371 0 0 1-1.371-1.371z"/><path id="5r45C" d="M780.04 2665.251c0-.757.614-1.371 1.371-1.371h51.038c.757 0 1.371.614 1.371 1.371v1.738c0 .757-.614 1.371-1.371 1.371H781.41a1.371 1.371 0 0 1-1.371-1.371z"/><path id="5r45D" d="M765.11 2684.681c0-.757.614-1.371 1.371-1.371h51.038c.757 0 1.371.614 1.371 1.371v1.738c0 .757-.614 1.371-1.371 1.371H766.48a1.371 1.371 0 0 1-1.371-1.371z"/><path id="5r45E" d="M763.61 2694.401c0-.757.614-1.371 1.371-1.371h32.358c.757 0 1.371.614 1.371 1.371v1.738c0 .757-.614 1.371-1.371 1.371H764.98a1.371 1.371 0 0 1-1.371-1.371z"/><path id="5r45F" d="M762.86 2703.371c0-.757.614-1.371 1.371-1.371h39.838c.757 0 1.371.614 1.371 1.371v1.738c0 .757-.614 1.371-1.371 1.371H764.23a1.371 1.371 0 0 1-1.371-1.371z"/><path id="5r45G" d="M703.738 2621.865l51.185-1.872a4.452 4.452 0 0 1 4.568 5.089l-6.86 47.162a5.078 5.078 0 0 1-5.025 4.35h-49.191a4.242 4.242 0 0 1-4.226-4.649l4.33-45.193a5.404 5.404 0 0 1 5.219-4.887z"/><path id="5r45H" d="M663.53 2601.785a3.665 3.665 0 0 1 3.665-3.665h139.07a3.665 3.665 0 0 1 3.665 3.665v4.62a3.665 3.665 0 0 1-3.665 3.665h-139.07a3.665 3.665 0 0 1-3.665-3.665z"/><path id="5r45I" d="M628.355 2638.826c17.92-8.446 88.404-40.746 106.578-49.07a4.795 4.795 0 0 1 6.325 2.295l11.595 24.258a6.402 6.402 0 0 1-3.092 8.569l-108.608 50.01a6.673 6.673 0 0 1-9.25-4.395l-6.552-25.233a5.564 5.564 0 0 1 3.004-6.434z"/><path id="5r45J" d="M626.595 2637.946c17.92-8.446 88.404-40.746 106.578-49.07a4.795 4.795 0 0 1 6.325 2.295l11.595 24.258a6.402 6.402 0 0 1-3.092 8.569l-108.608 50.01a6.673 6.673 0 0 1-9.25-4.395l-6.552-25.233a5.564 5.564 0 0 1 3.004-6.434z"/><path id="5r45K" d="M623.613 2637.946c17.92-8.446 88.404-40.746 106.578-49.07a4.795 4.795 0 0 1 6.325 2.295l11.595 24.258a6.402 6.402 0 0 1-3.092 8.569l-108.617 50.01a6.673 6.673 0 0 1-9.25-4.395l-6.552-25.233a5.564 5.564 0 0 1 3.013-6.434z"/><path id="5r45L" d="M731.839 2597.162l-71.231 33.618a2.248 2.248 0 0 1-2.978-1.072 2.25 2.25 0 0 1 1.072-2.98l71.23-33.618a2.248 2.248 0 0 1 2.979 1.072 2.25 2.25 0 0 1-1.072 2.98z"/><path id="5r45M" d="M707.936 2616.6l-45.098 20.892a2.248 2.248 0 0 1-2.978-1.072 2.25 2.25 0 0 1 1.072-2.98l45.133-20.9a2.248 2.248 0 0 1 2.978 1.072 2.251 2.251 0 0 1-1.107 2.989z"/><path id="5r45N" d="M692.994 2632.292l-27.916 13.438a2.248 2.248 0 0 1-2.978-1.072 2.25 2.25 0 0 1 1.072-2.98l27.916-13.438a2.248 2.248 0 0 1 2.978 1.072 2.25 2.25 0 0 1-1.072 2.98z"/><path id="5r45O" d="M712.42 2632.292l-44.342 20.91a2.248 2.248 0 0 1-2.978-1.073 2.25 2.25 0 0 1 1.072-2.98l44.342-20.909a2.248 2.248 0 0 1 2.978 1.072 2.25 2.25 0 0 1-1.071 2.98z"/><path id="5r45P" d="M624.38 2710.814l4.041-25.26a5.271 5.271 0 0 1 5.27-4.474h113.73a7.693 7.693 0 0 1 5.774 2.603 7.702 7.702 0 0 1 1.868 6.055l-2.433 19.749a8.61 8.61 0 0 1-8.442 7.54l-113.272 1.319a6.508 6.508 0 0 1-5.022-2.242 6.515 6.515 0 0 1-1.514-5.29z"/><path id="5r45Q" d="M634.39 2688.943c0-.631.512-1.143 1.143-1.143h111.984c.631 0 1.143.512 1.143 1.143v1.454c0 .631-.512 1.143-1.143 1.143H635.533a1.143 1.143 0 0 1-1.143-1.143z"/><path id="5r45R" d="M632.15 2696.641c0-.757.614-1.371 1.371-1.371h27.138c.757 0 1.371.614 1.371 1.371v1.738c0 .757-.614 1.371-1.371 1.371H633.52a1.371 1.371 0 0 1-1.371-1.371z"/><path id="5r45S" d="M670.25 2696.641c0-.757.614-1.371 1.371-1.371h73.448c.757 0 1.371.614 1.371 1.371v1.738c0 .757-.614 1.371-1.371 1.371H671.62a1.371 1.371 0 0 1-1.371-1.371z"/><path id="5r45T" d="M629.91 2705.611c0-.757.614-1.371 1.371-1.371h91.368c.757 0 1.371.614 1.371 1.371v1.738c0 .757-.614 1.371-1.371 1.371H631.28a1.371 1.371 0 0 1-1.371-1.371z"/><path id="5r45U" d="M819.25 2547.305a3.365 3.365 0 1 1 6.73 0 3.365 3.365 0 0 1-6.73 0z"/><path id="5r45V" d="M830.83 2547.305a3.365 3.365 0 1 1 6.73 0 3.365 3.365 0 0 1-6.73 0z"/><path id="5r45W" d="M842.41 2547.305a3.365 3.365 0 1 1 6.73 0 3.365 3.365 0 0 1-6.73 0z"/><path id="5r45X" d="M818.51 2626.14a2.24 2.24 0 1 1 4.48 0 2.24 2.24 0 0 1-4.48 0z"/><path id="5r45Y" d="M824.48 2626.14a2.24 2.24 0 1 1 4.48 0 2.24 2.24 0 0 1-4.48 0z"/><path id="5r45Z" d="M830.46 2626.14a2.24 2.24 0 1 1 4.48 0 2.24 2.24 0 0 1-4.48 0z"/><path id="5r45aa" d="M691.162 2433.705l5.974-5.976 17.182 17.938H702.37zm-6.72-7.47h7.467l-3.733 4.492zm12.694-4.395H672.54l28.32 28.31h24.649z"/><path id="5r45ab" d="M673.984 2421.75l26.888 28.397h-6.957L667.8 2422.12l6.184-.369z"/><path id="5r45ac" d="M441.24 2447.857l-2.144 2.092-24.596-24.416 2.135-2.083 24.604 24.407z"/><path id="5r45ad" d="M463.64 2447.107l-2.134 2.092-24.596-24.416 2.135-2.083 24.595 24.407z"/><path id="5r45ae" d="M484.56 2447.857l-2.134 2.092-24.596-24.416 2.135-2.083 24.595 24.407z"/><path id="5r45af" d="M507.71 2447.857l-2.134 2.092-24.596-24.416 2.135-2.083 24.595 24.407z"/><path id="5r45ag" d="M528.63 2448.607l-2.134 2.092-24.596-24.407 2.135-2.092 24.595 24.407z"/><path id="5r45ah" d="M550.29 2447.857l-2.135 2.092-24.605-24.416 2.143-2.083 24.596 24.407z"/><path id="5r45ai" d="M570.46 2447.857l-2.144 2.092-24.596-24.416 2.135-2.083 24.604 24.407z"/><path id="5r45aj" d="M592.86 2447.857l-2.134 2.092-24.596-24.416 2.135-2.083 24.595 24.407z"/><path id="5r45ak" d="M612.28 2447.857l-2.134 2.092-24.596-24.416 2.135-2.083 24.595 24.407z"/><path id="5r45al" d="M635.44 2447.857l-2.134 2.092-24.596-24.416 2.135-2.083 24.595 24.407z"/><path id="5r45am" d="M655.6 2447.107l-2.134 2.092-24.596-24.416 2.135-2.083 24.595 24.407z"/><path id="5r45an" d="M678.76 2447.857l-2.134 2.092-24.596-24.416 2.135-2.083 24.595 24.407z"/><path id="5r45ao" d="M415.25 2447.857l2.135 2.092 24.604-24.416-2.143-2.083-24.596 24.407z"/><path id="5r45ap" d="M700.873 2450.152H416.3v-4.482h280.093l4.48 4.482z"/><path id="5r45aq" d="M678.093 2426.602H415.92v-4.482h257.684l4.49 4.482z"/><path id="5r45ar" d="M416.295 2422.5l-23.155 23.168h6.72l20.168-20.927-3.733-2.241z"/><path id="5r45as" d="M649.03 2447.857l2.135 2.092 24.604-24.416-2.143-2.083-24.596 24.407z"/><path id="5r45at" d="M628.87 2448.607l2.135 2.092 24.595-24.407-2.134-2.092-24.596 24.407z"/><path id="5r45au" d="M606.47 2447.857l2.135 2.092 24.595-24.416-2.134-2.083-24.596 24.407z"/><path id="5r45av" d="M586.3 2447.857l2.135 2.092 24.595-24.416-2.134-2.083-24.596 24.407z"/><path id="5r45aw" d="M563.14 2447.857l2.135 2.092 24.595-24.416-2.134-2.083-24.596 24.407z"/><path id="5r45ax" d="M544.47 2447.107l2.143 2.092 24.596-24.416-2.143-2.083-24.596 24.407z"/><path id="5r45ay" d="M521.31 2447.107l2.143 2.092 24.596-24.416-2.134-2.083-24.605 24.407z"/><path id="5r45az" d="M501.9 2447.107l2.135 2.092 24.595-24.416-2.134-2.083-24.596 24.407z"/><path id="5r45aA" d="M478.74 2447.107l2.135 2.092 24.595-24.416-2.134-2.083-24.596 24.407z"/><path id="5r45aB" d="M457.08 2447.857l2.135 2.092 24.595-24.416-2.134-2.083-24.596 24.407z"/><path id="5r45aC" d="M433.18 2447.857l2.135 2.092 24.595-24.416-2.134-2.083-24.596 24.407z"/><path id="5r45aD" d="M628.43 2453.14c0-4.54 3.678-8.22 8.215-8.22s8.215 3.68 8.215 8.22c0 4.54-3.678 8.22-8.215 8.22s-8.215-3.68-8.215-8.22z"/><path id="5r45aE" d="M384.18 2453.229a7.559 7.559 0 0 1 7.559-7.559h37.912a7.559 7.559 0 0 1 7.559 7.559v9.542a7.559 7.559 0 0 1-7.559 7.559H391.74a7.559 7.559 0 0 1-7.559-7.559z"/><path id="5r45aF" d="M367 2453.229a7.559 7.559 0 0 1 7.559-7.559h37.912a7.559 7.559 0 0 1 7.559 7.559v9.542a7.559 7.559 0 0 1-7.559 7.559H374.56a7.559 7.559 0 0 1-7.559-7.559z"/><path id="5r45aG" d="M653.938 2470.416l12.869-14.572-2.214-2.004-12.64 14.317-12.65-14.317-2.213 2.004 12.869 14.572-.176.194 1.696 1.529.421.474.053-.044.053.044.421-.474 1.687-1.53-.176-.193z"/><path id="5r45aH" d="M679.954 2453.887c0 4.544-2.934 8.217-7.466 8.217-4.539 0-8.218-3.68-8.218-8.222 0-4.54 3.68-8.222 8.218-8.222 4.532.009 7.466 3.691 7.466 8.227z"/><path id="5r45aI" d="M670.243 2445.672a8.174 8.174 0 0 0-2.986.571v-.571H638.54a8.21 8.21 0 0 0-10.556 3.431 8.22 8.22 0 0 0 2.5 10.82 8.21 8.21 0 0 0 10.99-1.551h21.89a8.21 8.21 0 0 0 9.968 3.134 8.219 8.219 0 0 0-3.09-15.834z"/><path id="5r45aJ" d="M468.58 2451.978c0-1.01.818-1.828 1.828-1.828h67.304c1.01 0 1.828.818 1.828 1.828v2.324c0 1.01-.818 1.828-1.828 1.828h-67.304a1.828 1.828 0 0 1-1.828-1.828z"/><path id="5r45aK" d="M463.688 2456.13h76.423c.485 0 .878.394.878.879v3.234a1.829 1.829 0 0 1-1.818 1.864h-75.544a1.828 1.828 0 0 1-1.757-1.829v-2.311c0-1.01.818-1.828 1.827-1.828z"/><path id="5r45aL" d="M519.365 2508.411h-10.459l10.459-14.95zm0 20.202h-8.22l8.22-13.454zm-11.952-16.442h9.703l-9.703 14.211zm.299-18.683h7.542l-7.542 11.215zm-7.762-32.128v70.998h23.155v-70.998z"/><path id="5r45aM" d="M499.935 2507.71h-11.942l11.942-14.222zm.01 20.913h-11.197c.747-.747 11.205-13.956 11.205-13.956zm-14.937-16.452h12.004l-11.951 14.211zm1.493-18.683h8.342l-8.377 9.73zm-5.971-32.128v70.998h23.155v-70.998z"/><path id="5r45aN" d="M495.09 2444.81v48.683h49.297v-23.775c0-13.71-4.27-24.838-24.324-24.882z"/><path id="5r45aO" d="M487.55 2444.81v48.683h33.679v-23.775c0-13.707-11.08-24.833-24.78-24.882z"/><path id="5r45aP" d="M518.625 2469.613v3.735H495.47v-26.938a23.079 23.079 0 0 1 16.84 7.269 21.574 21.574 0 0 1 1.563 1.872 23.124 23.124 0 0 1 4.752 14.062z"/><path id="5r45aQ" d="M515.26 2749.32v-216.97h2.99v216.97z"/><path id="5r45aR" d="M503.31 2749.32v-216.97h2.99v216.97z"/><path id="5r45aS" d="M488 2552.53v-2.99h12.69v2.99z"/><path id="5r45aT" d="M488 2569.72v-2.99h12.69v2.99z"/><path id="5r45aU" d="M488 2587.66v-2.99h12.69v2.99z"/><path id="5r45aV" d="M488 2604.85v-2.99h12.69v2.99z"/><path id="5r45aW" d="M488 2622.79v-2.99h12.69v2.99z"/><path id="5r45aX" d="M488 2639.97v-2.99h12.69v2.99z"/><path id="5r45aY" d="M488 2657.91v-2.99h12.69v2.99z"/><path id="5r45aZ" d="M488 2674.35v-2.99h12.69v2.99z"/><path id="5r45ba" d="M488 2692.28v-2.99h12.69v2.99z"/><path id="5r45bb" d="M488 2710.22v-2.99h12.69v2.99z"/><path id="5r45bc" d="M488 2727.41v-2.99h12.69v2.99z"/><path id="5r45bd" d="M488 2744.59v-2.99h12.69v2.99z"/><path id="5r45be" d="M492.47 2554.77v-23.16h3.74v23.16z"/><path id="5r45bf" d="M491.73 2571.21v-23.16h3.74v23.16z"/><path id="5r45bg" d="M491.73 2589.14v-23.16h3.74v23.16z"/><path id="5r45bh" d="M491.73 2607.08v-23.16h3.74v23.16z"/><path id="5r45bi" d="M491.73 2624.27v-23.16h3.74v23.16z"/><path id="5r45bj" d="M491.72 2642.21v-23.16h3.74v23.16z"/><path id="5r45bk" d="M491.73 2658.65v-23.16h3.74v23.16z"/><path id="5r45bl" d="M491.72 2675.84v-23.16h3.74v23.16z"/><path id="5r45bm" d="M491.72 2693.77v-23.16h3.74v23.16z"/><path id="5r45bn" d="M491.72 2710.21v-23.16h3.74v23.16z"/><path id="5r45bo" d="M491.72 2727.4v-23.16h3.74v23.16z"/><path id="5r45bp" d="M491.72 2745.34v-23.16h3.74v23.16z"/><path id="5r45bq" d="M509.64 2551.79v-18.68h2.25v18.68z"/><path id="5r45br" d="M509.64 2568.98v-18.68h2.25v18.68z"/><path id="5r45bs" d="M509.64 2587.66v-18.68h2.25v18.68z"/><path id="5r45bt" d="M508.9 2604.85v-18.68h2.25v18.68z"/><path id="5r45bu" d="M509.64 2622.03v-18.68h2.25v18.68z"/><path id="5r45bv" d="M509.64 2639.22v-18.68h2.25v18.68z"/><path id="5r45bw" d="M509.64 2656.41v-18.68h2.25v18.68z"/><path id="5r45bx" d="M509.63 2673.6v-18.68h2.25v18.68z"/><path id="5r45by" d="M509.64 2690.79v-18.68h2.25v18.68z"/><path id="5r45bz" d="M509.63 2707.97v-18.68h2.25v18.68z"/><path id="5r45bA" d="M509.63 2725.15v-18.68h2.25v18.68z"/><path id="5r45bB" d="M509.64 2742.35v-18.68h2.25v18.68z"/><path id="5r45bC" d="M501.443 2532.35H484.27v216.967h3.733v-213.979h11.947v213.979h3.733V2532.35h-2.24z"/><path id="5r45bD" d="M649.71 2579.81v-100.89h1.49v100.89z"/><path id="5r45bE" d="M653.44 2579.81v-100.89h1.49v100.89z"/><path id="5r45bF" d="M504.43 2744.59v-2.99h12.69v2.99z"/><path id="5r45bG" d="M504.43 2727.41v-2.99h12.69v2.99z"/><path id="5r45bH" d="M504.43 2710.22v-2.99h12.69v2.99z"/><path id="5r45bI" d="M504.43 2693.03v-2.99h12.69v2.99z"/><path id="5r45bJ" d="M504.43 2675.1v-2.99h12.69v2.99z"/><path id="5r45bK" d="M504.43 2657.91v-2.99h12.69v2.99z"/><path id="5r45bL" d="M504.43 2641.46v-2.99h12.69v2.99z"/><path id="5r45bM" d="M504.43 2622.79v-2.99h12.69v2.99z"/><path id="5r45bN" d="M504.43 2605.59v-2.99h12.69v2.99z"/><path id="5r45bO" d="M504.43 2587.66v-2.99h12.69v2.99z"/><path id="5r45bP" d="M504.43 2570.46v-2.99h12.69v2.99z"/><path id="5r45bQ" d="M504.43 2552.53v-2.99h12.69v2.99z"/><path id="5r45bR" d="M504.43 2535.34v-2.99h12.69v2.99z"/><path id="5r45bS" d="M537.67 2474.436h-11.947c.08-1.257.123-2.452.114-3.594a35.817 35.817 0 0 0-.738-7.181 23.157 23.157 0 0 0-4.216-9.571 16.269 16.269 0 0 0-7.853-5.81h11.947c.483.255.957.527 1.414.8a22.643 22.643 0 0 1 8.178 8.358 24.906 24.906 0 0 1 1.757 3.982 29.31 29.31 0 0 1 1.344 13.016z"/><path id="5r45bT" d="M647.08 2471.916a3.076 3.076 0 0 1 3.076-3.076h4.688a3.076 3.076 0 0 1 3.076 3.076v6.148a3.076 3.076 0 0 1-3.076 3.076h-4.688a3.076 3.076 0 0 1-3.076-3.076z"/><path id="5r45bU" d="M646.72 2471.556a3.076 3.076 0 0 1 3.076-3.076h4.688a3.076 3.076 0 0 1 3.076 3.076v6.148a3.076 3.076 0 0 1-3.076 3.076h-4.688a3.076 3.076 0 0 1-3.076-3.076z"/><path id="5r45bV" d="M653.441 2593.139v-9.589h-4.471v11.83a8.578 8.578 0 0 0 5.191 7.892 8.57 8.57 0 0 0 9.294-1.67c-.467.084-.94.128-1.414.133-4.742-.01-8.585-3.851-8.6-8.596z"/><path id="5r45bW" d="M657.18 2575.32v12.305a5.604 5.604 0 1 1-10.805 2.065 5.54 5.54 0 0 1-.395-2.065v-12.305z"/><path id="5r45bX" d="M646.36 2589.716l10.813-9.896v3.041l-9.566 8.754-1.247-1.899z"/><path id="5r45bY" d="M657.179 2575.32v1.002l-11.209 10.257v-3.032l8.977-8.227h2.232z"/><path id="5r45bZ" d="M512.31 2453.678l-16.84 10.608v-3.639l13.203-10.107 3.636 3.138z"/><path id="5r45ca" d="M501.844 2473.313l14.933-12.894a22.969 22.969 0 0 0-2.907-4.869l-14.74 17.763z"/><path id="5r45cb" d="M526.38 2449.08l-5.517 5.01a16.269 16.269 0 0 0-7.853-5.81h11.947c.5.246.966.527 1.423.8z"/><path id="5r45cc" d="M536.349 2461.421l-10.541 9.422a35.817 35.817 0 0 0-.738-7.18l9.47-6.223a24.906 24.906 0 0 1 1.809 3.981z"/><path id="5r45cd" d="M750.13 2792.365s-3.312 3.867-6.632 4.395a34.1 34.1 0 0 1-4.972.553s-1.66 4.395 3.312 4.395h13.817s3.865-.554 3.865-5.529c.076-2.409-.11-4.82-.553-7.189h-8.837z"/><path id="5r45ce" d="M773.341 2789.038s-1.66 5.529-8.846 5.529h-1.66s-.553 3.313 2.214 3.867c2.767.554 13.264 0 13.264 0s3.865-.554 3.865-4.395a18.008 18.008 0 0 0-1.66-7.189h-8.293z"/><path id="5r45cf" d="M748.474 2697.8s-2.214 37.6 0 66.911l1.107 27.097s11.604 4.974 11.604-8.85c0-13.826-1.933-30.138-1.933-30.138s-3.312-21.569 5.525-32.625a369.024 369.024 0 0 1 2.214 37.6c0 16.118 6.079 32.07 6.079 32.07s10.224 4.149 8.292-11.056c-1.906-14.942-8.011-43.41.272-72.72z"/><path id="5r45cg" d="M760.354 2653.84l-27.539-26.78-6.175 9.088 27.082 25.435 6.632-7.743z"/><path id="5r45ch" d="M778.589 2647.153s-1.107 4.395 2.213 6.636l-3.865 2.769h-7.739l.554-10.547s-3.312-1.661-3.312-7.743v-10.978l10.541 4.395z"/><path id="5r45ci" d="M739.161 2643.367s1.854-7.234-5.332-10.547a6.63 6.63 0 0 0 .624 2.637 1.759 1.759 0 0 1-.878 2.364 5.418 5.418 0 0 1-6.422-1.125s-4.392 2.769 2.767 6.636c7.16 3.867 6.079 3.867 6.079 3.867z"/><path id="5r45cj" d="M737.69 2677.607c3.312 6.082 7.74 9.404 15.478 0l4.392-3.867v.36c-.131 2.347-1.203 15.68-8.52 22.29a14.52 14.52 0 0 1-1.406 1.133s3.865 12.164 24.868 13.825c0 0 11.05 1.662 11.604-7.19l5.525-14.94s15.478 3.867 7.74-18.247c-4.34-12.392-9.163-16.954-12.597-18.588a8.043 8.043 0 0 0-3.593-.88 3.88 3.88 0 0 0-.931.115s-1.107 3.313-5.525 3.313c-2.4.165-4.54-1.5-4.972-3.867a14.1 14.1 0 0 0-4.287-.22 14.61 14.61 0 0 0-3.926.88c-2.96 1.116-6.15 3.462-8.372 8.19l-7.739 9.405-4.971-25.435s-6.633-2.769-7.16 3.27c-.527 6.037 1.08 24.371 4.393 30.453z"/><path id="5r45ck" d="M749.05 2696.37c5.762-.615 7.827-5.176 10.752-11.03 3.311-6.636 0-16.04 0-16.04l-2.231 4.781c-.132 2.365-1.204 15.698-8.521 22.29z"/><path id="5r45cl" d="M784.778 2652.39l3.513 12.788-5.797-2.487c.404-3.243-.677-8.552-1.274-11.171z"/><path id="5r45cm" d="M755.38 2685.746l1.51-6.055 4.305 9.562 2.477-24.363 25.975 14.379 1.107 21.568s-8.292 4.975-14.933 3.867c-6.641-1.107-15.478-7.189-15.478-7.189l.158-1.538c-2.82-3.56-5.121-10.23-5.121-10.23z"/><path id="5r45cn" d="M761.54 2651.729l.466 9.852h5.551c-1.203-1.6-1.827-7.567-2.073-10.731a14.61 14.61 0 0 0-3.944.879z"/><path id="5r45co" d="M788.545 2664.888s-1.66-4.975-10.541-5.528a130.524 130.524 0 0 0-16.137 0s-1.001 7.743 3.417 10.546c4.419 2.804 4.972 9.405 4.972 9.405s16.576-.554 21.557 1.66a11.931 11.931 0 0 0-2.214-6.635c-2.16-2.812-1.054-9.448-1.054-9.448z"/><path id="5r45cp" d="M787.436 2679.865l1.66 19.863s-11.05 2.215-15.478 1.108c-4.427-1.108-3.865-5.529-3.865-5.529l.228-17.947z"/><path id="5r45cq" d="M771.403 2638.366s1.51-7.26-5.051-8.05c0 0-4.902-2.453-4.348-7.98a5.191 5.191 0 0 1 4.971-3.314c3.865 0 4.393 1.66 6.632 2.768 2.24 1.108 10.542 2.769 10.542 2.769s4.392.554 2.767 6.082a24.06 24.06 0 0 0-1.107 9.404s-.554 5.528-5.526 7.743c-4.971 2.215-8.292-.553-9.399-4.394 0 0 7.186.553 6.079-3.867-1.107-4.421-5.56-1.16-5.56-1.16z"/><path id="5r45cr" d="M700.863 2624.45s-11.762-9.957-18.086-18.096c-6.325-8.139-9.496-14.941-6.782-19.002a84.132 84.132 0 0 1 5.429-7.242s4.524-4.527 11.762-.88c3.891 1.952 9.882 6.259 14.582 9.818a83.75 83.75 0 0 1 12.816 12.033c3.62 4.192 7.792 9.22 8.784 11.18 1.81 3.62 8.354 10.66 4.972 18.553a9.492 9.492 0 0 1-2.231 3.094 11.582 11.582 0 0 1-12.14 2.276c-4.322-1.696-10.936-5.045-19.106-11.733z"/><path id="5r45cs" d="M697.41 2604.095c0-18.024 4.582-32.635 10.235-32.635s10.235 14.611 10.235 32.635c0 18.024-4.582 32.635-10.235 32.635s-10.235-14.611-10.235-32.635z"/><path id="5r45ct" d="M697.55 2604.61c0-17.645 4.056-31.95 9.06-31.95 5.004 0 9.06 14.305 9.06 31.95s-4.056 31.95-9.06 31.95c-5.004 0-9.06-14.305-9.06-31.95z"/><path id="5r45cu" d="M656.85 2602.9a5.018 5.018 0 0 1 5.015-5.02 5.018 5.018 0 0 1 5.015 5.02 5.018 5.018 0 0 1-5.015 5.02 5.018 5.018 0 0 1-5.015-5.02z"/><linearGradient id="5r45d" x1="582.85" x2="891.76" y1="2642.59" y2="2642.59" gradientUnits="userSpaceOnUse"><stop offset="0" stop-color="#a763f3"/><stop offset="1" stop-color="#804cdf"/></linearGradient><linearGradient id="5r45h" x1="418.91" x2="772.2" y1="2758.42" y2="2758.42" gradientUnits="userSpaceOnUse"><stop offset="0" stop-color="#a763f3"/><stop offset="1" stop-color="#804cdf"/></linearGradient><linearGradient id="5r45j" x1="648.59" x2="865.19" y1="2758.8" y2="2758.8" gradientUnits="userSpaceOnUse"><stop offset="0" stop-color="#a763f3"/><stop offset="1" stop-color="#804cdf"/></linearGradient></defs><g><g transform="translate(-367 -2387)"><g opacity=".1"><use fill="#270970" xlink:href="#5r45a"/></g><g><use fill="#7191e2" xlink:href="#5r45b"/></g><g><use fill="url(#5r45d)" xlink:href="#5r45c"/></g><g><use fill="#3e3eaf" xlink:href="#5r45e"/></g><g><use fill="#567ed3" xlink:href="#5r45f"/></g><g><use fill="url(#5r45h)" xlink:href="#5r45g"/></g><g><use fill="url(#5r45j)" xlink:href="#5r45i"/></g><g><use fill="#c5d3f6" xlink:href="#5r45k"/></g><g><use fill="#3f85ea" xlink:href="#5r45l"/></g><g><use fill="#1f5ecf" xlink:href="#5r45m"/></g><g><use fill="#1f5ecf" xlink:href="#5r45n"/></g><g><use fill="#3d55d3" xlink:href="#5r45o"/></g><g><use fill="#6b94dd" xlink:href="#5r45p"/><use fill="#fff" fill-opacity="0" stroke="#c5d3f8" stroke-miterlimit="50" stroke-width="1.76" xlink:href="#5r45p"/></g><g><use fill="#6b94dd" xlink:href="#5r45q"/><use fill="#fff" fill-opacity="0" stroke="#c5d3f8" stroke-miterlimit="50" stroke-width="1.76" xlink:href="#5r45q"/></g><g><use fill="#83d3f6" xlink:href="#5r45r"/></g><g><use fill="#fff" xlink:href="#5r45s"/></g><g><use fill="#ef2674" xlink:href="#5r45t"/></g><g><use fill="#0775fe" xlink:href="#5r45u"/></g><g><use fill="#0775fe" xlink:href="#5r45v"/></g><g><use fill="#b1b1b1" xlink:href="#5r45w"/></g><g><use fill="#fff" xlink:href="#5r45x"/></g><g><use fill="#4fb6fd" xlink:href="#5r45y"/></g><g><use fill="#4f76d1" xlink:href="#5r45z"/></g><g><use fill="#4f76d1" xlink:href="#5r45A"/></g><g><use fill="#4f76d1" xlink:href="#5r45B"/></g><g><use fill="#4f76d1" xlink:href="#5r45C"/></g><g><use fill="#b3b3b3" xlink:href="#5r45D"/></g><g><use fill="#b3b3b3" xlink:href="#5r45E"/></g><g><use fill="#b3b3b3" xlink:href="#5r45F"/></g><g><use fill="#b2e9fe" xlink:href="#5r45G"/></g><g><use fill="#fff" xlink:href="#5r45H"/></g><g opacity=".32"><g opacity=".32"><use xlink:href="#5r45I"/></g></g><g><use fill="#3f5e94" xlink:href="#5r45J"/></g><g><use fill="#d5e0fe" xlink:href="#5r45K"/></g><g><use fill="#819af4" xlink:href="#5r45L"/></g><g><use fill="#a59b9c" xlink:href="#5r45M"/></g><g><use fill="#a29696" xlink:href="#5r45N"/></g><g><use fill="#a29696" xlink:href="#5r45O"/></g><g><use fill="#d4fbfa" xlink:href="#5r45P"/></g><g><use fill="#ef2674" xlink:href="#5r45Q"/></g><g><use fill="#b4b4b4" xlink:href="#5r45R"/></g><g><use fill="#b4b4b4" xlink:href="#5r45S"/></g><g><use fill="#b4b4b4" xlink:href="#5r45T"/></g><g><use fill="#5aa5e2" xlink:href="#5r45U"/></g><g><use fill="#2064a8" xlink:href="#5r45V"/></g><g><use fill="#114c93" xlink:href="#5r45W"/></g><g><use fill="#5aa5e2" xlink:href="#5r45X"/></g><g><use fill="#2064a8" xlink:href="#5r45Y"/></g><g><use fill="#114c93" xlink:href="#5r45Z"/></g><g><use fill="#4d46e0" xlink:href="#5r45aa"/></g><g><use fill="#6050f0" xlink:href="#5r45ab"/></g><g><use fill="#4d46e0" xlink:href="#5r45ac"/></g><g><use fill="#4d46e0" xlink:href="#5r45ad"/></g><g><use fill="#4d46e0" xlink:href="#5r45ae"/></g><g><use fill="#4d46e0" xlink:href="#5r45af"/></g><g><use fill="#4d46e0" xlink:href="#5r45ag"/></g><g><use fill="#4d46e0" xlink:href="#5r45ah"/></g><g><use fill="#4d46e0" xlink:href="#5r45ai"/></g><g><use fill="#4d46e0" xlink:href="#5r45aj"/></g><g><use fill="#4d46e0" xlink:href="#5r45ak"/></g><g><use fill="#4d46e0" xlink:href="#5r45al"/></g><g><use fill="#4d46e0" xlink:href="#5r45am"/></g><g><use fill="#4d46e0" xlink:href="#5r45an"/></g><g><use fill="#6050f0" xlink:href="#5r45ao"/></g><g><use fill="#6050f0" xlink:href="#5r45ap"/></g><g><use fill="#6050f0" xlink:href="#5r45aq"/></g><g><use fill="#6050f0" xlink:href="#5r45ar"/></g><g><use fill="#6050f0" xlink:href="#5r45as"/></g><g><use fill="#6050f0" xlink:href="#5r45at"/></g><g><use fill="#6050f0" xlink:href="#5r45au"/></g><g><use fill="#6050f0" xlink:href="#5r45av"/></g><g><use fill="#6050f0" xlink:href="#5r45aw"/></g><g><use fill="#6050f0" xlink:href="#5r45ax"/></g><g><use fill="#6050f0" xlink:href="#5r45ay"/></g><g><use fill="#6050f0" xlink:href="#5r45az"/></g><g><use fill="#6050f0" xlink:href="#5r45aA"/></g><g><use fill="#6050f0" xlink:href="#5r45aB"/></g><g><use fill="#6050f0" xlink:href="#5r45aC"/></g><g><use fill="#4d46e0" xlink:href="#5r45aD"/></g><g><use fill="#4646db" xlink:href="#5r45aE"/></g><g><use fill="#5656e8" xlink:href="#5r45aF"/></g><g><use fill="#4040c1" xlink:href="#5r45aG"/></g><g><use fill="#4d46e0" xlink:href="#5r45aH"/></g><g><use fill="#6050f0" xlink:href="#5r45aI"/></g><g><use fill="#6050f0" xlink:href="#5r45aJ"/></g><g><use fill="#6050f0" xlink:href="#5r45aK"/></g><g><use fill="#4d46e0" xlink:href="#5r45aL"/></g><g><use fill="#6050f0" xlink:href="#5r45aM"/></g><g><use fill="#4141d6" xlink:href="#5r45aN"/></g><g><use fill="#4646db" xlink:href="#5r45aO"/></g><g><use fill="#9f9fff" xlink:href="#5r45aP"/></g><g><use fill="#4d46e0" xlink:href="#5r45aQ"/></g><g><use fill="#4d46e0" xlink:href="#5r45aR"/></g><g><use fill="#6050f0" xlink:href="#5r45aS"/></g><g><use fill="#6050f0" xlink:href="#5r45aT"/></g><g><use fill="#6050f0" xlink:href="#5r45aU"/></g><g><use fill="#6050f0" xlink:href="#5r45aV"/></g><g><use fill="#6050f0" xlink:href="#5r45aW"/></g><g><use fill="#6050f0" xlink:href="#5r45aX"/></g><g><use fill="#6050f0" xlink:href="#5r45aY"/></g><g><use fill="#6050f0" xlink:href="#5r45aZ"/></g><g><use fill="#6050f0" xlink:href="#5r45ba"/></g><g><use fill="#6050f0" xlink:href="#5r45bb"/></g><g><use fill="#6050f0" xlink:href="#5r45bc"/></g><g><use fill="#6050f0" xlink:href="#5r45bd"/></g><g transform="rotate(41.55 494.5 2543)"><use fill="#6050f0" xlink:href="#5r45be"/></g><g transform="rotate(41.55 493.5 2559.5)"><use fill="#6050f0" xlink:href="#5r45bf"/></g><g transform="rotate(41.55 493.5 2577.5)"><use fill="#6050f0" xlink:href="#5r45bg"/></g><g transform="rotate(41.55 493.5 2595.5)"><use fill="#6050f0" xlink:href="#5r45bh"/></g><g transform="rotate(41.55 493.5 2612.5)"><use fill="#6050f0" xlink:href="#5r45bi"/></g><g transform="rotate(41.55 493.5 2630.5)"><use fill="#6050f0" xlink:href="#5r45bj"/></g><g transform="rotate(41.55 493.5 2647)"><use fill="#6050f0" xlink:href="#5r45bk"/></g><g transform="rotate(41.55 493.5 2664.5)"><use fill="#6050f0" xlink:href="#5r45bl"/></g><g transform="rotate(41.55 493.5 2682.5)"><use fill="#6050f0" xlink:href="#5r45bm"/></g><g transform="rotate(41.55 493.5 2698.5)"><use fill="#6050f0" xlink:href="#5r45bn"/></g><g transform="rotate(41.55 493.5 2716)"><use fill="#6050f0" xlink:href="#5r45bo"/></g><g transform="rotate(41.55 493.5 2734)"><use fill="#6050f0" xlink:href="#5r45bp"/></g><g transform="rotate(38.96 511 2542.5)"><use fill="#4d46e0" xlink:href="#5r45bq"/></g><g transform="rotate(38.96 510.5 2559.5)"><use fill="#4d46e0" xlink:href="#5r45br"/></g><g transform="rotate(38.96 511 2578.5)"><use fill="#4d46e0" xlink:href="#5r45bs"/></g><g transform="rotate(38.96 510 2595.5)"><use fill="#4d46e0" xlink:href="#5r45bt"/></g><g transform="rotate(38.96 510.5 2612.5)"><use fill="#4d46e0" xlink:href="#5r45bu"/></g><g transform="rotate(38.96 511 2630)"><use fill="#4d46e0" xlink:href="#5r45bv"/></g><g transform="rotate(38.96 510.5 2647.5)"><use fill="#4d46e0" xlink:href="#5r45bw"/></g><g transform="rotate(38.96 510.5 2664.5)"><use fill="#4d46e0" xlink:href="#5r45bx"/></g><g transform="rotate(38.96 511 2681.5)"><use fill="#4d46e0" xlink:href="#5r45by"/></g><g transform="rotate(38.96 510.5 2698.5)"><use fill="#4d46e0" xlink:href="#5r45bz"/></g><g transform="rotate(38.96 511 2716)"><use fill="#4d46e0" xlink:href="#5r45bA"/></g><g transform="rotate(38.96 511 2733.5)"><use fill="#4d46e0" xlink:href="#5r45bB"/></g><g><use fill="#6050f0" xlink:href="#5r45bC"/></g><g><use fill="#4040c1" xlink:href="#5r45bD"/></g><g><use fill="#4040c1" xlink:href="#5r45bE"/></g><g><use fill="#4d46e0" xlink:href="#5r45bF"/></g><g><use fill="#4d46e0" xlink:href="#5r45bG"/></g><g><use fill="#4d46e0" xlink:href="#5r45bH"/></g><g><use fill="#4d46e0" xlink:href="#5r45bI"/></g><g><use fill="#4d46e0" xlink:href="#5r45bJ"/></g><g><use fill="#4d46e0" xlink:href="#5r45bK"/></g><g><use fill="#4d46e0" xlink:href="#5r45bL"/></g><g><use fill="#4d46e0" xlink:href="#5r45bM"/></g><g><use fill="#4d46e0" xlink:href="#5r45bN"/></g><g><use fill="#4d46e0" xlink:href="#5r45bO"/></g><g><use fill="#4d46e0" xlink:href="#5r45bP"/></g><g><use fill="#4d46e0" xlink:href="#5r45bQ"/></g><g><use fill="#4d46e0" xlink:href="#5r45bR"/></g><g><use fill="#9f9fff" xlink:href="#5r45bS"/></g><g><use fill="#4040c1" xlink:href="#5r45bT"/></g><g><use fill="#6050f0" xlink:href="#5r45bU"/></g><g><use fill="#3d55d3" xlink:href="#5r45bV"/></g><g><use fill="#3d55d3" xlink:href="#5r45bW"/></g><g><use fill="#4949ce" xlink:href="#5r45bX"/></g><g><use fill="#4949ce" xlink:href="#5r45bY"/></g><g><use fill="#b3b3ff" xlink:href="#5r45bZ"/></g><g><use fill="#b3b3ff" xlink:href="#5r45ca"/></g><g><use fill="#b3b3ff" xlink:href="#5r45cb"/></g><g><use fill="#b3b3ff" xlink:href="#5r45cc"/></g><g><use fill="#ef2674" xlink:href="#5r45cd"/></g><g><use fill="#ef2674" xlink:href="#5r45ce"/></g><g><use fill="#331360" xlink:href="#5r45cf"/></g><g><use fill="#2c1254" xlink:href="#5r45cg"/></g><g><use fill="#f5c898" xlink:href="#5r45ch"/></g><g><use fill="#f6b682" xlink:href="#5r45ci"/></g><g><use fill="#5361f0" xlink:href="#5r45cj"/></g><g opacity=".22"><use fill="#1b1d73" xlink:href="#5r45ck"/></g><g><use fill="#fdc53a" xlink:href="#5r45cl"/></g><g><use fill="#f6a213" xlink:href="#5r45cm"/></g><g><use fill="#fdc53a" xlink:href="#5r45cn"/></g><g><use fill="#f5b42a" xlink:href="#5r45co"/></g><g><use fill="#ffbc49" xlink:href="#5r45cp"/></g><g><use fill="#392859" xlink:href="#5r45cq"/></g><g><use fill="#896fcd" xlink:href="#5r45cr"/></g><g transform="rotate(-45 707.5 2604)"><use fill="#463176" xlink:href="#5r45cs"/></g><g transform="rotate(-45 707 2604.5)"><use fill="#5ddefc" xlink:href="#5r45ct"/></g><g><use fill="#fff" fill-opacity="0" stroke="#fff" stroke-miterlimit="50" stroke-width=".88" xlink:href="#5r45cu"/></g></g></g></svg>