<svg xmlns="http://www.w3.org/2000/svg" xmlns:xlink="http://www.w3.org/1999/xlink" width="583" height="450" viewBox="0 0 583 450"><defs><path id="trk8a" d="M1550.68 2174.289a154.753 154.753 0 0 1-4.65 12.33c-8.09 19.051-21.525 54.027-61.32 77.057 0 0-48.781 37.034-130.877 16.573 0 0-84.366-22.445-216.049-18.567a207.981 207.981 0 0 1-56.02-2.04c-2.893-.493-5.84-1.07-8.824-1.737-20.492-4.573-42.558-13.153-60.88-29.03a113.165 113.165 0 0 1-6.8-6.403 181.68 181.68 0 0 1-5.492-6.064 129.37 129.37 0 0 1-2.746-3.42 115.43 115.43 0 0 1-17.444-33s-3.478-12.495-3.66-30.55c-.285-28.902 7.815-72.146 51.883-101.048 0 0 27.896-19.921 74.646-15.43 15.724 1.509 31.63.366 46.677-4.464 20.849-6.695 44.846-20.78 53.083-50.414l3.661-12.403a451.67 451.67 0 0 0 11.074-44.68c5.254-27.804 28.372-91.06 130.173-83.341 2.563.192 5.125.348 7.688.457 14.79.604 85.18 8.744 110.303 107.817 0 0 .705 4.208 2.407 10.976 4.897 19.39 18.113 59.78 47.135 82.418 18.057 14.085 31.712 33.064 37.89 55.115a139.605 139.605 0 0 1-1.858 79.848z"/><path id="trk8b" d="M1056.33 2212.19v-280.02h398.72v280.02z"/><path id="trk8c" d="M1066.91 2225.49v-280.02h401.46v280.02z"/><path id="trk8e" d="M1081.25 2211.17V1959.8h374.27v251.37z"/><path id="trk8f" d="M1275.84 2067.675a5.945 5.945 0 0 1 5.945-5.945h129.85a5.945 5.945 0 0 1 5.945 5.945v33.96a5.945 5.945 0 0 1-5.945 5.945h-129.85a5.945 5.945 0 0 1-5.945-5.945z"/><path id="trk8g" d="M1383.58 2075.132a4.802 4.802 0 0 1 4.802-4.802h18.256a4.802 4.802 0 0 1 4.802 4.802v18.236a4.802 4.802 0 0 1-4.802 4.802h-18.256a4.802 4.802 0 0 1-4.802-4.802z"/><path id="trk8h" d="M1285.25 2071.629c0-.718.581-1.299 1.299-1.299h12.142c.718 0 1.299.581 1.299 1.299v3.132c0 .717-.581 1.299-1.299 1.299h-12.142a1.299 1.299 0 0 1-1.299-1.299z"/><path id="trk8i" d="M1325.4 2081.459c0-.718.581-1.299 1.299-1.299h12.142c.718 0 1.299.581 1.299 1.299v3.132c0 .718-.581 1.299-1.299 1.299H1326.7a1.299 1.299 0 0 1-1.299-1.299z"/><path id="trk8j" d="M1306.56 2071.629c0-.718.581-1.299 1.299-1.299h35.092c.718 0 1.299.581 1.299 1.299v3.132c0 .717-.581 1.299-1.299 1.299h-35.092a1.299 1.299 0 0 1-1.299-1.299z"/><path id="trk8k" d="M1284.44 2081.459c0-.718.581-1.299 1.299-1.299h35.092c.718 0 1.299.581 1.299 1.299v3.132c0 .718-.581 1.299-1.299 1.299h-35.092a1.299 1.299 0 0 1-1.299-1.299z"/><path id="trk8l" d="M1286.08 2093.739c0-.718.581-1.299 1.299-1.299h35.092c.718 0 1.299.581 1.299 1.299v3.132c0 .718-.581 1.299-1.299 1.299h-35.092a1.299 1.299 0 0 1-1.299-1.299z"/><path id="trk8m" d="M1274.2 2118.445a5.945 5.945 0 0 1 5.945-5.945h129.85a5.945 5.945 0 0 1 5.945 5.945v33.96a5.945 5.945 0 0 1-5.945 5.945h-129.85a5.945 5.945 0 0 1-5.945-5.945z"/><path id="trk8n" d="M1381.94 2125.892a4.802 4.802 0 0 1 4.802-4.802h18.256a4.802 4.802 0 0 1 4.802 4.802v18.236a4.802 4.802 0 0 1-4.802 4.802h-18.256a4.802 4.802 0 0 1-4.802-4.802z"/><path id="trk8o" d="M1283.61 2122.389c0-.718.581-1.299 1.299-1.299h12.142c.718 0 1.299.581 1.299 1.299v3.132c0 .717-.581 1.299-1.299 1.299h-12.142a1.299 1.299 0 0 1-1.299-1.299z"/><path id="trk8p" d="M1323.77 2132.219c0-.718.581-1.299 1.299-1.299h12.142c.718 0 1.299.581 1.299 1.299v3.132c0 .718-.581 1.299-1.299 1.299h-12.142a1.299 1.299 0 0 1-1.299-1.299z"/><path id="trk8q" d="M1304.92 2122.389c0-.718.581-1.299 1.299-1.299h35.092c.718 0 1.299.581 1.299 1.299v3.132c0 .717-.581 1.299-1.299 1.299h-35.092a1.299 1.299 0 0 1-1.299-1.299z"/><path id="trk8r" d="M1282.8 2132.219c0-.718.581-1.299 1.299-1.299h35.092c.718 0 1.299.581 1.299 1.299v3.132c0 .718-.581 1.299-1.299 1.299H1284.1a1.299 1.299 0 0 1-1.299-1.299z"/><path id="trk8s" d="M1284.44 2144.499c0-.718.581-1.299 1.299-1.299h35.092c.718 0 1.299.581 1.299 1.299v3.132c0 .717-.581 1.299-1.299 1.299h-35.092a1.299 1.299 0 0 1-1.299-1.299z"/><path id="trk8t" d="M1275.01 2168.395a5.945 5.945 0 0 1 5.945-5.945h130.63a5.945 5.945 0 0 1 5.945 5.945v33.96a5.945 5.945 0 0 1-5.945 5.945h-130.63a5.945 5.945 0 0 1-5.945-5.945z"/><path id="trk8u" d="M1382.75 2175.842a4.802 4.802 0 0 1 4.802-4.802h18.256a4.802 4.802 0 0 1 4.802 4.802v18.236a4.802 4.802 0 0 1-4.802 4.802h-18.256a4.802 4.802 0 0 1-4.802-4.802z"/><path id="trk8v" d="M1284.44 2172.339c0-.718.581-1.299 1.299-1.299h12.142c.718 0 1.299.581 1.299 1.299v3.132c0 .717-.581 1.299-1.299 1.299h-12.142a1.299 1.299 0 0 1-1.299-1.299z"/><path id="trk8w" d="M1324.58 2182.169c0-.718.581-1.299 1.299-1.299h12.142c.718 0 1.299.581 1.299 1.299v3.132c0 .718-.581 1.299-1.299 1.299h-12.142a1.299 1.299 0 0 1-1.299-1.299z"/><path id="trk8x" d="M1305.74 2172.339c0-.718.581-1.299 1.299-1.299h35.092c.718 0 1.299.581 1.299 1.299v3.132c0 .717-.581 1.299-1.299 1.299h-35.092a1.299 1.299 0 0 1-1.299-1.299z"/><path id="trk8y" d="M1283.61 2182.169c0-.718.581-1.299 1.299-1.299H1320c.718 0 1.299.581 1.299 1.299v3.132c0 .718-.581 1.299-1.299 1.299h-35.092a1.299 1.299 0 0 1-1.299-1.299z"/><path id="trk8z" d="M1285.25 2194.449c0-.718.581-1.299 1.299-1.299h35.092c.718 0 1.299.581 1.299 1.299v3.132c0 .718-.581 1.299-1.299 1.299h-35.092a1.299 1.299 0 0 1-1.299-1.299z"/><path id="trk8A" d="M1097.23 2052.72v-80.24h358.04v80.24z"/><path id="trk8B" d="M1101.73 1983.55v-1.64h187.92v1.64z"/><path id="trk8C" d="M1101.73 1997.47v-1.64h187.92v1.64z"/><path id="trk8D" d="M1100.81 2045.25v-65.39h1.64v65.39z"/><path id="trk8E" d="M1125.23 2019.98v-40.12h1.64v40.12z"/><path id="trk8F" d="M1173.42 2023.62v-44.58h1.64v44.58z"/><path id="trk8G" d="M1220.13 2019.16v-40.12h1.64v40.12z"/><path id="trk8H" d="M1150.48 2037.39v-57.53h1.64v57.53z"/><path id="trk8I" d="M1288.94 2030.63v-51.59h1.64v51.59z"/><path id="trk8J" d="M1101.62 2031.44s12.173-2.827 15.44-15.705a19.633 19.633 0 0 1 4.878-9.146c4.009-4.025 10.278-6.119 16.245 9.293 9.83 25.38 13.106 22.106 27.036 11.46 0 0 4.915-4.912 10.653-5.735 5.739-.823 9.015-18.009 13.106-22.107 4.092-4.097 7.377-16.372 22.945-.823 0 0 2.462 3.275 12.292 6.549 0 0 4.1-.823 11.468 14.735 7.367 15.558 19.659-9.01 21.306-14.735 1.647-5.726 7.377-28.655 17.206-7.774 9.83 20.88 6.553 28.244 16.383 33.164v14.735h-188.885z"/><path id="trk8K" d="M1297.31 1930.906c0-5.642 4.574-10.216 10.216-10.216h181.748c5.642 0 10.216 4.574 10.216 10.216v101.838c0 5.642-4.574 10.216-10.216 10.216h-181.748c-5.642 0-10.216-4.574-10.216-10.216z"/><path id="trk8M" d="M1308.45 1940.262c0-.697.565-1.262 1.262-1.262h44.466c.697 0 1.262.565 1.262 1.262v3.046c0 .697-.565 1.262-1.262 1.262h-44.466a1.262 1.262 0 0 1-1.262-1.262z"/><path id="trk8N" d="M1308.45 1951.402c0-.697.565-1.262 1.262-1.262h20.566c.697 0 1.262.565 1.262 1.262v3.046c0 .697-.565 1.262-1.262 1.262h-20.566a1.262 1.262 0 0 1-1.262-1.262z"/><path id="trk8O" d="M1333.93 1950.602c0-.697.565-1.262 1.262-1.262h12.606c.697 0 1.262.565 1.262 1.262v3.046c0 .697-.565 1.262-1.262 1.262h-12.606a1.262 1.262 0 0 1-1.262-1.262z"/><path id="trk8P" d="M1308.45 1962.542c0-.697.565-1.262 1.262-1.262h44.466c.697 0 1.262.565 1.262 1.262v3.046c0 .697-.565 1.262-1.262 1.262h-44.466a1.262 1.262 0 0 1-1.262-1.262z"/><path id="trk8Q" d="M1437.962 2030.423c-24.632 0-44.6-19.955-44.6-44.57 0-24.616 19.968-44.57 44.6-44.57 24.63 0 44.599 19.954 44.599 44.57a44.555 44.555 0 0 1-13.063 31.515 44.614 44.614 0 0 1-31.536 13.055zm0-90.723c-25.511 0-46.192 20.667-46.192 46.162 0 25.494 20.68 46.161 46.192 46.161 25.51 0 46.191-20.667 46.191-46.161 0-25.495-20.68-46.162-46.191-46.162z"/><path id="trk8R" d="M1437.963 2009.573c-9.602 0-18.26-5.78-21.934-14.647a23.714 23.714 0 0 1 5.146-25.855 23.753 23.753 0 0 1 25.873-5.144 23.725 23.725 0 0 1 14.656 21.92c0 13.103-10.63 23.726-23.741 23.726zm0-48.293c-13.577 0-24.583 11-24.583 24.567 0 13.568 11.006 24.567 24.583 24.567 13.577 0 24.583-10.999 24.583-24.567s-11.006-24.567-24.583-24.567z"/><path id="trk8S" d="M1412.426 2000.774a30.01 30.01 0 0 1-.632-28.905 30.047 30.047 0 0 1 24.071-16.04v-8.579a38.624 38.624 0 0 0-31.706 20.755 38.576 38.576 0 0 0 1.32 37.855z"/><path id="trk8T" d="M1442.24 1947.34v8.616c13.201 1.697 23.713 11.87 25.836 25 2.123 13.13-4.649 26.093-16.643 31.859-11.994 5.765-26.355 2.961-35.295-6.893l-6.928 5.077c11.356 13.128 30.084 17.069 45.774 9.63 15.69-7.438 24.482-24.426 21.49-41.521-2.991-17.095-17.031-30.092-34.316-31.768z"/><path id="trk8U" d="M1423.92 1977.662c0-.697.565-1.262 1.262-1.262h27.736c.697 0 1.262.565 1.262 1.262v3.046c0 .697-.565 1.262-1.262 1.262h-27.736a1.262 1.262 0 0 1-1.262-1.262z"/><path id="trk8V" d="M1424.72 1988.802c0-.697.565-1.262 1.262-1.262h19.766c.697 0 1.262.565 1.262 1.262v3.046c0 .697-.565 1.262-1.262 1.262h-19.766a1.262 1.262 0 0 1-1.262-1.262z"/><path id="trk8W" d="M1393.657 1978.79h-50.969l-.796 1.098-26.432 37.326 1.135 1.116 26.88-37.949h50.182v-1.591z"/><path id="trk8X" d="M1393.663 1993.91h-38.23l-.795 1.098-16.868 23.003 1.126 1.125 17.325-23.635h37.442v-1.591z"/><path id="trk8Y" d="M1397.645 2005.84h-28.664l-.797 1.098-8.914 11.853 1.922.339 8.576-11.699h28.674l-.797-1.591z"/><path id="trk8Z" d="M1308.45 2026.592a2.442 2.442 0 0 1 2.442-2.442h11.036a2.442 2.442 0 0 1 2.442 2.442v11.026a2.442 2.442 0 0 1-2.442 2.442h-11.036a2.442 2.442 0 0 1-2.442-2.442z"/><path id="trk8aa" d="M1331.55 2026.592a2.442 2.442 0 0 1 2.442-2.442h11.036a2.442 2.442 0 0 1 2.442 2.442v11.026a2.442 2.442 0 0 1-2.442 2.442h-11.036a2.442 2.442 0 0 1-2.442-2.442z"/><path id="trk8ab" d="M1353.84 2026.592a2.442 2.442 0 0 1 2.442-2.442h11.036a2.442 2.442 0 0 1 2.442 2.442v11.026a2.442 2.442 0 0 1-2.442 2.442h-11.036a2.442 2.442 0 0 1-2.442-2.442z"/><path id="trk8ac" d="M1311.64 2018.58v-1.59h9.55v1.59z"/><path id="trk8ad" d="M1333.93 2019.38v-1.59h9.55v1.59z"/><path id="trk8ae" d="M1356.23 2019.38v-1.59h9.55v1.59z"/><path id="trk8af" d="M1098.39 2155.447a3.887 3.887 0 0 1 3.887-3.887h50.096a3.887 3.887 0 0 1 3.887 3.887v47.846a3.887 3.887 0 0 1-3.887 3.887h-50.096a3.887 3.887 0 0 1-3.887-3.887z"/><path id="trk8ag" d="M1104.465 2182.025a.366.366 0 0 1-.22-.65 41.464 41.464 0 0 1 7.66-4.737 30.526 30.526 0 0 1 4.348-1.702 9.393 9.393 0 0 0 3.194-1.518 13.85 13.85 0 0 0 4.183-5.204c.842-1.573 1.565-2.936 3.212-3.174 1.647-.238 2.6.686 3.66 1.573 1.063.888 2.07 1.766 3.662 1.683 1.592-.082 2.343-.914 3.77-2.387a33.974 33.974 0 0 1 3.259-2.963c2.91-2.278 6.178-3.366 8.95-2.964a.366.366 0 0 1-.1.714c-2.581-.366-5.647.658-8.402 2.817a32.942 32.942 0 0 0-3.194 2.9c-1.446 1.453-2.49 2.496-4.247 2.597-1.757.1-3.075-.915-4.146-1.83-1.07-.914-1.83-1.582-3.056-1.399-1.227.183-1.83 1.28-2.682 2.799a14.462 14.462 0 0 1-4.393 5.488 10.07 10.07 0 0 1-3.405 1.618 29.912 29.912 0 0 0-4.256 1.665 40.75 40.75 0 0 0-7.532 4.656.357.357 0 0 1-.265.018z"/><path id="trk8ai" d="M1102.66 2202.63v-11.91h5.06v11.91z"/><path id="trk8aj" d="M1117.36 2202.62v-19.23h5.06v19.23z"/><path id="trk8ak" d="M1110.01 2202.64v-15.88h5.06v15.88z"/><path id="trk8al" d="M1124.72 2202.63v-25.65h5.06v25.65z"/><path id="trk8am" d="M1132.07 2202.63v-23.51h5.06v23.51z"/><path id="trk8an" d="M1139.43 2202.33v-27.48h5.06v27.48z"/><path id="trk8ao" d="M1146.79 2202.63v-31.45h5.06v31.45z"/><path id="trk8ap" d="M1196.97 2153.585a1.025 1.025 0 1 1 2.05 0 1.025 1.025 0 0 1-2.05 0z"/><path id="trk8aq" d="M1143.031 2119.188h-34.595a2.388 2.388 0 0 1-2.105-2.424 2.434 2.434 0 0 1 2.425-2.424h34.586a2.434 2.434 0 0 1 2.426 2.424 2.515 2.515 0 0 1-2.737 2.424z"/><path id="trk8ar" d="M1098.09 2116.78a2.91 2.91 0 1 1 5.82 0 2.91 2.91 0 0 1-5.82 0z"/><path id="trk8as" d="M1148.44 2130.12h-39.693a2.543 2.543 0 0 1-2.407-2.423 2.626 2.626 0 0 1 2.746-2.424h39.693a2.626 2.626 0 0 1 2.746 2.424c.073 1.335-1.18 2.424-3.085 2.424z"/><path id="trk8at" d="M1098.09 2127.71a2.91 2.91 0 1 1 5.82 0 2.91 2.91 0 0 1-5.82 0z"/><path id="trk8au" d="M1139.411 2141.048h-31.182a2.314 2.314 0 0 1-1.894-2.424 2.324 2.324 0 0 1 2.187-2.424h31.219a2.324 2.324 0 0 1 2.187 2.424 2.377 2.377 0 0 1-2.517 2.424z"/><path id="trk8av" d="M1098.09 2138.63a2.91 2.91 0 1 1 5.82 0 2.91 2.91 0 0 1-5.82 0z"/><path id="trk8aw" d="M1117.25 2090.89v-3.84h21.11v3.84z"/><path id="trk8ax" d="M1023.056 2059.454l95.083 16.418c5.305.933 8.935 5.875 8.237 11.213-.697 5.4-5.563 9.266-10.983 8.726l-98.103-6.082c-6.7-.668-10.727-10.647-9.29-17.214l.76-3.448c1.421-6.512 7.724-10.75 14.296-9.613z"/><path id="trk8az" d="M1039.684 2079.565c0 1.584-.25 3.159-.741 4.665L997.08 2213a115.43 115.43 0 0 1-17.5-33.009s-3.477-12.494-3.66-30.549l34.97-76.161c2.956-6.441 10.002-9.955 16.929-8.443a15.075 15.075 0 0 1 11.865 14.726z"/><path id="trk8aB" d="M1020.22 2077.295a5.782 5.782 0 0 1 5.78-5.785c3.192 0 5.78 2.59 5.78 5.785a5.782 5.782 0 0 1-5.78 5.785 5.782 5.782 0 0 1-5.78-5.785z"/><path id="trk8aC" d="M1011.89 2106.35a4.007 4.007 0 0 1 4.005-4.01 4.008 4.008 0 0 1 4.005 4.01 4.007 4.007 0 0 1-4.005 4.01 4.008 4.008 0 0 1-4.005-4.01z"/><path id="trk8aD" d="M1012.51 2105.94a3.56 3.56 0 1 1 7.12 0 3.56 3.56 0 0 1-7.12 0z"/><path id="trk8aE" d="M1004.05 2125.54a3.56 3.56 0 1 1 7.12 0 3.56 3.56 0 0 1-7.12 0z"/><path id="trk8aF" d="M997.92 2139.88v-1.78h9.79v1.78z"/><path id="trk8aG" d="M996.34 2143.55v-1.78h9.79v1.78z"/><path id="trk8aH" d="M994.76 2147.23v-1.78h9.79v1.78z"/><path id="trk8aI" d="M993.17 2150.91v-1.78h9.79v1.78z"/><path id="trk8aJ" d="M991.58 2154.58v-1.78h9.79v1.78z"/><path id="trk8aK" d="M990 2158.25v-1.78h9.79v1.78z"/><path id="trk8aL" d="M988.42 2161.93v-1.78h9.79v1.78z"/><path id="trk8aM" d="M1110.47 2085.765a4.895 4.895 0 1 1 9.79 0 4.895 4.895 0 0 1-9.79 0z"/><path id="trk8aN" d="M1157.53 2103.927a10.183 10.183 0 0 1-11.883-1.03 10.166 10.166 0 0 1-2.744-11.6 10.178 10.178 0 0 1 10.164-6.238c4.38.33 8.053 3.431 9.111 7.691l2.078.915a12.059 12.059 0 0 0-10.353-10.397 12.064 12.064 0 0 0-12.736 7.29 12.05 12.05 0 0 0 3.736 14.185 12.069 12.069 0 0 0 14.676.08z"/><path id="trk8aO" d="M1134.55 2091.365a4.317 4.317 0 0 1 4.32-4.315 4.317 4.317 0 0 1 4.32 4.315 4.317 4.317 0 0 1-4.32 4.315 4.317 4.317 0 0 1-4.32-4.315z"/><path id="trk8aP" d="M1159.192 2103.391a5.624 5.624 0 1 1-3.085-10.82 5.632 5.632 0 0 1 6.958 3.87 5.624 5.624 0 0 1-3.864 6.95zm10.016-1.29l.815-3.246-1.648-.814c.002-.48-.028-.96-.091-1.436l1.62-.86-.915-3.22-2.032.138a10.61 10.61 0 0 0-.696-1.061l1.062-1.701-2.407-2.333-1.83 1.208a10.83 10.83 0 0 0-1.026-.54l.074-2.122-3.25-.814-.97 1.976a10.65 10.65 0 0 0-1.134 0l-.998-1.885-3.222.915.138 2.131c-.36.184-.708.39-1.044.613l-1.739-1.088-2.297 2.396 1.107 1.646c-.25.376-.476.767-.677 1.171l-1.903-.073-.815 3.247 1.602.786a10.638 10.638 0 0 0 0 1.537l-1.483.787.915 3.22 1.593-.11c.244.512.528 1.004.85 1.472l-.786 1.262 2.407 2.332 1.217-.814c.504.35 1.037.656 1.593.915l-.046 1.381 3.249.814.622-1.262c.611.031 1.223.01 1.83-.064l.641 1.207 3.222-.914-.1-1.473c.52-.263 1.02-.57 1.491-.915l1.245.778 2.334-2.406-.916-1.362c.28-.466.525-.952.733-1.455z"/><path id="trk8aQ" d="M1159.42 2104.13a6.408 6.408 0 0 1-7.913-4.405 6.396 6.396 0 0 1 4.41-7.903 6.408 6.408 0 0 1 7.914 4.402 6.39 6.39 0 0 1-.569 4.868 6.405 6.405 0 0 1-3.852 3.038zm-3.973-13.93a8.084 8.084 0 1 0-1.722 14.841 8.095 8.095 0 0 0 8.961-.727 8.082 8.082 0 0 0 2.756-8.552 8.091 8.091 0 0 0-9.995-5.561z"/><path id="trk8aR" d="M1189.034 2035.36c-2.123-2.26-5.373-4.199-8.576-3.476a5.559 5.559 0 0 0-1.208.42c-2.682.97-4.356 4.107-4.256 6.924a7.918 7.918 0 0 0 1.83 5.003c1.145 1.226 2.746 1.226 4.238 1.701a61.24 61.24 0 0 0-.494 6.247c-.082 1.29 0 2.424 1.025 3.311 1.904 1.573 5.967 2.333 7.569 0 .915-1.29.613-2.204.696-4.262.064-1.482-.75-4.107 1.93-6.146a2.414 2.414 0 0 0 .99-2.095 12.4 12.4 0 0 0-3.744-7.628z"/><path id="trk8aS" d="M1192.167 2036.632c-.064-.356-.412-.493-.695-.649a20.002 20.002 0 0 0-3.524-1.774c-.21-.128-.522.082-.366.329a33.951 33.951 0 0 0 2.27 3.283c.412.504.97 1.07 1.51.449.22-.256.87-1.263.805-1.638z"/><path id="trk8aT" d="M1181.69 2032.615c1.171-.659.31-2.195-.851-2.021-3.881.585-8.237 2.369-8.979 6.402a.384.384 0 0 1-.476.293 3.058 3.058 0 0 0-2.626.914 3.4 3.4 0 0 0-.046 3.842 2.261 2.261 0 0 0 3.24.22c.081-.071.158-.148.228-.23a.339.339 0 0 1 .559.046 7.665 7.665 0 0 0 1.565 1.94 8.769 8.769 0 0 0 2.398 1.509c.915.375 2.59.365 3.203 1.088a.824.824 0 0 0 .33.238l.091.119c.485.64 1.684.503 1.63-.44-.147-2.57-3.03-4.051-3.232-5.25-.228-1.38 1.282-1.719 1.83-2.743 1.044-1.912-1.097-4.674 1.136-5.927z"/><path id="trk8aU" d="M1181.719 2042.208a13.568 13.568 0 0 0-1.611-1.637c-.44-.576-.989-1.162-1.648-.96-.723.221-1.21.899-1.19 1.655.193 1.994 3.076 2.195 4.394 1.326a.238.238 0 0 0 .055-.384z"/><path id="trk8aV" d="M1210.9 2036.39a.092.092 0 0 0-.146.091c.09.543.208 1.08.357 1.61a.11.11 0 0 0-.064.083c0 .22-.046.439-.073.667l-.12-.228a.146.146 0 0 0-.091-.074.21.21 0 0 0-.146-.118 6.667 6.667 0 0 0-4.494.274.128.128 0 0 0-.229 0l-.082.183h-.055a.091.091 0 0 0 0 .128l-.147.302a2.744 2.744 0 0 1-.256-.54.137.137 0 0 0-.064-.073 2.203 2.203 0 0 0-.238-.787c0-.082-.055-.164-.082-.247a.137.137 0 0 0-.23 0v-.128a.1.1 0 0 0-.191 0c-.32 1.19-.21 2.47-.458 3.659a15.138 15.138 0 0 1-.714 2.341 35.622 35.622 0 0 1-7.89 9.147c-.512.411-.841.914-1.51 1.042a22.63 22.63 0 0 1-2.406-.164c-.806-.073-.916-1.025-.916-1.83 0-.52-.787-.576-.768-.045 0 1.134-1.044 1.619-1.465 2.488-.07.15-.128.306-.174.466a.467.467 0 0 1-.915 0 .421.421 0 0 0-.393-.302 7.955 7.955 0 0 1-6.26-2.963c-.23-.284-.66 0-.577.338.247 1.006-.75 1.701-1.657 1.83-1.838.39-3.641.931-5.39 1.618a.714.714 0 0 0-.193.11c-3.98 1.134-5.042 6.631-5.647 10.17a17.477 17.477 0 0 0 .513 7.41c.477 2.017.634 4.097.467 6.164a6.072 6.072 0 0 1-1.318 2.534 2.243 2.243 0 0 1-2.82.475.284.284 0 0 0-.182-.1 3.733 3.733 0 0 1-1.108-1.144c-.21-.33-.805-.128-.668.284a4.273 4.273 0 0 0 3.149 3.137c.393.11 2.224.348 3.944-1.83a34.56 34.56 0 0 0 3.076-5.414 57.235 57.235 0 0 0 2.169-4.454.494.494 0 0 1 .915.119c.64 4.362 1.153 7.93 1.537 9.146a.137.137 0 0 1 0 .082c-.32 1.381 1.053 3.942 2.105 2.653.916-1.125 4.037-.357 5.336-.229 1.944.197 3.875.503 5.784.915a37.54 37.54 0 0 1 9.638 3.384c.86.43 1.418-.265 2.032-1.162 1.263-1.829 0-8.506-1.154-16.994a13.09 13.09 0 0 1 .403-5.213c1.4-4.994 5.437-8.689 7.734-13.17a30.758 30.758 0 0 0 2.874-6.403c.354-1.215.56-2.468.613-3.732.256-1.847-.028-4.152-1.355-5.506z"/><path id="trk8aX" d="M1235.844 2081.05c-2.33.268-4.642.665-6.928 1.189a1967.18 1967.18 0 0 0-17.938 43.262 2418.775 2418.775 0 0 0-17.225 44.049c-3.148 8.287-29.836 78.878-32.948 87.192-.064.165.091.302.238.311 3.285.338 6.708.549 9.93-.33 3.222-.877 12.905-18.566 14.213-21.612 1.74-4.043 17.39-54.677 18.937-58.811 1.562-4.268 3.111-8.564 4.649-12.887a2026.769 2026.769 0 0 0 17.847-52.262c3.228-9.885 6.379-19.796 9.454-29.735a.292.292 0 0 0-.229-.366z"/><path id="trk8aZ" d="M1176.16 2233.38l-3.971.393a.339.339 0 0 0-.339.339c0 .338 0 .53.092.869a.247.247 0 0 0 .054.128 47.529 47.529 0 0 0 .12 5.99c0 .293.457.467.594.156 1.364-3.037 2.618-4.317 3.771-7.445a.338.338 0 0 0-.32-.43z"/><path id="trk8ba" d="M1184.82 2207.02c-1.326.128-2.644 2.954-3.971 3.092a.339.339 0 0 0-.339.338c0 .338 0 .53.092.869a.247.247 0 0 0 .054.128c-.192 2.561.065 5.232.12 7.784 0 .292.457.466.594.155a145.375 145.375 0 0 0 3.771-9.247c.073-.192-.11-3.146-.32-3.119z"/><path id="trk8bb" d="M1193.83 2182.73l-3.971.393a.339.339 0 0 0-.339.339c0 .338 0 .53.092.869a.247.247 0 0 0 .054.128c-.192 2.56.065 5.231.12 7.783 0 .293.457.467.594.156a145.375 145.375 0 0 0 3.771-9.247.338.338 0 0 0-.32-.421z"/><path id="trk8bc" d="M1202.794 2160.403c-.485-.586-1.3-1.83-2.188-1.738-.887.091-1.19 1.134-1.711 1.728-.083-.118-.302-.1-.284.074.275 2.08.738 4.13 1.382 6.128a.302.302 0 0 0 .55.073c.731-1.345 1.464-2.69 2.177-4.043.44-.841.733-1.445.074-2.222z"/><path id="trk8bd" d="M1194.25 2178.159c-2.49-.046-4.997-.238-7.477-.449h-.064a6.225 6.225 0 0 0-.165-.612.567.567 0 0 0-1.09 0c-.558 1.975 0 4.207-.164 6.247a.85.85 0 0 0 .833.832c1.29.11 2.59 0 3.88 0a5.76 5.76 0 0 0 2.462-.32c1.776-.805 1.492-2.57 2.536-3.897a1.097 1.097 0 0 0-.75-1.801z"/><path id="trk8be" d="M1196.704 2176.324a12.03 12.03 0 0 1-2.93-1.417c-1.518-1.125-1.72-2.616-1.592-4.4a55.52 55.52 0 0 0 .458-7.372.549.549 0 0 0-1.07-.146 9.96 9.96 0 0 0-.193.915 21.366 21.366 0 0 0-6.288-.741.522.522 0 0 0-.979.238c.082 4.673 1.098 9.43 1.702 14.058a.723.723 0 0 0 .504.658c3.038 1.034 6.489.915 9.619.53a.915.915 0 0 0 .668-.457.935.935 0 1 0 .1-1.866z"/><path id="trk8bf" d="M1203.809 2154.763a13.443 13.443 0 0 1-6.727-1.545.457.457 0 0 0-.495-.677c-2.388.512-2.58 5.103-2.837 7.006a.64.64 0 0 0 .33.576c1.995.979 4.86 1.656 7.074 1.07 2.37-.63 2.435-3.302 3.423-5.094a.914.914 0 0 0-.768-1.336z"/><path id="trk8bg" d="M1207.324 2141.85a1.015 1.015 0 0 0-1.235-1.235 11.96 11.96 0 0 1-5.849 0 1.007 1.007 0 0 0-1.089.394.558.558 0 0 0-.558.375c-1.263 3.256-.21 8.689-2.865 11.222a.795.795 0 0 0 .165 1.244 30.721 30.721 0 0 0 7.78 2.287.915.915 0 0 0 1.043-.595c.512-1.994 2.178-3.494 1.61-5.68-.42-1.637-1.098-2.286-.558-4.07.385-1.38 1.108-2.634 1.556-3.942z"/><path id="trk8bh" d="M1201.911 2100.349c1.22.53 2.441 1.082 3.661 1.655 3.908 2.269 8.384 4.372 10.672 8.287 2.553 2.927 1.318 7.71.457 11.213a261.78 261.78 0 0 1-5.317 18.604c-.174.54-1.318.86-1.474.915-1.885.375-9.555.384-11.724.247-1.308-.915.43-6.403.65-7.647.915-5.094 2.105-10.015 2.178-15.22 0-.301-.503-.392-.549-.072-.466 3.146-.494 6.283-1.135 9.411-.54 2.634-.915 5.314-1.537 7.94-.128.566-1.034 4.27-.421 5.597-.741 5.689-1.501 11.314-2.572 17.003-.476 2.533-.787 6.402-.787 6.402s-3.45-.247-6.407-.503a22.637 22.637 0 0 1-5.848-1.29s.915-31.444 1.748-48.74a23.485 23.485 0 0 1-5.491-3.823 18.013 18.013 0 0 1-5.62-12.339c-.174-4.756 3.99-15.86 4.476-15.942 4.036-.668 8.731-.137 12.749.549 7.24 1.235 12.145 4.49 12.127 5.085 0 .137-.293 8.424-.376 11.662z"/><path id="trk8bi" d="M1168.043 2074.75c-.989-4.427-2.691-8.918-1.584-13.463 0-.11.32-.632.714-1.39a43.17 43.17 0 0 0 .074-6.303l-.083-.11a2.536 2.536 0 0 0-1.739-.539 6.007 6.007 0 0 0-2.892.53c0-.173-.073-.356-.11-.53a16.099 16.099 0 0 1-.119-1.161c-.027-.394 0-.824 0-1.226.026-.473.081-.943.165-1.409.073-.393.32-1.033-.091-1.344a.44.44 0 0 0-.65.119 1.436 1.436 0 0 0-.266.686 24.579 24.579 0 0 0-.192 7.262c.064.384.238 3.32.449 4.326.01.08.01.159 0 .238-.21 3.658-.815 7.317-1.117 11.021-.265 3.192-.366 7.016 1.29 9.887 1.08 1.885 3.661 3.275 5.638 1.83a3.758 3.758 0 0 0 1.263-3.21 24.297 24.297 0 0 0-.75-5.214z"/><path id="trk8bj" d="M1161.94 2054.686v-6.301l3.826-.915 2.022 4.052-2.425 4.783z"/><path id="trk8bk" d="M1164.521 2050.262c.11-1.08-.183-2.333-.915-2.635-.915-.411-1.647.915-1.693 1.72-.072.414-.053.838.055 1.244.208-.414.466-.801.769-1.153.137-.146.265-.228.347-.2.083.027.156.228.165.383.01.156 0 .284 0 .421.016.29.108.57.266.814.16.216.447.295.695.192.32-.128.302-.65.311-.786z"/><path id="trk8bl" d="M1166.49 2047.593c-.504-1.07-1.62-.722-1.996.174 0 0-.064.22-.064.238 0 .018.631-.092.787 0 .613.375.266 1.244.32 1.948 0 .32.12.832.595.823.476-.009.513-.86.577-1.216a3.263 3.263 0 0 0-.22-1.967z"/><path id="trk8bm" d="M1168.335 2049.19s-.495-.383-.75 0c-.257.385.054 1.254.054 1.675a4.36 4.36 0 0 1-.375 1.737 1.326 1.326 0 0 1-.458.567l-.604.412a3.174 3.174 0 0 0-1.5 2.378c-.074.805.2 1.93 1.134 2.113.482.07.956-.172 1.18-.604a13.99 13.99 0 0 0 1.895-3.997c.43-1.417.504-3.11-.576-4.28z"/><path id="trk8bn" d="M1191.544 2068.657a54.147 54.147 0 0 0-3.23-11.15c-.056-.136-.266 0-.23.101 1.025 3.659 2.151 7.208 2.837 10.976.357 1.966.66 3.933.87 5.927.21 1.994.201 3.869.458 5.78a.238.238 0 0 0 .466 0c.284-3.823-.448-7.93-1.171-11.634z"/><path id="trk8bo" d="M1269.403 2245.663a4.47 4.47 0 0 0 .193-1.537c-.266-1.106-1.648-.914-2.526-.914-.88 0-3.47-.403-4.247.393-.421.43.247 2.534 0 5.287-.073.914-.11 1.326.677 1.783a8.186 8.186 0 0 0 2.627.915.467.467 0 0 0 .338.046c1.263.137 2.49-.12 3.02-1.226a.667.667 0 0 0-.09-.677 39.724 39.724 0 0 1 .008-4.07z"/><path id="trk8bp" d="M1164.757 2047.596a.989.989 0 0 0-1.245.265c-.092.092-.174.238 0 .33.536.321.919.846 1.061 1.454.074.302 0 .786.193 1.033.558.586.814-.521.833-.86a2.487 2.487 0 0 0-.842-2.222z"/><path id="trk8bq" d="M1269.706 2248.446c-1.199-.503-.65 1.756-4.21 1.6-.851 0-2.078-2.058-2.965-2.442a.22.22 0 0 0-.284.128c-1.153 2.506-8.018 3.659-9.72 4.519-1.702.86-3.084 2.45-2.746 4.06.055.248 6.407 1.4 11.267 1.309 6.26-.12 9.546-1.125 9.582-1.28.25-1.752.21-3.531-.119-5.27a7.551 7.551 0 0 0-.805-2.624z"/><path id="trk8br" d="M1270.284 2256.214c-1.62.823-3.496.823-5.272.915-1.775.091-3.468.21-5.198.228h-2.49a18.954 18.954 0 0 0-1.519-3.558 4.795 4.795 0 0 0-2.178-1.829 2.307 2.307 0 0 0-1.263.357 5.078 5.078 0 0 0-2.526 2.661 2.998 2.998 0 0 0-.302 1.757.293.293 0 0 0 .128.365 13.81 13.81 0 0 0 4.979 1.089c1.903.19 3.817.26 5.73.21 1.921 0 3.834-.155 5.747-.292 1.62-.015 3.22-.357 4.704-1.007.586-.292.055-1.207-.54-.896z"/><path id="trk8bs" d="M1270.779 2250.102c-.138-.567-.467-2.277-1.364-2.04-.357.092-.513.513-.705.778l-.091.119a5.245 5.245 0 0 1-1.83 1.052.238.238 0 0 0 0 .448 8.352 8.352 0 0 0 3.825-.046.238.238 0 0 0 .165-.31z"/><path id="trk8bt" d="M1258.563 2249.383a4.47 4.47 0 0 0 .193-1.537c-.266-1.106-1.648-.914-2.526-.914-.88 0-3.47-.403-4.247.393-.421.43.247 2.534 0 5.287-.073.914-.11 1.326.677 1.783a8.186 8.186 0 0 0 2.627.915.467.467 0 0 0 .338.046c1.263.137 2.49-.12 3.02-1.226a.667.667 0 0 0-.09-.677 39.724 39.724 0 0 1 .008-4.07z"/><path id="trk8bu" d="M1271.271 2137.234c-.265-3.787-3.478-8.232-8.072-8.817h-.165a4.486 4.486 0 0 0-.87-.43 47.512 47.512 0 0 0-5.372-1.83 62.923 62.923 0 0 0-7.834-1.106c-4.576-.458-7.935-4.171-8.475-4.756-.54-.586-1.776-2.561-4.713-1.043-2.6 1.344-1.684 4.08-1.135 5.213a19.456 19.456 0 0 0 4.576 5.9c1.418 1.28 4.878 3.31 6.242 4.71 1.766 1.83 2.745 3.11 2.462 5.771-.193.915-1.126 3.275-1.748 5.223-.485-.168-.98-.303-1.483-.402-3.661-.915-5.62 4.472-3.505 6.96a9.473 9.473 0 0 0 2.745 1.83c1.157.267 2.337.424 3.524.466 5.802-.53 11.751-4.272 13.911-6.284.458-.42.916-.869 1.31-1.317.722-.768 1.427-1.555 2.159-2.305l.613-.613.183-.173.513-.467.201-.174c.229-.2.467-.393.714-.576h.055c0 .1.055.201.073.302-1.83 1.92-3.505 4.006-5.427 5.835a25.957 25.957 0 0 1-6.096 4.125 21.352 21.352 0 0 1-6.983 2.415c-.96.09-1.929.062-2.883-.082a4.331 4.331 0 0 0-1.327 0 .723.723 0 0 0-.558.594 89.154 89.154 0 0 0-.998 9.375 4.62 4.62 0 0 0 3.853 4.573c6.06 1.244 9.775 1.381 14.644-1.161 4.686-2.47 5.336-11.03 6.26-15.348 1.2-5.442 3.981-10.893 3.606-16.408z"/><path id="trk8bv" d="M1256.593 2129.624c0-.915-.1-1.83-.155-2.69a.32.32 0 0 0 0-.109c.137-.137 0-.567-.183-.457-.183.11-.275.302-.339.366-1.263 1.362-1.235 3.137-1.107 4.884a.33.33 0 0 0 .613.164l1.281-1.683a.357.357 0 0 0-.11-.475z"/><path id="trk8bw" d="M1267.749 2108.998c-5.986-.439-10.663 4.336-13.93 8.415-1.318 1.655-1.446 2.853-.156 4.573.64.832 1.346 1.637 2.087 2.433.297.319.466.735.476 1.17.046 1.83.155 3.66.339 5.424-.008.64.309 1.238.842 1.592a7.262 7.262 0 0 0 2.745.65c1.785.219 3.817 0 5.052-1.354l.073-.083v-.192c.101.165.202.339.32.503.504.723 1.62.092 1.236-.658-.778-1.546-1.125-3.238-.842-4.07 1.007-2.909 8.393-1.83 9.244-7.647.989-6.97-2.343-10.38-7.486-10.756z"/><path id="trk8bx" d="M1248.757 2155.63c-.96.09-1.929.062-2.883-.082h-.494c.142.08.288.15.44.21a5 5 0 0 0 2.461.1c.195-.053.385-.123.568-.21z"/><path id="trk8by" d="M1259.137 2111.962l-2.096 1.08c-.883.3-1.742.663-2.572 1.088-1.016.54-.43 1.235.22 1.83.997.914 1.327.75 2.251-.211.924-.96 2.471-2.058 2.746-3.412a.357.357 0 0 0-.55-.375z"/><path id="trk8bz" d="M1269.617 2232.337c-1.061-7.536-3.203-14.917-3.99-22.49a96.99 96.99 0 0 1 .696-24.696c.164-.987.595-3.091.201-3.183-.394-.091-.613 1.994-.796 2.79-.916 3.997-1.602 8.021-2.206 12.073-.64 4.308-1.236 11.342-1.528 15.686-.275 4.07-.266 8.15-.33 12.229a.274.274 0 0 1-.265.283h-.21a.265.265 0 0 1-.056-.064.302.302 0 0 1 0-.128v-2.497-2.304c.103-7.418.628-14.823 1.574-22.18.595-4.07 1.2-8.159 2.17-12.165.457-1.875.915-3.75 1.317-5.643a15.54 15.54 0 0 0 .238-3.366 18.281 18.281 0 0 0-.485-4.372 50.854 50.854 0 0 0-1.482-5.552.448.448 0 0 0-.623-.274 42.121 42.121 0 0 1-9.472 2.744 29.59 29.59 0 0 1-10.068-.613.55.55 0 0 0-.668.494 72.94 72.94 0 0 0 .247 10.445c.046 1.518 1.135 20.177 2.014 24.613 1.327 6.731 2.242 15.987 3.66 22.7 1.163 5.489 1.465 15.906 2.032 21.806a.732.732 0 0 0 .696.658c1.501.064 3.99.293 5.116.238.787 0 1.565-.055 2.343-.055a.732.732 0 0 0 .741-.64c.174-1.354.54-4.445.641-6.055 0-.299.015-.604.046-.915.1-2.506.091-5.03.357-7.527a.091.091 0 0 1 0-.055h.064c.045 0 .082.037.082.082.258 2.59.35 5.192.275 7.793 0 .832 0 1.692-.083 2.561a.521.521 0 0 0 .669.53 27.767 27.767 0 0 1 5.6-.832 43.423 43.423 0 0 1 2.206-.11.531.531 0 0 0 .522-.557c-.375-4.564-.952-9.403-1.245-11.452z"/><path id="trk8bA" d="M1258.866 2252.166c-1.199-.503-.65 1.756-4.21 1.6-.851 0-2.078-2.058-2.965-2.442a.22.22 0 0 0-.284.128c-1.153 2.506-8.018 3.659-9.72 4.519-1.702.86-3.084 2.45-2.746 4.06.055.248 6.407 1.4 11.267 1.309 6.26-.12 9.546-1.125 9.582-1.28.25-1.752.21-3.531-.119-5.27a7.551 7.551 0 0 0-.805-2.624z"/><path id="trk8bB" d="M1259.464 2259.794c-1.62.823-3.496.823-5.272.915-1.775.091-3.468.21-5.198.228h-2.49a18.945 18.945 0 0 0-1.519-3.558 4.795 4.795 0 0 0-2.178-1.829 2.307 2.307 0 0 0-1.263.357 5.078 5.078 0 0 0-2.526 2.661 2.998 2.998 0 0 0-.302 1.757.293.293 0 0 0 .128.365 13.81 13.81 0 0 0 4.979 1.089c1.903.19 3.817.26 5.73.21 1.921 0 3.834-.155 5.747-.292 1.62-.015 3.22-.357 4.704-1.007.55-.301.064-1.198-.54-.896z"/><path id="trk8bC" d="M1259.969 2253.842c-.138-.567-.467-2.277-1.364-2.04-.357.092-.513.513-.705.778l-.091.119a5.245 5.245 0 0 1-1.83 1.052.238.238 0 0 0 0 .448 8.352 8.352 0 0 0 3.87-.073.238.238 0 0 0 .12-.284z"/><path id="trk8bD" d="M1238.585 2118.865c-1.08-1.546-2.16-3.284-3.02-4.39a.293.293 0 0 0-.412 0c-1.208 1.262-4.192 3.503-2.746 5.487.268.727.618 1.42 1.043 2.067a6.86 6.86 0 0 0 1.474 2.168 2.747 2.747 0 0 0 3.148.229 3.028 3.028 0 0 0 1.886-2.46c.174-.897-.458-1.812-1.373-3.101z"/><path id="trk8bE" d="M1248.921 2075.98c-2.242.091-13.115.082-13.261.43-3.304 7.783-6.288 15.722-9.39 23.588-3.103 7.866-6.252 15.814-9.382 23.717l-18.79 47.424c-3.294 8.304-31.19 80.698-34.174 88.591a.713.713 0 0 0 .668.96h15.175a.714.714 0 0 0 .668-.466c1.72-4.802 23.448-63.046 23.384-63.11a1432.875 1432.875 0 0 0 17.755-44.204 2013.763 2013.763 0 0 0 17.316-46.646c2.19-6.147 4.345-12.308 6.462-18.485a68.84 68.84 0 0 0 3.88-11.46.32.32 0 0 0-.31-.339z"/><path id="trk8bG" d="M1186.415 2056.168a.476.476 0 0 0-.522-.1.476.476 0 0 0-.293.439.503.503 0 0 0 .238.411c.19.111.43.081.586-.073a.439.439 0 0 0-.01-.677z"/><path id="trk8bH" d="M1189.487 2055.224a.476.476 0 0 0-.631.302v.046a.466.466 0 0 0 .851.356v-.046a.466.466 0 0 0-.22-.658z"/><path id="trk8bI" d="M1197.981 2014.925a1.832 1.832 0 0 0-1.473 0 .146.146 0 0 0-.192.21 4.578 4.578 0 0 0 2.828 1.098.137.137 0 0 0 .128-.192 2.864 2.864 0 0 0-1.29-1.116z"/><path id="trk8bJ" d="M1197.554 2013.17a1.438 1.438 0 0 0-1.5.191.146.146 0 0 0-.257.092c-.032.474.047.95.229 1.39a.156.156 0 0 0 .238.046c.659-.513 1.217-.138 1.748.31a.769.769 0 0 0 .576.266.64.64 0 0 0 .54-.915 3.111 3.111 0 0 0-1.574-1.38z"/><path id="trk8bK" d="M1198.313 2011.804a4.075 4.075 0 0 0-1.922-.412c-.916.073-1.95.787-1.83 1.83-.138-.055-.303.118-.175.237l.98.915c.137.119.32.347.521.366.458.045.348-.576.366-.842.092-1.262 1.437-1.015 2.307-.823.283.064.695.1.714-.302.018-.402-.65-.814-.961-.97z"/><path id="trk8bL" d="M1210.818 2036.127c-1.217-3.493-3.176-5.68-5.281-8.698-.558-.805-1.83-2.68-2.627-3.521-1.592-1.93-1.83-2.982-1.83-3.659 0-.676.155-1.454.229-2.176a2.276 2.276 0 0 0-.174-1.546c-.376-.54-2.014-.65-2.115-.567a4.12 4.12 0 0 1-1.629-.485 11.969 11.969 0 0 1-1.922-1.729 5.121 5.121 0 0 1-1.217-1.948 10.128 10.128 0 0 1 0-2.167 3.09 3.09 0 0 0-.265-1.5c-.257-.385-.77 0-.915.329-.202.459-.347.941-.43 1.436-.12.473-.188.957-.202 1.445.029.946.293 1.87.769 2.689.247.476.512.915.741 1.408v.064c-.485 1.235.311 2.305.915 3.403.733 1.408 2.105 3.74 2.838 5.15 1.665 3.658 3.532 7.316 5.326 10.92 1.172 2.369 2.499 6.338 5.629 6.64a2.664 2.664 0 0 0 2.645-1.152c.741-1.226-.046-3.092-.485-4.336z"/><path id="trk8bM" d="M1202.493 2011.697a.42.42 0 0 0-.21-.21c-.43-.201-.998.174-1.272.475a3.977 3.977 0 0 0-.778 1.73 6.328 6.328 0 0 1-1.016 1.993c-.632.915-.86 2.204.183 2.945 1.199.85 1.83-.85 2.169-1.747.252-.798.457-1.61.613-2.433.218-.836.332-1.696.339-2.56a.356.356 0 0 0-.028-.193z"/><path id="trk8bN" d="M1267.115 2130.398a9.141 9.141 0 0 0-.723-3.092c-.164-.33-.787.503-1.061.714-1.108.841-7.395 1.17-7.972 1.253 0 0-.915.11-.98-.275-.045-.228-.338.183-.329.421.17.971.522 1.902 1.034 2.744.238.576.43 1.198.723 1.747.196.601.805.968 1.428.86a24.543 24.543 0 0 0 4.036-.714 6.5 6.5 0 0 0 2.792-1.088c.504-.396.854-.956.988-1.583.101-.319.123-.658.064-.987z"/><path id="trk8bO" d="M1257.538 2131.708a44.969 44.969 0 0 0-.852-1.774c-.164-.338-.613-.256-.915 0a5.204 5.204 0 0 0-.915 1.363c-.091.402-.075.822.046 1.216a22.319 22.319 0 0 1-1.108 2.845 21.036 21.036 0 0 1-2.819 4.079c-2.086 2.396-4.576 4.4-6.864 6.576-3.816 3.659-7.862 8.744-6.727 14.378 0 .192 1.428 1.665 1.959 2.323.238.302.65.083.76-.2.53-1.345 1.62-3.75 1.638-3.86.357-2.973.787-6.156 2.553-8.616a37.225 37.225 0 0 1 5.812-6.348 20.367 20.367 0 0 0 6.169-9.878c.11-.274.74-.33.96-.512.223-.168.38-.407.449-.677a1.48 1.48 0 0 0-.146-.915z"/><path id="trk8bP" d="M1246.64 2146.15c-2.864-1.756-5.326.412-6.241 2.177a4.095 4.095 0 0 0 .613 4.49c1.547 1.73 2.545 2.013 6.407 2.132.155-.037 2.508-6.832-.778-8.799z"/><path id="trk8bQ" d="M1227.46 2131.337a11.713 11.713 0 0 1-1.409-2.872 7.76 7.76 0 0 1-.192-.915.165.165 0 0 1 0-.128 11.272 11.272 0 0 1-.174-1.527c0-.44 0-.87-.43-.915-.595 0-.677 1.015-.732 1.39a7.707 7.707 0 0 0 1.391 5.488c.265.393.696 1.07 1.318.814.622-.256.494-.896.229-1.335z"/><path id="trk8bR" d="M1223.143 2127.245c.064-.347.22-1.143.778-.914.311.1.247.585.256 1.06.056.866.267 1.715.623 2.507.195.48.43.941.704 1.38.28.362.539.738.778 1.126a.667.667 0 0 1-.338.988c-.687.237-1.108-.55-1.4-.97a6.893 6.893 0 0 1-1.4-5.177z"/><path id="trk8bS" d="M1245.072 2147.066c-.915-.915-4.576-1.317-7.505-3.952-3.23-2.954-5.72-8.048-5.976-8.56a1.463 1.463 0 0 1-.129-.604c.109-.52.14-1.053.092-1.582a4.572 4.572 0 0 0-1.108-2.232c-.155-.183-.292-.082-.292.128-.101.485-.595 1.07-.916.75a9.31 9.31 0 0 1-1.528-2.296 15.961 15.961 0 0 1-.64-2.414 1.023 1.023 0 0 1 0-.174c0-.458-.129-.915-.458-1.016a.504.504 0 0 0-.623.458 12.03 12.03 0 0 0 .385 3.292c.26.9.639 1.761 1.125 2.561a8.084 8.084 0 0 1-1.885.988c-.183.064-.403.11-.613.165a12.865 12.865 0 0 1-1.63-3.74.229.229 0 0 0-.228-.202.156.156 0 0 0-.174 0c-.915.42 0 2.122.22 2.67a13.022 13.022 0 0 0 1.967 3.66 11.894 11.894 0 0 0 2.838 2.743c.915 1.061 2.663 5.012 5.62 8.232 4.987 5.488 9.48 7.49 11.22 6.183a3.32 3.32 0 0 0 .238-5.058z"/><path id="trk8bT" d="M1272.024 2109.26a7.955 7.955 0 0 0-2.928-1.446.54.54 0 0 0-.412.073.302.302 0 0 1-.366 0 1.537 1.537 0 0 1-.403-.576c-.1-.265-.357-.512-.64-.302-1.904 1.345-.623 3.659-.184 5.396.696 2.836 1.245 6.028-1.034 7.51-.43.274-.961.63-.796 1.079a.65.65 0 0 0 .796.485c2.636-.284.146 2.853-.21 3.576a6.445 6.445 0 0 0-.614 2.506.412.412 0 0 0 .77.21 4.877 4.877 0 0 1 1.884-1.875v.128c0 .115.043.226.12.311.197.13.458.107.63-.055a7.827 7.827 0 0 1 3.277-1.7 6.015 6.015 0 0 0 2.252-1.098c1.345-1.18 1.62-3.092 1.684-4.784.146-3.046-.989-7.509-3.826-9.439z"/><path id="trk8bU" d="M1267.374 2120.97c-.66 0-5.281 1.756-4.924 2.058 2.58 2.204 4.347 1.966 5.6.183.55-.768.742-2.159-.676-2.241z"/><path id="trk8bV" d="M1424.61 2261.76v4.49c0 .97-.786 1.757-1.757 1.757h-14.213c0-3.467 3.469-3.467 3.469-3.467 6.946 0 6.25-2.743 6.25-2.743z"/><path id="trk8bW" d="M1416.272 2267.305a13.15 13.15 0 0 0-4.96.695h-2.682c0-3.466 3.469-3.466 3.469-3.466 6.946 0 6.25-2.744 6.25-2.744h3.277c.394 1.6.705 5.515-5.354 5.515z"/><path id="trk8bX" d="M1444.05 2260.38v4.49a1.755 1.755 0 0 1-1.757 1.757h-14.213c0-3.467 3.469-3.467 3.469-3.467 6.946 0 6.25-2.743 6.25-2.743z"/><path id="trk8bY" d="M1435.722 2265.965a13.15 13.15 0 0 0-4.96.695h-2.682c0-3.466 3.469-3.466 3.469-3.466 6.946 0 6.25-2.744 6.25-2.744h3.268c.394 1.555.696 5.515-5.345 5.515z"/><path id="trk8bZ" d="M1446.835 2224.975s-2.087 33.311-2.746 37.5a5.137 5.137 0 0 1-.915.192 8.782 8.782 0 0 1-5.665-1.234s-4.86-35.397-6.251-40.94l-1.391-9.018s-.11.494-.302 1.51c-.485 2.606-1.483 8.643-2.48 18.603l-2.087 31.92c-1.071.247-2.169.36-3.268.34-1.482 0-3.038-.43-3.66-1.73l-2.746-38.862s-2.087-11.8-.696-18.741l4.512-21.165 5.794-.283 24.766-1.107s-4.274 25.665-2.865 43.015z"/><path id="trk8ca" d="M1418.359 2230.529l3.331 33.301c-1.482 0-3.038-.43-3.66-1.728l-2.746-38.863s-2.087-11.799-.696-18.74l4.512-21.165 5.794-.284c-1.584 8.58-6.535 36.933-6.535 47.479z"/><path id="trk8cb" d="M1430.168 2211.086l11.806-22.866s-3.468 15.265-4.164 21.512c-.696 6.247-.696 8.323 1.391 16.656 1.666 6.677 3.34 28.052 3.926 36.283a8.782 8.782 0 0 1-5.665-1.235s-4.86-35.396-6.25-40.939l-1.392-9.018z"/><path id="trk8cc" d="M1408.994 2133.723s-.696 7.637 3.468 6.942c4.165-.695 13.198-9.018 13.198-9.018l-2.087-4.857z"/><path id="trk8ce" d="M1422.877 2114.987l1.39-9.018s-.695-3.467 4.86-4.162c0 0 2.746-2.085-3.468-1.39 0 0-4.86 0-2.746-4.857a7.598 7.598 0 0 1-2.745 1.39c-2.087.695-4.86 0-3.47 3.467 1.392 3.466 2.088 4.856 1.392 8.323-.695 3.466-3.13 10.518-3.13 10.518l7.322-.796z"/><path id="trk8cf" d="M1411.62 2128.27l4.31-11.89 5.556 1.39-6.25 10.409-3.616.091z"/><path id="trk8ch" d="M1432.61 2104.579s1.392-4.857-4.859-3.467c0 0-4.86-3.868-6.251-4.71 0 0 .696-10.555 0-11.945 0 0 6.947-7.637 11.11-1.39 0 0 6.16 16.911 7.25 17.478z"/><path id="trk8ci" d="M1427.74 2110.129l2.087-1.39 2.773-4.857 9.033-4.162 6.242 6.942-20.135 3.467z"/><path id="trk8ck" d="M1456.554 2121.932c-.696 14.918-1.83 35.735-4.366 46.143l-2.581 16.464s-1.043 5.378-16.666 5.378a38.354 38.354 0 0 1-4.43-.074 29.095 29.095 0 0 1-4.686-.676c-2.49-.595-4.796-1.628-5.82-3.412 0 0 4.859-22.216 4.859-31.235 0 0 2.087-16.655 1.391-19.436-.695-2.78-2.087-6.942-9.033-1.39-.5.543-1.036 1.053-1.602 1.527-1.83 1.546-4.64 3.11-4.64-1.527l4.512-9.366a50.956 50.956 0 0 1 3.46-4.93c3.368-4.317 9.015-10.353 16.071-13.481.874-.391 1.77-.733 2.682-1.025a24.725 24.725 0 0 1 7.404-1.262c8.813.037 13.994 6.412 13.445 18.302z"/><path id="trk8cm" d="M1421.48 2085.152s-4.86-4.162-4.86-6.942c0-2.78 2.087-4.857 4.86-1.39 0 0 0-4.857 4.164-4.162 0 0 3.469-.695 4.164 3.467 0 0 4.86-1.39 5.556.695 0 0 .695 2.744 5.555 4.161 0 0 4.165 2.086 0 7.637 0 0-2.745 6.943-1.39 9.714 0 0-5.556 5.552-9.025-2.744 0 0 1.391-8.323-2.746-2.085h-2.105a9.218 9.218 0 0 0-4.173-8.351z"/><linearGradient id="trk8d" x1="1066.91" x2="1468.37" y1="2085.48" y2="2085.48" gradientUnits="userSpaceOnUse"><stop offset="0" stop-color="#a763f3"/><stop offset="1" stop-color="#804cdf"/></linearGradient><linearGradient id="trk8L" x1="1297.31" x2="1499.48" y1="1981.83" y2="1981.83" gradientUnits="userSpaceOnUse"><stop offset="0" stop-color="#2e3dc0"/><stop offset="1" stop-color="#6452f4"/></linearGradient><linearGradient id="trk8ah" x1="1104.1" x2="1150.4" y1="2170.96" y2="2170.96" gradientUnits="userSpaceOnUse"><stop offset="0" stop-color="#ffac2e"/><stop offset="1" stop-color="#fb5db9"/></linearGradient><linearGradient id="trk8ay" x1="1007.72" x2="1126.5" y1="2077.56" y2="2077.56" gradientUnits="userSpaceOnUse"><stop offset="0" stop-color="#a763f3"/><stop offset="1" stop-color="#804cdf"/></linearGradient><linearGradient id="trk8aA" x1="975.93" x2="1039.68" y1="2138.74" y2="2138.74" gradientUnits="userSpaceOnUse"><stop offset="0" stop-color="#a763f3"/><stop offset="1" stop-color="#804cdf"/></linearGradient><linearGradient id="trk8aW" x1="1161.99" x2="1212.31" y1="2062.66" y2="2062.66" gradientUnits="userSpaceOnUse"><stop offset="0" stop-color="#2e3dc0"/><stop offset="1" stop-color="#6452f4"/></linearGradient><linearGradient id="trk8aY" x1="1160.85" x2="1236.14" y1="2169.2" y2="2169.2" gradientUnits="userSpaceOnUse"><stop offset="0" stop-color="#2e6fc0"/><stop offset="1" stop-color="#6452f4"/></linearGradient><linearGradient id="trk8bF" x1="1163.87" x2="1249.23" y1="2168.34" y2="2168.34" gradientUnits="userSpaceOnUse"><stop offset="0" stop-color="#2e3dc0"/><stop offset="1" stop-color="#6452f4"/></linearGradient><linearGradient id="trk8cd" x1="1408.95" x2="1425.66" y1="2133.74" y2="2133.74" gradientUnits="userSpaceOnUse"><stop offset="0" stop-color="#454fd0"/><stop offset=".36" stop-color="#3f47c8"/><stop offset=".92" stop-color="#2e31b1"/><stop offset=".99" stop-color="#2b2eae"/></linearGradient><linearGradient id="trk8cg" x1="1411.62" x2="1421.48" y1="2122.33" y2="2122.33" gradientUnits="userSpaceOnUse"><stop offset="0" stop-color="#454fd0"/><stop offset=".36" stop-color="#3f47c8"/><stop offset=".92" stop-color="#2e31b1"/><stop offset=".99" stop-color="#2b2eae"/></linearGradient><linearGradient id="trk8cj" x1="1427.74" x2="1447.88" y1="2104.92" y2="2104.92" gradientUnits="userSpaceOnUse"><stop offset="0" stop-color="#454fd0"/><stop offset=".36" stop-color="#3f47c8"/><stop offset=".92" stop-color="#2e31b1"/><stop offset=".99" stop-color="#2b2eae"/></linearGradient><linearGradient id="trk8cl" x1="1408.98" x2="1456.6" y1="2146.81" y2="2146.81" gradientUnits="userSpaceOnUse"><stop offset="0" stop-color="#454fd0"/><stop offset=".2" stop-color="#4247cc"/><stop offset=".5" stop-color="#3b30c3"/><stop offset=".88" stop-color="#2f0cb3"/><stop offset=".99" stop-color="#2b00ae"/></linearGradient></defs><g><g transform="translate(-975 -1837)"><g opacity=".1"><use fill="#270970" xlink:href="#trk8a"/></g><g><use fill="#93f1fd" xlink:href="#trk8b"/></g><g><use fill="url(#trk8d)" xlink:href="#trk8c"/></g><g><use fill="#99dbff" xlink:href="#trk8e"/></g><g><use fill="#3073ff" xlink:href="#trk8f"/></g><g><use fill="#caedff" xlink:href="#trk8g"/></g><g><use fill="#caedff" xlink:href="#trk8h"/></g><g><use fill="#caedff" xlink:href="#trk8i"/></g><g><use fill="#caedff" xlink:href="#trk8j"/></g><g><use fill="#caedff" xlink:href="#trk8k"/></g><g><use fill="#caedff" xlink:href="#trk8l"/></g><g><use fill="#3073ff" xlink:href="#trk8m"/></g><g><use fill="#caedff" xlink:href="#trk8n"/></g><g><use fill="#caedff" xlink:href="#trk8o"/></g><g><use fill="#caedff" xlink:href="#trk8p"/></g><g><use fill="#caedff" xlink:href="#trk8q"/></g><g><use fill="#caedff" xlink:href="#trk8r"/></g><g><use fill="#caedff" xlink:href="#trk8s"/></g><g><use fill="#3073ff" xlink:href="#trk8t"/></g><g><use fill="#caedff" xlink:href="#trk8u"/></g><g><use fill="#caedff" xlink:href="#trk8v"/></g><g><use fill="#caedff" xlink:href="#trk8w"/></g><g><use fill="#caedff" xlink:href="#trk8x"/></g><g><use fill="#caedff" xlink:href="#trk8y"/></g><g><use fill="#caedff" xlink:href="#trk8z"/></g><g><use fill="#3073ff" xlink:href="#trk8A"/></g><g><use fill="#4fb6fd" xlink:href="#trk8B"/></g><g><use fill="#4fb6fd" xlink:href="#trk8C"/></g><g><use fill="#4cb5fe" xlink:href="#trk8D"/></g><g><use fill="#4cb5fe" xlink:href="#trk8E"/></g><g><use fill="#4cb5fe" xlink:href="#trk8F"/></g><g><use fill="#4fb6fd" xlink:href="#trk8G"/></g><g><use fill="#4cb5fe" xlink:href="#trk8H"/></g><g><use fill="#4cb5fe" xlink:href="#trk8I"/></g><g><use fill="#4db5fb" xlink:href="#trk8J"/></g><g><use fill="url(#trk8L)" xlink:href="#trk8K"/></g><g><use fill="#4eaff5" xlink:href="#trk8M"/></g><g><use fill="#4eaff5" xlink:href="#trk8N"/></g><g><use fill="#4eaff5" xlink:href="#trk8O"/></g><g><use fill="#4eaff5" xlink:href="#trk8P"/></g><g><use fill="#80ebfb" xlink:href="#trk8Q"/></g><g><use fill="#80ebfb" xlink:href="#trk8R"/></g><g><use fill="#ef2674" xlink:href="#trk8S"/></g><g><use fill="#80ebfb" xlink:href="#trk8T"/></g><g><use fill="#80ebfb" xlink:href="#trk8U"/></g><g><use fill="#80ebfb" xlink:href="#trk8V"/></g><g><use fill="#80ebfb" xlink:href="#trk8W"/></g><g><use fill="#80ebfb" xlink:href="#trk8X"/></g><g><use fill="#80ebfb" xlink:href="#trk8Y"/></g><g><use fill="#ef2674" xlink:href="#trk8Z"/></g><g><use fill="#80ebfb" xlink:href="#trk8aa"/></g><g><use fill="#80ebfb" xlink:href="#trk8ab"/></g><g><use fill="#80ebfb" xlink:href="#trk8ac"/></g><g><use fill="#80ebfb" xlink:href="#trk8ad"/></g><g><use fill="#80ebfb" xlink:href="#trk8ae"/></g><g><use fill="#f8f6f8" xlink:href="#trk8af"/></g><g><use fill="url(#trk8ah)" xlink:href="#trk8ag"/></g><g><use fill="#dcc1fa" xlink:href="#trk8ai"/></g><g><use fill="#dcc1fa" xlink:href="#trk8aj"/></g><g><use fill="#dcc1fa" xlink:href="#trk8ak"/></g><g><use fill="#dcc1fa" xlink:href="#trk8al"/></g><g><use fill="#dcc1fa" xlink:href="#trk8am"/></g><g><use fill="#dcc1fa" xlink:href="#trk8an"/></g><g><use fill="#dcc1fa" xlink:href="#trk8ao"/></g><g><use fill="#fff" xlink:href="#trk8ap"/></g><g><use fill="#e4efff" xlink:href="#trk8aq"/></g><g><use fill="#e4efff" xlink:href="#trk8ar"/></g><g><use fill="#e4efff" xlink:href="#trk8as"/></g><g><use fill="#e4efff" xlink:href="#trk8at"/></g><g><use fill="#e4efff" xlink:href="#trk8au"/></g><g><use fill="#e4efff" xlink:href="#trk8av"/></g><g transform="rotate(12.47 1128 2089)"><use fill="#fff" xlink:href="#trk8aw"/></g><g><use fill="url(#trk8ay)" xlink:href="#trk8ax"/></g><g><use fill="url(#trk8aA)" xlink:href="#trk8az"/></g><g transform="rotate(-66.69 1026 2077.5)"><use fill="#fff" xlink:href="#trk8aB"/></g><g transform="rotate(-66.69 1015.5 2106.5)"><use fill="#fff" xlink:href="#trk8aC"/></g><g transform="rotate(-66.69 1016 2106)"><use fill="#fff" xlink:href="#trk8aD"/></g><g transform="rotate(-66.69 1007 2126)"><use fill="#fff" xlink:href="#trk8aE"/></g><g transform="rotate(23.31 1002.5 2139)"><use fill="#fff" xlink:href="#trk8aF"/></g><g transform="rotate(23.31 1001 2142.5)"><use fill="#fff" xlink:href="#trk8aG"/></g><g transform="rotate(23.31 999.5 2146.5)"><use fill="#fff" xlink:href="#trk8aH"/></g><g transform="rotate(23.31 998 2150)"><use fill="#fff" xlink:href="#trk8aI"/></g><g transform="rotate(23.31 996.5 2153.5)"><use fill="#fff" xlink:href="#trk8aJ"/></g><g transform="rotate(23.31 995 2157.5)"><use fill="#fff" xlink:href="#trk8aK"/></g><g transform="rotate(23.31 993.5 2161)"><use fill="#fff" xlink:href="#trk8aL"/></g><g transform="rotate(-66.69 1115.5 2085.5)"><use fill="#f7f8fc" xlink:href="#trk8aM"/></g><g><use fill="#fff" xlink:href="#trk8aN"/></g><g><use fill="#f7f8fc" xlink:href="#trk8aO"/></g><g><use fill="#3073ff" xlink:href="#trk8aP"/></g><g><use fill="#4db5fb" xlink:href="#trk8aQ"/></g><g><use fill="#e2b28f" xlink:href="#trk8aR"/></g><g><use fill="#e2b28f" xlink:href="#trk8aS"/></g><g><use fill="#2e3192" xlink:href="#trk8aT"/></g><g><use fill="#e2b28f" xlink:href="#trk8aU"/></g><g><use fill="url(#trk8aW)" xlink:href="#trk8aV"/></g><g><use fill="url(#trk8aY)" xlink:href="#trk8aX"/></g><g><use fill="#003e4f" xlink:href="#trk8aZ"/></g><g><use fill="#003e4f" xlink:href="#trk8ba"/></g><g><use fill="#003e4f" xlink:href="#trk8bb"/></g><g><use fill="#003e4f" xlink:href="#trk8bc"/></g><g><use fill="#ef2674" xlink:href="#trk8bd"/></g><g><use fill="#e2b28f" xlink:href="#trk8be"/></g><g><use fill="#ef2674" xlink:href="#trk8bf"/></g><g><use fill="#e2b28f" xlink:href="#trk8bg"/></g><g><use fill="#003e4f" xlink:href="#trk8bh"/></g><g><use fill="#e5ba9c" xlink:href="#trk8bi"/></g><g><use fill="#edd1be" xlink:href="#trk8bj"/></g><g><use fill="#ddb294" xlink:href="#trk8bk"/></g><g><use fill="#ddb294" xlink:href="#trk8bl"/></g><g><use fill="#ddb294" xlink:href="#trk8bm"/></g><g><use fill="#fff" xlink:href="#trk8bn"/></g><g><use fill="#e2b28f" xlink:href="#trk8bo"/></g><g><use fill="#e5ba9c" xlink:href="#trk8bp"/></g><g><use fill="#ef2674" xlink:href="#trk8bq"/></g><g><use fill="#c0205e" xlink:href="#trk8br"/></g><g><use fill="#c0205e" xlink:href="#trk8bs"/></g><g><use fill="#e2b28f" xlink:href="#trk8bt"/></g><g><use fill="#8af7ff" xlink:href="#trk8bu"/></g><g><use fill="#fff" xlink:href="#trk8bv"/></g><g><use fill="#e2b28f" xlink:href="#trk8bw"/></g><g><use fill="#78ecff" xlink:href="#trk8bx"/></g><g><use fill="#e2b28f" xlink:href="#trk8by"/></g><g><use fill="#003e4f" xlink:href="#trk8bz"/></g><g><use fill="#ef2674" xlink:href="#trk8bA"/></g><g><use fill="#c0205e" xlink:href="#trk8bB"/></g><g><use fill="#c0205e" xlink:href="#trk8bC"/></g><g><use fill="#e2b28f" xlink:href="#trk8bD"/></g><g><use fill="url(#trk8bF)" xlink:href="#trk8bE"/></g><g><use fill="#00a6c1" xlink:href="#trk8bG"/></g><g><use fill="#00a6c1" xlink:href="#trk8bH"/></g><g><use fill="#ddb294" xlink:href="#trk8bI"/></g><g><use fill="#ddb294" xlink:href="#trk8bJ"/></g><g><use fill="#ddb294" xlink:href="#trk8bK"/></g><g><use fill="#e5ba9c" xlink:href="#trk8bL"/></g><g><use fill="#ddb294" xlink:href="#trk8bM"/></g><g><use fill="#fff" xlink:href="#trk8bN"/></g><g><use fill="#005268" xlink:href="#trk8bO"/></g><g><use fill="#8af7ff" xlink:href="#trk8bP"/></g><g><use fill="#ce9c7a" xlink:href="#trk8bQ"/></g><g><use fill="#ce9c7a" xlink:href="#trk8bR"/></g><g><use fill="#e2b28f" xlink:href="#trk8bS"/></g><g><use fill="#2e3192" xlink:href="#trk8bT"/></g><g><use fill="#e2b28f" xlink:href="#trk8bU"/></g><g><use fill="#3d43a5" xlink:href="#trk8bV"/></g><g><use fill="#283c8e" xlink:href="#trk8bW"/></g><g><use fill="#3d43a5" xlink:href="#trk8bX"/></g><g><use fill="#283c8e" xlink:href="#trk8bY"/></g><g><use fill="#003e4f" xlink:href="#trk8bZ"/></g><g><use fill="#003e4f" xlink:href="#trk8ca"/></g><g><use fill="#003e4f" xlink:href="#trk8cb"/></g><g/><g><use fill="url(#trk8cd)" xlink:href="#trk8cc"/></g><g><use fill="#ffcda9" xlink:href="#trk8ce"/></g><g><use fill="url(#trk8cg)" xlink:href="#trk8cf"/></g><g><use fill="#ffcda9" xlink:href="#trk8ch"/></g><g><use fill="url(#trk8cj)" xlink:href="#trk8ci"/></g><g><use fill="url(#trk8cl)" xlink:href="#trk8ck"/></g><g><use fill="#2e3192" xlink:href="#trk8cm"/></g></g></g></svg>