<svg xmlns="http://www.w3.org/2000/svg" xmlns:xlink="http://www.w3.org/1999/xlink" width="584" height="450" viewBox="0 0 584 450"><defs><path id="w0fla" d="M937.916 1619.685a156.869 156.869 0 0 1-4.334 12.49c-7.613 19.332-20.202 54.771-59.401 78.98 0 0-47.923 38.452-130.803 20.093 0 0-85.185-20.286-217.109-12.92a208.54 208.54 0 0 1-56.214-.561 184.997 184.997 0 0 1-8.889-1.515c-20.67-4.023-43.01-12.068-61.807-27.551a110.713 110.713 0 0 1-6.978-6.245 108.582 108.582 0 0 1-5.638-5.942 114.68 114.68 0 0 1-21.285-36s-25.656-84.361 44.902-133.347c0 0 27.446-20.719 74.432-17.45 15.803 1.094 31.726-.467 46.674-5.72 20.725-7.265 44.388-22.041 51.88-51.98l3.37-12.545a453.968 453.968 0 0 0 9.918-45.129c4.527-28.037 26.078-92.112 128.305-87.06 2.58.119 5.152.21 7.723.256 14.839.212 85.635 6.52 113.439 105.264 0 0 .808 4.206 2.709 10.956 5.427 19.285 19.742 59.51 49.438 81.459 18.475 13.656 32.662 32.345 39.484 54.303a140.263 140.263 0 0 1 .184 80.164z"/><path id="w0flb" d="M710.967 1374.24s7.943 21.178 13.673 27.551c8.696-10.883 11.551-25.466 11.551-25.466l11.937 2.47s-2.754 35.954-25.784 46.626c-17.336-6.365-22.414-28.424-22.414-28.424z"/><path id="w0fld" d="M720.324 1424.544l-8.64-46.68-1.837-1.314-4.812 9.928-.376 2.81a75.758 75.758 0 0 0 .422 20.305c3.159 5.593 8.053 11.617 15.243 14.95z"/><path id="w0flf" d="M676.378 1319.572c1.836-8.863 12.524-10.047 18.97-9.946a28.406 28.406 0 0 0 1.653 3.875 27.955 27.955 0 0 0 7.713 12.003c.625.67 1.286 1.258 1.947 1.837l-11.937 16.53-9.045 7.467-6.262-3.453c-14.747-18.542-3.04-28.313-3.04-28.313z"/><path id="w0flg" d="M708.175 1331.69s4.178 3.095 4.968 10.91h-8.503z"/><path id="w0flh" d="M709.79 1344.764l-.643 5.41s-6.96 1.836-7.879-2.131l-.918-4.013 2.231-1.58"/><path id="w0fli" d="M683.895 1347.962a11.305 11.305 0 0 0 4.591-7.623s-6.63-1.368-5.51-6.199c.92-4.013 5.979-2.663 7.586.79v4.592s2.598-.064 3.048-8.908l3.04-3.894h10.449s3.866 8.826 2.672 18.037h-7.08s.57 4.665 6.474 5.409a32.55 32.55 0 0 1-2.066 6.272h-10.431v7.641l-6.005 2.755-5.17 1.635-4.399-2.011-1.634-5.62v-12.858s1.735 2.03 4.435-.018z"/><path id="w0flj" d="M674.22 1446.119a33.448 33.448 0 0 0-16.17 4.353l5.307-82.295 4.224-1.79a13.294 13.294 0 0 1 5.188-1.057h25.656c7.045-.001 12.865 5.5 13.26 12.536l4.737 78.915c-13.46-6.227-27.097-10.901-42.202-10.662z"/><path id="w0fll" d="M666.48 1447.151a32.861 32.861 0 0 0-8.43 3.362l4.968-77.483a21.426 21.426 0 0 1 5.344 9.68 30.503 30.503 0 0 1-2.828 22.637s-3.554 21.564.945 41.804z"/><path id="w0flm" d="M697.4 1389.29v-4.2h12.26v4.2z"/><path id="w0fln" d="M692.905 1372.284a3.168 3.168 0 0 1-4.481 0l-5.684-5.684 7.493-1.176c.286-.045.577-.045.863 0l7.493 1.176z"/><path id="w0flo" d="M735.373 1374.23l14.39 3.361-1.387 7.632-14.536-3.05 1.533-7.943z"/><path id="w0flp" d="M690.67 1365.382l9.504 7.42s1.065-5.18-3.499-10.102c-.009-.027-1.634 2.682-6.005 2.682z"/><path id="w0flq" d="M690.672 1365.382s-7.218.56-11.212-4.592a9.679 9.679 0 0 0-4.94 4.592s1.836 6.428 7.63 8.486z"/><path id="w0flr" d="M719.953 1353.028a5.225 5.225 0 0 0 6.207 3.95l8.54-1.902a28.969 28.969 0 0 0-2.26-10.166l-8.539 1.901a5.226 5.226 0 0 0-3.948 6.217z"/><path id="w0fls" d="M725.292 1343.804l14.692-6.484 5.509 10.02-.753 11.406-16.07.367c-2.084.459-4.535-2.59-5.509-6.814-.973-4.225.046-8.027 2.13-8.495z"/><path id="w0flt" d="M736.535 1359.63s-1.212 2.81.845 7.127c0 0-2.838 10.79 4.7 12.6a85.98 85.98 0 0 0-.816-14.832l-.863-3.866"/><path id="w0flu" d="M737.9 1346.508c0-.573.465-1.038 1.038-1.038h4.244c.573 0 1.038.465 1.038 1.038v33.674c0 .573-.465 1.038-1.038 1.038h-4.244a1.038 1.038 0 0 1-1.038-1.038z"/><path id="w0flv" d="M744.81 1365.732c0-.129-5.51 1.221-5.51 1.221s2.534 10.561 7.814 12.15l2.397-.533c.338-3.32.314-6.667-.074-9.982l.432-4.05a9.181 9.181 0 0 0-5.675-1.497z"/><path id="w0flw" d="M734.057 1336.35l24.792-10.92 9.238 16.88-1.212 19.203-27.08.615c-3.516.78-7.648-4.353-9.227-11.48-1.58-7.126-.028-13.518 3.489-14.299z"/><path id="w0flx" d="M754.3 1342.845c0-12.904 5.164-23.365 11.535-23.365 6.37 0 11.535 10.46 11.535 23.365 0 12.904-5.164 23.365-11.535 23.365-6.37 0-11.535-10.46-11.535-23.365z"/><path id="w0fly" d="M755.64 1342.535c0-12.904 5.164-23.365 11.535-23.365 6.37 0 11.535 10.46 11.535 23.365 0 12.904-5.164 23.365-11.535 23.365-6.37 0-11.535-10.46-11.535-23.365z"/><path id="w0flz" d="M757.03 1342.54c0-11.355 4.542-20.56 10.145-20.56s10.145 9.205 10.145 20.56c0 11.355-4.542 20.56-10.145 20.56s-10.145-9.205-10.145-20.56z"/><path id="w0flA" d="M766.834 1323.135a6.032 6.032 0 0 0-4.123-.688c-5.51 1.212-7.906 11.185-5.445 22.27-1.855-8.357 2.167-16.779 9.568-21.582z"/><path id="w0flB" d="M757.27 1344.72c2.46 11.085 8.898 19.084 14.37 17.862a6.033 6.033 0 0 0 3.407-2.36c-8.668-1.23-15.913-7.099-17.777-15.502z"/><path id="w0flC" d="M757.765 1337.513a6.851 6.851 0 0 1 2.975 13.371l-1.442.322a39.898 39.898 0 0 1-2.02-6.429c-.51-2.28-.818-4.6-.918-6.934z"/><path id="w0flD" d="M756.39 1337.905l2.755-.615c-1.956 2.865-3.471 7.834 2.69 13.436l-2.507.56a39.495 39.495 0 0 1-2.093-6.548 42.105 42.105 0 0 1-.606-3.545c-.156-1.166-.193-2.222-.239-3.288z"/><path id="w0flE" d="M665.566 1400.17s-11.588 29.47-2.433 50.51l-10.211 2.195s-15.252-22.96-8.181-52.117c6.427-26.504 18.575-32.538 18.575-32.538a17.128 17.128 0 0 1 8.623 13.114 24.1 24.1 0 0 1-6.373 18.836z"/><path id="w0flG" d="M696.634 1326.73s10.67 4.261 16.528-3.232l-3.489-1.176s-4.059-12.646-15.61-12.692c-11.552-.046-11.423 9.184-11.423 9.184z"/><path id="w0flH" d="M691.567 1373.03c1.185 5.721 4.592 18.367 13.315 28.736a83.295 83.295 0 0 0 27.923 21.508l-3.498 9.312-13.37-1.02s-10.688-7.888-20.265-24.795c-8.329-14.694-6.29-29.829-5.574-33.713.485.107.989.098 1.47-.028z"/><path id="w0flJ" d="M690.245 1371.942l1.093-2.002s-.836 18.092 8.264 33.704a84.029 84.029 0 0 0 14.765 18.496l.919 15.227-9.853-2.508s-9.183-9.587-15.776-27.835c-6.62-18.377.588-35.082.588-35.082z"/><path id="w0flK" d="M422.55 1616.47v-149.26h190.97v149.26z"/><path id="w0flM" d="M422.55 1466.79v-8.83h190.97v8.83z"/><path id="w0flO" d="M425.5 1462.385a1.765 1.765 0 1 1 3.53 0 1.765 1.765 0 0 1-3.53 0z"/><path id="w0flP" d="M431.09 1462.385a1.765 1.765 0 1 1 3.53 0 1.765 1.765 0 0 1-3.53 0z"/><path id="w0flQ" d="M436.68 1462.385a1.765 1.765 0 1 1 3.53 0 1.765 1.765 0 0 1-3.53 0z"/><path id="w0flR" d="M451.61 1482.87v-2.83h40.12v2.83z"/><path id="w0flS" d="M454.93 1489.28v-2.83h6.64v2.83z"/><path id="w0flT" d="M454.93 1495.7v-2.83h6.64v2.83z"/><path id="w0flU" d="M454.93 1502.12v-2.83h6.64v2.83z"/><path id="w0flV" d="M474.53 1489.28v-2.83h20.36v2.83z"/><path id="w0flW" d="M474.53 1495.7v-2.83h20.36v2.83z"/><path id="w0flX" d="M474.53 1502.12v-2.83h20.36v2.83z"/><path id="w0flY" d="M464.43 1489.28v-2.83h4.67v2.83z"/><path id="w0flZ" d="M464.43 1495.7v-2.83h4.67v2.83z"/><path id="w0flaa" d="M464.43 1502.12v-2.83h4.67v2.83z"/><path id="w0flab" d="M471.13 1489.28v-2.83h1.24v2.83z"/><path id="w0flac" d="M471.13 1495.7v-2.83h1.24v2.83z"/><path id="w0flad" d="M471.13 1502.12v-2.83h1.24v2.83z"/><path id="w0flae" d="M451.76 1489.28v-2.83h1.25v2.83z"/><path id="w0flaf" d="M451.76 1495.7v-2.83h1.25v2.83z"/><path id="w0flag" d="M451.76 1502.12v-2.83h1.25v2.83z"/><path id="w0flah" d="M454.93 1514.95v-2.83h10.26v2.83z"/><path id="w0flai" d="M479.36 1514.95v-2.83h15.54v2.83z"/><path id="w0flaj" d="M468.05 1514.95v-2.83h5.89v2.83z"/><path id="w0flak" d="M475.95 1514.95v-2.83h1.25v2.83z"/><path id="w0flal" d="M495.5 1527.78v-2.83h48.12v2.83z"/><path id="w0flam" d="M468.66 1527.78v-2.83h23.08v2.83z"/><path id="w0flan" d="M513 1514.95v-2.83h15.54v2.83z"/><path id="w0flao" d="M499.27 1514.95v-2.83h8.29v2.83z"/><path id="w0flap" d="M509.58 1514.95v-2.83h1.25v2.83z"/><path id="w0flaq" d="M530.09 1514.95v-2.83h1.24v2.83z"/><path id="w0flar" d="M451.76 1514.95v-2.83h1.25v2.83z"/><path id="w0flas" d="M454.93 1540.61v-2.83h10.26v2.83z"/><path id="w0flat" d="M451.76 1540.61v-2.83h1.25v2.83z"/><path id="w0flau" d="M467.15 1540.61v-2.83h1.25v2.83z"/><path id="w0flav" d="M447.09 1566.28v-2.83h10.26v2.83z"/><path id="w0flaw" d="M443.92 1566.28v-2.83h1.25v2.83z"/><path id="w0flax" d="M459.3 1566.28v-2.83h1.25v2.83z"/><path id="w0flay" d="M460.35 1534.19v-2.83h1.25v2.83z"/><path id="w0flaz" d="M460.35 1521.36v-2.83h6.03v2.83z"/><path id="w0flaA" d="M468.66 1521.36v-2.83h23.53v2.83z"/><path id="w0flaB" d="M509.22 1489.28v-2.83h20.36v2.83z"/><path id="w0flaC" d="M509.22 1495.7v-2.83h20.36v2.83z"/><path id="w0flaD" d="M509.22 1502.12v-2.83h20.36v2.83z"/><path id="w0flaE" d="M530.65 1489.28v-2.83h35.59v2.83z"/><path id="w0flaF" d="M530.65 1495.7v-2.83h48.71v2.83z"/><path id="w0flaG" d="M530.65 1502.12v-2.83h57.46v2.83z"/><path id="w0flaH" d="M499.12 1489.28v-2.83h4.67v2.83z"/><path id="w0flaI" d="M499.12 1495.7v-2.83h4.67v2.83z"/><path id="w0flaJ" d="M499.12 1502.12v-2.83h4.67v2.83z"/><path id="w0flaK" d="M505.82 1489.28v-2.83h1.24v2.83z"/><path id="w0flaL" d="M505.82 1495.7v-2.83h1.24v2.83z"/><path id="w0flaM" d="M505.82 1502.12v-2.83h1.24v2.83z"/><path id="w0flaN" d="M570.91 1489.28v-2.83h1.25v2.83z"/><path id="w0flaO" d="M582.88 1495.7v-2.83h1.24v2.83z"/><path id="w0flaP" d="M591.03 1502.12v-2.83h1.25v2.83z"/><path id="w0flaQ" d="M451.61 1508.53v-2.83h40.12v2.83z"/><path id="w0flaR" d="M446.78 1579.91v-2.83h6.64v2.83z"/><path id="w0flaS" d="M462.32 1592.74v-2.83h6.64v2.83z"/><path id="w0flaT" d="M481.92 1592.74v-2.83h44.04v2.83z"/><path id="w0flaU" d="M452.06 1586.33v-2.83h64.55v2.83z"/><path id="w0flaV" d="M471.82 1592.74v-2.83h4.67v2.83z"/><path id="w0flaW" d="M478.52 1592.74v-2.83h1.25v2.83z"/><path id="w0flaX" d="M443.61 1579.91v-2.83h1.24v2.83z"/><path id="w0flaY" d="M454.93 1579.91v-2.83h1.25v2.83z"/><path id="w0flaZ" d="M471.22 1599.16v-2.83h3.01v2.83z"/><path id="w0flba" d="M468.05 1599.16v-2.83h1.25v2.83z"/><path id="w0flbb" d="M475.74 1599.16v-2.83h1.24v2.83z"/><path id="w0flbc" d="M479.66 1611.99v-2.83h3.01v2.83z"/><path id="w0flbd" d="M476.5 1611.99v-2.83h1.25v2.83z"/><path id="w0flbe" d="M484.19 1611.99v-2.83h1.24v2.83z"/><path id="w0flbf" d="M459.15 1592.74v-2.83h1.25v2.83z"/><path id="w0flbg" d="M476.64 1605.57v-2.83h63.67v2.83z"/><path id="w0flbh" d="M527.48 1592.74v-2.83h1.25v2.83z"/><path id="w0flbi" d="M451.61 1547.03v-2.83h55.2v2.83z"/><path id="w0flbj" d="M451.61 1553.44v-2.83h81.75v2.83z"/><path id="w0flbk" d="M451.61 1559.86v-2.83h27.75v2.83z"/><path id="w0flbl" d="M429.58 1482.87v-2.83h3.01v2.83z"/><path id="w0flbm" d="M429.58 1489.28v-2.83h3.01v2.83z"/><path id="w0flbn" d="M429.58 1495.7v-2.83h3.01v2.83z"/><path id="w0flbo" d="M429.58 1502.12v-2.83h3.01v2.83z"/><path id="w0flbp" d="M429.58 1508.53v-2.83h3.01v2.83z"/><path id="w0flbq" d="M429.58 1514.95v-2.83h3.01v2.83z"/><path id="w0flbr" d="M429.58 1521.36v-2.83h3.01v2.83z"/><path id="w0flbs" d="M429.58 1527.78v-2.83h3.01v2.83z"/><path id="w0flbt" d="M429.58 1534.19v-2.83h3.01v2.83z"/><path id="w0flbu" d="M429.58 1540.61v-2.83h3.01v2.83z"/><path id="w0flbv" d="M429.58 1547.03v-2.83h3.01v2.83z"/><path id="w0flbw" d="M429.58 1553.44v-2.83h3.01v2.83z"/><path id="w0flbx" d="M429.58 1559.86v-2.83h3.01v2.83z"/><path id="w0flby" d="M429.58 1566.28v-2.83h3.01v2.83z"/><path id="w0flbz" d="M429.58 1572.69v-2.83h3.01v2.83z"/><path id="w0flbA" d="M429.58 1579.11v-2.83h3.01v2.83z"/><path id="w0flbB" d="M429.58 1585.52v-2.83h3.01v2.83z"/><path id="w0flbC" d="M495.24 1646.57h387.984v3.187a4.813 4.813 0 0 1-4.812 4.812H500.097a4.811 4.811 0 0 1-4.811-4.812v-3.169z"/><path id="w0flbD" d="M552.835 1434.6h275.04a16.031 16.031 0 0 1 16.042 16.035v187.347H536.83v-187.347c0-8.845 7.161-16.02 16.005-16.035z"/><path id="w0flbF" d="M549.64 1626.35v-177.78h281.44v177.78z"/><path id="w0flbG" d="M495.24 1635.74h387.984v10.828H496.516a1.276 1.276 0 0 1-1.276-1.277z"/><path id="w0flbH" d="M732.804 1635.74a7.41 7.41 0 0 1-7.41 7.411H665.58a7.41 7.41 0 0 1-7.41-7.411"/><path id="w0flbI" d="M563.09 1545.093a3.903 3.903 0 0 1 3.903-3.903h72.174a3.903 3.903 0 0 1 3.903 3.903v27.194a3.903 3.903 0 0 1-3.903 3.903h-72.174a3.903 3.903 0 0 1-3.903-3.903z"/><path id="w0flbJ" d="M571.533 1458.121h-4.031v-1.001h4.03zm8.063 0h-4.041v-1.001h4.04zm8.043 0h-4.05v-1.001h4.031zm8.053 0h-4.031v-1.001h4.03zm8.043 0h-4.077v-1.001h4.022zm8.063 0h-4.031v-1.001h4.03zm8.053 0h-4.032v-1.001h4.04zm8.053 0h-4.032v-1.001h4.032zm8.052 0h-4.03v-1.001h4.03zm7.603.615h-1v-.615h-2.571v-1.001h2.7c.471.023.848.4.871.872zm-79.978 2.755h-1.001v-3.49a.918.918 0 0 1 .854-.872v1.001a.129.129 0 0 0 .129-.128zm80.034 4.922h-1.01v-3.636h1.01zm-79.988 2.765h-1.001v-4.031h1zm79.988 5.345h-1.01v-4.032h1.01zm-79.988 2.755h-1.001v-4.031h1zm79.988 5.345h-1.01v-4.032h1.01zm-79.988 2.765h-1.001v-3.784h1zm79.988 5.335h-1.01v-4.032h1.01zm-79.988 2.755h-1.001v-4.031h1zm79.988 5.345h-1.01v-3.811h1.01zm-79.988 2.755h-1.001v-4.031h1zm79.988 5.345h-1.01v-4.032h1.01zm-79.988 2.755h-1.001v-4.031h1zm79.988 5.345h-1.01v-3.94h1.01zm-79.988 2.755h-1.001v-3.94h1zm79.988 5.345h-1.01v-4.032h1.01zm-79.988 2.755h-1.001v-4.031h1zm79.988 5.335h-1.01v-3.966h1.01zm-79.988 2.765h-1.001v-4.031h1zm6.593 1.626h-4.031v-1.001h4.03zm8.053 0h-4.031v-1.001h4.03zm8.063 0h-4.041v-1.001h4.04zm8.043 0h-4.031v-1.001h4.03zm8.053 0H598.4v-1.001h4.013zm8.053 0h-4.032v-1.001h4.032zm8.052 0h-4.03v-1.001h4.03zm8.053 0h-4.03v-1.001h4.03zm8.053 0h-4.04v-1.001h4.031zm8.053 0h-4.03v-1.001h4.03z"/><path id="w0flbK" d="M736.58 1545.093a3.903 3.903 0 0 1 3.903-3.903h72.174a3.903 3.903 0 0 1 3.903 3.903v69.184a3.903 3.903 0 0 1-3.903 3.903h-72.174a3.903 3.903 0 0 1-3.903-3.903z"/><path id="w0flbL" d="M649.59 1545.093a3.903 3.903 0 0 1 3.903-3.903h72.174a3.903 3.903 0 0 1 3.903 3.903v69.114a3.903 3.903 0 0 1-3.903 3.903h-72.174a3.903 3.903 0 0 1-3.903-3.903z"/><path id="w0flbM" d="M649.23 1461.283a3.903 3.903 0 0 1 3.903-3.903h158.964a3.903 3.903 0 0 1 3.903 3.903v69.114a3.903 3.903 0 0 1-3.903 3.903H653.133a3.903 3.903 0 0 1-3.903-3.903z"/><path id="w0flbN" d="M563.09 1587.123a3.903 3.903 0 0 1 3.903-3.903h72.174a3.903 3.903 0 0 1 3.903 3.903v27.194a3.903 3.903 0 0 1-3.903 3.903h-72.174a3.903 3.903 0 0 1-3.903-3.903z"/><path id="w0flbO" d="M797.87 1549.775a2.545 2.545 0 0 1 2.535-2.555c1.4 0 2.535 1.144 2.535 2.555a2.545 2.545 0 0 1-2.535 2.555 2.545 2.545 0 0 1-2.535-2.555z"/><path id="w0flbP" d="M764.387 1551.962h-20.036a1.561 1.561 0 1 1 0-3.122h20.036a1.561 1.561 0 0 1 0 3.122z"/><path id="w0flbQ" d="M790.886 1551.962h-20.045a1.561 1.561 0 1 1 0-3.122h20.036a1.561 1.561 0 1 1 .01 3.122z"/><path id="w0flbR" d="M805.36 1549.775a2.545 2.545 0 0 1 2.535-2.555c1.4 0 2.535 1.144 2.535 2.555a2.545 2.545 0 0 1-2.535 2.555 2.545 2.545 0 0 1-2.535-2.555z"/><path id="w0flbS" d="M657.974 1583.307a.496.496 0 0 1-.312-.919 57.297 57.297 0 0 1 10.587-6.557 42.163 42.163 0 0 1 6.005-2.36 12.974 12.974 0 0 0 4.417-2.094 19.148 19.148 0 0 0 5.776-7.19c1.157-2.177 2.158-4.06 4.444-4.39 2.112-.313 3.59.918 5.014 2.167 1.423 1.249 2.855 2.443 5.022 2.323 2.168-.12 3.242-1.313 5.216-3.297a46.97 46.97 0 0 1 4.5-4.096c4.021-3.159 8.53-4.646 12.377-4.105a.5.5 0 0 1-.137.992c-3.572-.514-7.805.919-11.616 3.894a45.474 45.474 0 0 0-4.408 4.013c-2.001 2.012-3.443 3.463-5.867 3.591-2.562.147-4.242-1.295-5.73-2.562-1.488-1.267-2.562-2.186-4.224-1.938-1.662.248-2.59 1.773-3.673 3.876a20.002 20.002 0 0 1-6.07 7.53 13.947 13.947 0 0 1-4.7 2.241 41.318 41.318 0 0 0-5.878 2.305 56.305 56.305 0 0 0-10.403 6.429.496.496 0 0 1-.34.147z"/><path id="w0flbU" d="M655.48 1611.81v-16.47h7v16.47z"/><path id="w0flbV" d="M675.81 1611.81v-26.61h7v26.61z"/><path id="w0flbW" d="M665.65 1611.81v-21.96h7v21.96z"/><path id="w0flbX" d="M685.97 1611.81v-35.47h7v35.47z"/><path id="w0flbY" d="M696.13 1611.82v-32.52h7v32.52z"/><path id="w0flbZ" d="M706.3 1611.38v-38h7v38z"/><path id="w0flca" d="M716.46 1611.8v-43.49h7v43.49z"/><path id="w0flcb" d="M727.788 1488.972H687.32a1.561 1.561 0 1 1 0-3.122h40.467a1.561 1.561 0 0 1 0 3.122z"/><path id="w0flcc" d="M676.907 1488.972h-20.036a1.561 1.561 0 1 1 0-3.122h20.036a1.561 1.561 0 0 1 0 3.122z"/><path id="w0flcd" d="M721.893 1496.142H687.32a1.561 1.561 0 1 1 0-3.122h34.58a1.561 1.561 0 1 1-.01 3.122z"/><path id="w0flce" d="M727.788 1503.312H687.32a1.561 1.561 0 1 1 0-3.122h40.467a1.561 1.561 0 0 1 0 3.122z"/><path id="w0flcf" d="M655.31 1501.75c0-.862.698-1.56 1.56-1.56h23.54a1.56 1.56 0 0 1 0 3.12h-23.54a1.56 1.56 0 0 1-1.56-1.56z"/><path id="w0flcg" d="M712.894 1510.472h-25.573a1.561 1.561 0 1 1 0-3.122h25.582a1.561 1.561 0 1 1-.01 3.122z"/><path id="w0flch" d="M676.411 1510.472h-19.54a1.561 1.561 0 1 1 0-3.122h19.54a1.561 1.561 0 1 1 0 3.122z"/><path id="w0flci" d="M727.788 1517.652H687.32a1.561 1.561 0 1 1 0-3.122h40.467a1.561 1.561 0 0 1 0 3.122z"/><path id="w0flcj" d="M680.46 1517.652h-23.589a1.561 1.561 0 1 1 0-3.122h23.59a1.561 1.561 0 0 1 0 3.122z"/><path id="w0flck" d="M742.63 1470.995a7.502 7.502 0 0 1 7.5-7.505c4.142 0 7.5 3.36 7.5 7.505a7.502 7.502 0 0 1-7.5 7.505c-4.142 0-7.5-3.36-7.5-7.505z"/><path id="w0flcl" d="M808.946 1469.682h-44.865a1.561 1.561 0 1 1 0-3.122h44.865a1.561 1.561 0 0 1 0 3.122z"/><path id="w0flcm" d="M762.52 1475.29c0-.862.698-1.56 1.56-1.56h23.31a1.56 1.56 0 0 1 0 3.12h-23.31a1.56 1.56 0 0 1-1.56-1.56z"/><path id="w0flcn" d="M742.13 1495.855a7.502 7.502 0 0 1 7.5-7.505c4.142 0 7.5 3.36 7.5 7.505a7.502 7.502 0 0 1-7.5 7.505c-4.142 0-7.5-3.36-7.5-7.505z"/><path id="w0flco" d="M808.946 1494.552h-44.865a1.561 1.561 0 1 1 0-3.122h44.865a1.561 1.561 0 0 1 0 3.122z"/><path id="w0flcp" d="M787.386 1501.712H764.08a1.561 1.561 0 1 1 0-3.122h23.305a1.561 1.561 0 1 1 0 3.122z"/><path id="w0flcq" d="M742.63 1520.725a7.502 7.502 0 0 1 7.5-7.505c4.142 0 7.5 3.36 7.5 7.505a7.502 7.502 0 0 1-7.5 7.505c-4.142 0-7.5-3.36-7.5-7.505z"/><path id="w0flcr" d="M808.946 1519.412h-44.865a1.561 1.561 0 1 1 0-3.122h44.865a1.561 1.561 0 0 1 0 3.122z"/><path id="w0flcs" d="M787.386 1526.582H764.08a1.561 1.561 0 1 1 0-3.122h23.305a1.561 1.561 0 1 1 0 3.122z"/><path id="w0flct" d="M807.444 1568.936h-61.981a3.003 3.003 0 1 1 0-6.006h61.98a3.003 3.003 0 1 1 0 6.006z"/><path id="w0flcu" d="M807.444 1580.926h-61.981a3.003 3.003 0 1 1 0-6.006h61.98a3.003 3.003 0 1 1 0 6.006z"/><path id="w0flcv" d="M767.95 1580.926h-22.497a3.003 3.003 0 1 1 0-6.006h22.496a3.003 3.003 0 1 1 0 6.006z"/><path id="w0flcx" d="M777.95 1568.936h-32.487a3.003 3.003 0 1 1 0-6.006h32.487a3.003 3.003 0 1 1 0 6.006z"/><path id="w0flcz" d="M807.444 1592.926h-61.981a3.003 3.003 0 1 1 0-6.006h61.98a3.003 3.003 0 1 1 0 6.006z"/><path id="w0flcA" d="M778.95 1592.926h-33.487a3.003 3.003 0 1 1 0-6.006h33.488a3.003 3.003 0 1 1 0 6.006z"/><path id="w0flcC" d="M742.46 1601.428a2.998 2.998 0 0 1 2.998-2.998h61.984a2.998 2.998 0 0 1 2.998 2.998v.004a2.998 2.998 0 0 1-2.998 2.998h-61.984a2.998 2.998 0 0 1-2.998-2.998z"/><path id="w0flcD" d="M742.46 1600.24c0-1 .81-1.81 1.81-1.81h46.37c1 0 1.81.81 1.81 1.81v2.38c0 1-.81 1.81-1.81 1.81h-46.37c-1 0-1.81-.81-1.81-1.81z"/><path id="w0flcF" d="M590.01 1554.378v9.478c0 .827-.67 1.497-1.496 1.497h-17.997c-.827 0-1.497-.67-1.497-1.497v-9.496l10.495 5.446z"/><path id="w0flcG" d="M590.01 1552.01v.11l-10.495 5.428-10.495-5.446v-.092h20.99z"/><path id="w0flcH" d="M586.5 1552.065a3.745 3.745 0 1 1 7.49 0 3.745 3.745 0 0 1-7.49 0z"/><path id="w0flcJ" d="M589 1552.07a1.25 1.25 0 1 1 2.5 0 1.25 1.25 0 0 1-2.5 0z"/><path id="w0flcK" d="M580.518 1605.211a4.501 4.501 0 1 1 0-9 4.501 4.501 0 0 1 4.503 4.5 4.499 4.499 0 0 1-4.503 4.51zm9.275-6.235l-1.157-.413a1.506 1.506 0 0 1-.91-2.076l.533-1.111a1.837 1.837 0 0 0-2.452-2.452l-1.11.532a1.506 1.506 0 0 1-2.067-.854l-.413-1.166a1.836 1.836 0 0 0-3.47 0l-.414 1.157a1.506 1.506 0 0 1-2.066.854l-1.111-.532a1.836 1.836 0 0 0-2.452 2.452l.533 1.11a1.506 1.506 0 0 1-.854 2.067l-1.157.413a1.837 1.837 0 0 0 0 3.472l1.157.413a1.506 1.506 0 0 1 .854 2.066l-.533 1.112a1.837 1.837 0 0 0 2.452 2.452l1.11-.533a1.506 1.506 0 0 1 2.067.854l.413 1.157a1.836 1.836 0 0 0 3.471 0l.413-1.157a1.506 1.506 0 0 1 2.066-.854l1.111.533a1.836 1.836 0 0 0 2.452-2.452l-.532-1.112a1.506 1.506 0 0 1 .854-2.066l1.157-.413a1.837 1.837 0 0 0 .055-3.453z"/><path id="w0flcL" d="M635.644 1556.662H598.05a1.561 1.561 0 1 1 0-3.122h37.584a1.561 1.561 0 1 1 .01 3.122z"/><path id="w0flcM" d="M617.354 1563.822h-19.283a1.561 1.561 0 1 1 0-3.122h19.283a1.561 1.561 0 0 1 0 3.122z"/><path id="w0flcN" d="M635.644 1598.692H598.05a1.561 1.561 0 1 1 0-3.122h37.584a1.561 1.561 0 1 1 .01 3.122z"/><path id="w0flcO" d="M617.354 1605.852h-19.283a1.561 1.561 0 1 1 0-3.122h19.283a1.561 1.561 0 1 1 0 3.122z"/><path id="w0flcP" d="M653.6 1468.478a3.738 3.738 0 0 1 3.738-3.738h20.234a3.738 3.738 0 0 1 3.738 3.738v20.244a3.738 3.738 0 0 1-3.738 3.738h-20.234a3.738 3.738 0 0 1-3.738-3.738z"/><path id="w0flcQ" d="M658.19 1499.382v-9.652h9.65l-9.65 9.652z"/><path id="w0flcR" d="M663.334 1472.36a2.057 2.057 0 1 1-2.057 2.056 2.057 2.057 0 0 1 2.057-2.038zm0 5.51a3.434 3.434 0 1 0 0-6.869 3.434 3.434 0 0 0 0 6.868z"/><path id="w0flcS" d="M668.799 1482.675a2.057 2.057 0 1 1 2.057 2.057 2.057 2.057 0 0 1-2.039-2.057zm5.51 0a3.434 3.434 0 1 0-6.87 0 3.434 3.434 0 0 0 6.87 0z"/><path id="w0flcT" d="M668.824 1472.378h3.83l-12.544 12.554.964.965 12.552-12.545v3.83h1.378v-6.172h-6.18v1.368z"/><path id="w0flcU" d="M710.374 1661.419l-.992 24.74-3.958.395-5.94.597s4.453-4.454 1.487-13.362c-2.966-8.908-5.941-30.682-5.941-30.682l10.394-11.627 3.214-3.6s3.72 21.664 1.736 33.539z"/><path id="w0flcV" d="M705.424 1631.48v55.102l-5.94.597s4.453-4.454 1.487-13.362c-2.966-8.908-5.941-30.683-5.941-30.683z"/><path id="w0flcW" d="M708.575 1693.9c-5.402.401-10.821.506-16.234.312a38.522 38.522 0 0 1-3.554-.312c-6.923-.992-.992-3.958-.992-3.958l13.857-5.942 5.849 1.46 2.066.514c4.95 7.926-.992 7.926-.992 7.926z"/><path id="w0flcX" d="M707.5 1685.46l-15.16 8.752a38.522 38.522 0 0 1-3.553-.312c-6.923-.992-.992-3.958-.992-3.958l13.857-5.942z"/><path id="w0flcY" d="M712.356 1625.782c-1.837 4.665-23.975 52.466-26.491 57.857-.15.329-.392.607-.698.799a5.922 5.922 0 0 1-2.755.918 4.104 4.104 0 0 1-3.59-1.938 7.806 7.806 0 0 1-1.102-2.185v-.046c4.95-4.95 9.899-40.574 9.899-40.574l1.974-13.821c-2.957-8.89-.505-16.108.422-19.194.16-.542.346-1.075.56-1.598l13.462 12.527z"/><path id="w0flcZ" d="M704.037 1618.527c-4.417 10.69-13.47 33.429-13.47 40.914 0 0-4.408 19.827-8.155 25.953a4.104 4.104 0 0 1-3.59-1.938l-1.102-2.186v-.046c4.95-4.95 9.899-40.573 9.899-40.573l1.588-11.14a13.088 13.088 0 0 0-.312-5.097c-1.993-7.788.285-14.005 1.13-16.806.158-.542.345-1.075.56-1.598z"/><path id="w0flda" d="M760.838 1598.077l-9.421 18.11-29.026 3.306a3.526 3.526 0 0 0-3.113 3.5v3.13a5.988 5.988 0 0 1-1.551 4.124 3.067 3.067 0 0 1-4.39.487c-3.874-2.709-9.852-4.794-14.792-8.173-4.316-2.967-8.108-6.429-9.945-10.626a9.69 9.69 0 0 1 1.047-4.426 9.835 9.835 0 0 1 3.03-3.453c10.183-7.127 36.932-24.548 54.268-23.75l.762.983z"/><path id="w0fldb" d="M780.634 1598.077l-21.23.634s-9.861-9.386-19.282-11.774a28.462 28.462 0 0 0-3.986-.735s3.389-4.995 9.118-5.969c0 0 8.696-3.93-2.185-17.789 0 0-9.899-3.958-8.907-16.824.992-12.867-12.855-15.833-12.855-15.833s-6.924-12.857 4.95-12.857l28.694 8.908 23.746 3.958z"/><path id="w0fldd" d="M792.49 1583.228a87.569 87.569 0 0 1-2.966 17.816 21.793 21.793 0 0 1-8.42 13.592 26.112 26.112 0 0 1-15.922 5.216H719.27c.496-7.42 8.411-7.42 8.411-7.42h5.941c10.881-.992 14.848-3.958 20.78-8.908 5.932-4.95 7.915-14.85 8.907-27.717.698-9.11 2.396-13.775 3.324-15.685a1.956 1.956 0 0 1 1.836-1.12l2.939.045 5.977.101 14.16.23h.422l5.51.092c-5.96 4.959-4.987 23.758-4.987 23.758z"/><path id="w0flde" d="M797.46 1559.477l-5.51-.092h-.422l-14.15-.276-5.876-.119-.11.073c-6.548 4.032-5.088 16.76-5.088 16.76 1.984 11.875-3.957 27.717-3.957 27.717-5.115 9.184-11.827 13.922-17.107 16.329h19.98a26.112 26.112 0 0 0 15.923-5.217 21.793 21.793 0 0 0 8.42-13.592 87.569 87.569 0 0 0 2.966-17.816s-1.01-18.817 4.931-23.767z"/><path id="w0fldf" d="M747.749 1581.243l-9.67 5.951c-31.67 6.925-39.484 35.367-39.484 35.367-4.315-2.967-8.108-6.429-9.944-10.626a9.69 9.69 0 0 1 1-4.426 9.835 9.835 0 0 1 3.031-3.453c10.183-7.127 36.932-24.548 54.268-23.75z"/><path id="w0fldg" d="M742.29 1688.14v-70.27h5.94v70.27z"/><path id="w0fldh" d="M745.01 1688.14v-68.46h3.21v68.46z"/><path id="w0fldi" d="M764.944 1685.18h-39.485a5.51 5.51 0 0 0-5.509 5.51v.395h50.503v-.432a5.51 5.51 0 0 0-5.51-5.473z"/><path id="w0fldk" d="M737.098 1545.623s-22.763-4.95-27.713-7.917c-4.949-2.966-10.88-1.983-13.856-2.966-2.975-.983-1.983-1.984-1.983-1.984s2.626 0 3.765-.817c.071-.05.139-.105.202-.165.991-.992-6.924-1.984-9.899-1.984-2.975 0 2.966-3.958 2.966-3.958l2.966-.992 8.907 3.958c8.907 5.942 29.686 4.95 29.686 4.95l2.58 6.208z"/><path id="w0fldl" d="M737.09 1545.624s-22.762-4.95-27.712-7.917c-4.949-2.966-10.88-1.983-13.856-2.966-2.975-.983-1.983-1.984-1.983-1.984s2.626 0 3.764-.817l37.419 8.017z"/><path id="w0fldm" d="M726.204 1516.918l-2.938 10.102a.092.092 0 0 1 0 .046l-.873 3.003s-13.002-8.266-17.951-9.184c-4.95-.918-11.873-6.924-11.873-6.924s-6.924-5.942-9.899-12.858c-2.975-6.915-7.915-7.916-7.915-7.916-9.898-2.966-5.94-9.9-5.94-9.9a.734.734 0 0 0 .137-.101c.395-.358 1.331-1.745-1.13-5.84-2.965-4.95.992-1.984.992-1.984l19.788 19.79c11.873 15.824 37.602 21.766 37.602 21.766z"/><path id="w0fldn" d="M722.38 1530.103s-13.002-8.266-17.951-9.184c-4.95-.918-11.873-6.925-11.873-6.925s-6.923-5.941-9.898-12.857c-2.976-6.915-7.916-7.916-7.916-7.916-9.898-2.966-5.94-9.9-5.94-9.9a.734.734 0 0 0 .137-.101c4.454 2.571 14.187 10.58 20.642 21.876 7.915 13.858 36.61 16.824 36.61 16.824z"/><path id="w0fldo" d="M745.01 1510.983s3.958 5.941 1.983 14.85l13.857 1.983-2.966-17.816z"/><path id="w0fldp" d="M755.25 1558.437a35.654 35.654 0 0 1 4.224-11.939c2.966-5.235 6.758-14.308 1.368-19.708l-5.94-.992-28.696-8.908c-11.873 0-4.95 12.857-4.95 12.857s13.857 2.966 12.856 15.833c-.716 9.33 4.288 13.977 7.089 15.823a13.425 13.425 0 0 1 3.82 3.775l.239.376c3.544 5.51.854 11.654-4.867 14.823-3.287 1.836-8.925 2.342-8.925 2.342 1.267.128 7.217 3.838 8.604 4.178 4.59-1.276 9.42-2.755 10.853-3.673 2.966-1.984 5.996-5.125 3.958-13.858z"/><path id="w0fldr" d="M741.072 1494.16s-1.984 9.9 0 14.85c1.983 4.95 3.957 4.95 6.923 4.95s13.838-1.956 13.838-1.956l-3.49-16.255z"/><path id="w0flds" d="M794.486 1537.716c.717 17.954-11.597 17.67-18.364 16.164a14.278 14.278 0 0 1-6.703-3.6c-4.17-3.95-5.638-4.528-8.32-5.64a52.336 52.336 0 0 1-6.161-2.956c-8.907-4.95 0-15.833 0-15.833l.496-9.404c-8.907-6.925-3.958-10.883-3.958-10.883 1.984-9.9-4.95-2.966-4.95-2.966-6.923-2.966-6.427-7.42-6.427-7.42s-6.648-4.748-1.322-11.462c.1-.137.22-.275.34-.413 4.508-5.253 11.294-5.382 14.297-5.143.996.06 1.995.024 2.984-.11 6.52-.744 11.129 6.998 13.186 11.333a7.172 7.172 0 0 0 4.04 3.673l.854.322a13.886 13.886 0 0 1 8.567 15.814 15.707 15.707 0 0 0-.358 2.7 16.238 16.238 0 0 0 6.373 13.298c7.777 6.263 5.426 12.526 5.426 12.526z"/><path id="w0fldt" d="M684.645 1691.082c-5.402.402-10.821.506-16.234.313a38.522 38.522 0 0 1-3.554-.313c-6.923-.991-.992-3.958-.992-3.958l13.847-5.914 5.85 1.46 2.066.514c4.94 7.898-.983 7.898-.983 7.898z"/><path id="w0fldu" d="M683.57 1682.68l-15.16 8.751a38.522 38.522 0 0 1-3.553-.312c-6.923-.992-.992-3.958-.992-3.958l13.847-5.951z"/><path id="w0fldv" d="M581.717 1511.601h42.24l-21.12-36.605zm43.084.479H580.9l21.955-38.03z"/><path id="w0fldw" d="M590.97 1474.975c0-6.564 5.319-11.885 11.88-11.885 6.561 0 11.88 5.321 11.88 11.885s-5.319 11.885-11.88 11.885c-6.561 0-11.88-5.321-11.88-11.885z"/><path id="w0fldx" d="M567.48 1511.405c0-6.564 5.319-11.885 11.88-11.885 6.561 0 11.88 5.321 11.88 11.885s-5.319 11.885-11.88 11.885c-6.561 0-11.88-5.321-11.88-11.885z"/><path id="w0fldy" d="M614.46 1511.405c0-6.564 5.319-11.885 11.88-11.885 6.561 0 11.88 5.321 11.88 11.885s-5.319 11.885-11.88 11.885c-6.561 0-11.88-5.321-11.88-11.885z"/><path id="w0fldz" d="M625.321 1514.515l-2.121-2.112.808-.808 1.313 1.304 4.738-4.739.808.808-5.546 5.547z"/><path id="w0fldA" d="M580.873 1513.919h-4.343V1513l1.561-1.58c.46-.472.765-.8.918-.983.124-.154.226-.323.303-.505.062-.155.093-.32.092-.487a.707.707 0 0 0-.202-.56.799.799 0 0 0-.55-.183c-.243 0-.482.057-.699.165-.253.128-.49.285-.707.468l-.716-.845c.235-.208.49-.393.762-.55.209-.111.431-.195.661-.249.262-.062.53-.093.8-.091.353-.008.705.064 1.028.21.28.13.52.338.688.598.175.273.262.594.248.918a2.14 2.14 0 0 1-.147.808 3.095 3.095 0 0 1-.468.772c-.347.402-.721.78-1.12 1.13l-.8.752v.055h2.756z"/><path id="w0fldB" d="M603.332 1476.968h-1.313v-4.83a6.47 6.47 0 0 1-.46.431l-.715.579-.634-.79 2.002-1.598h1.12z"/><path id="w0fldC" d="M491.59 1532.707s-4.306 6.704-3.269 17.99c0 0 32.36-1.248 52.404-33.694l-5.078-4.693s-23.956 23.685-44.057 20.397z"/><path id="w0fldE" d="M538.21 1510.81a21.07 21.07 0 0 1 .698-4.59s1.69-6.007 2.01-6.916c0 0 1.46-.22 1.48 1.589a19.16 19.16 0 0 1-.533 4.013 14.822 14.822 0 0 0 2.7-3.435c.734-1.57 2.267-4.638 3.287-5.014 1.019-.377 1.046.753 1.046.753l-2.865 5.721c-.505 1.01.055.845.055.845l4.592-5.574c.698-.845 1.432-.772 1.946.082 0 0-2.066 2.535-3.204 4.207-.395.578-2.094 2.314-1.414 2.755 0 0 3.774-3.674 4.334-4.409a.918.918 0 0 1 1.625.377l-4.729 5.418s-.257.441.083.515a16.932 16.932 0 0 0 3.47-1.892c.267-.257 1.158-1.01 1.663-.202 0 0 .137.303-.689 1.02-.826.715-4.591 4.233-4.591 4.233a15.894 15.894 0 0 1-5.859 3.903c-3.673 1.34-4.756.285-2.68 1.028l-.983-1.836z"/><path id="w0fldF" d="M543.326 1514.285l-5.16-4.555-2.526 2.59 5.078 4.693 2.608-2.728z"/><path id="w0fldG" d="M492.69 1532.94s7.3 4.068 11.937 14.014a41.895 41.895 0 0 0-5.096 1.993l-4.334-4.987"/><path id="w0fldI" d="M413.2 1654.797a3.5 3.5 0 0 0 .156-1.488l-.45-3.949-4.426.101.413 18.367"/><path id="w0fldJ" d="M450.798 1594.17l8.733 38.672s-21.937 1.91-47.611 16.531l1.533 5.115 68.795-12.7v-14.51l-6.318-16.642"/><path id="w0fldK" d="M450.8 1594.165s15.289 28.12 36.215 47.608c0 0-16.005 21.325-16.932 50.657l4.022 2.103 26.969-52.411-12.994-49.252z"/><path id="w0fldL" d="M495.69 1580.517s-5.437-12.453-2.6-23.134c1.837-1.295 4.216-2.755 5.06-3.967a53.547 53.547 0 0 0-1.46-11.507c-1.625-6.3-3.076-10.415-4.517-10.277-5.978-2.342-8.191-5.088-16.575-3.095-8.53 2.03-15.858 19.378-20.458 42.364 13.792 12.959 40.55 9.616 40.55 9.616z"/><path id="w0fldN" d="M481.561 1525.865l-5.151 4.242v-17.972s.23-10.598 11.717-11.443c9.329-.689 13.59 5.565 13.773 12.279.404 15.548-8.172 19.974-8.172 19.974l-.964-1.111-2.755-.78-3.47-7.118-.515 4.179"/><path id="w0fldO" d="M498.716 1511.9c0 .073 1.837 3.407 1.993 6.024h-2.819z"/><path id="w0fldP" d="M490.484 1526.342l7.658-.175c.23-2.305.367-2.755.514-3.848a3.765 3.765 0 0 1-3.783-2.038h4.068c.973-9.184-.285-11.37-.285-11.37l-.505-1.111c-2.755 5.565-9.871 2.443-9.871 2.443a3.674 3.674 0 0 1-3.6 4.15c.992 8.431-4.59 10.516-4.59 10.516l-2.37 4.317 8.365 6.704 4.591-.708-.192-.973v-7.926z"/><path id="w0fldQ" d="M477.74 1526.955a1.185 1.185 0 1 1 2.37 0 1.185 1.185 0 0 1-2.37 0z"/><path id="w0fldR" d="M483.37 1535.875l3.443 2.59a2.158 2.158 0 0 0 3.297-.918l1.405-3.417-3.673-.22z"/><path id="w0fldT" d="M487.877 1533.889l-4.454 4.454s-7.823-3.673-7.823-9.808l2.03-2.195s4.14 5.657 10.247 7.549z"/><path id="w0fldU" d="M487.87 1533.899l4.224 3.242a8.817 8.817 0 0 0-1.589-6.181z"/><path id="w0fldV" d="M451.711 1578.61s-35.499-4.904-29.953-34.145c4.39-23.134 33.387-17.45 47.52-29.076 9.934-8.136 10.035-15.731 21.844-14.694-10.66 6.603-8.742 21.39-8.742 21.39l-6.785 9.679s0 6.033-8.614 11.939c-6.115 4.26-15.27 34.907-15.27 34.907z"/><path id="w0fldW" d="M494.239 1616.224l-37.52 4.151-1.579-7.365"/><path id="w0fldX" d="M449.68 1559.712a4.922 4.922 0 0 1 4.922-4.922h51.176a4.922 4.922 0 0 1 4.922 4.922v51.186a4.922 4.922 0 0 1-4.922 4.922h-51.176a4.922 4.922 0 0 1-4.922-4.922z"/><path id="w0fldY" d="M487.941 1538.863s-1.157 14.363 8.815 15.924c15.087 2.37 15.408 12.591 15.408 12.591l3.48 1.57 2.59-6.75s1.983-8.614-12.672-11.59c-8.448-1.717-17.006-2.102-16.63-11.938"/><path id="w0flea" d="M483.157 1705.18l-7.934-10.57-4.93-3.27-2.443 3.692"/><path id="w0fleb" d="M458.06 1584.453c0-1.222.99-2.213 2.213-2.213h36.274c1.222 0 2.213.99 2.213 2.213v19.454c0 1.222-.99 2.213-2.213 2.213h-36.274a2.213 2.213 0 0 1-2.213-2.213z"/><path id="w0flec" d="M459.48 1583.333a4.214 4.214 0 0 1 2.819-1.093h32.221a4.224 4.224 0 0 1 3.003 1.24l-18.944 18.946z"/><path id="w0fled" d="M482.633 1598.327h-8.117l-11.276-11.278v-21.636a2.332 2.332 0 0 1 2.332-2.333h25.252a2.332 2.332 0 0 1 2.332 2.333v22.417z"/><path id="w0flee" d="M493.149 1576.35l-8.788 7.815-2.093-2.259a1.69 1.69 0 0 0-2.342-.22l-6.978 6.235-2.324-2.452a1.69 1.69 0 0 0-2.341-.22l-3.673 3.26 2.443 2.443 2.387-2.13 2.305 2.479a1.69 1.69 0 0 0 2.341.22l7.016-6.235 2.093 2.259a1.69 1.69 0 0 0 2.342.22l7.612-6.768z"/><path id="w0flef" d="M502.873 1565.785a1.634 1.634 0 0 0-2.305 0l-16.528 16.531-2.057-2.057a1.634 1.634 0 0 0-2.305 0l-6.896 6.897-2.268-2.269a1.634 1.634 0 0 0-2.304 0l-3.6 3.6 2.305 2.306 2.451-2.452 2.269 2.268a1.634 1.634 0 0 0 2.304 0l6.896-6.897 2.057 2.057a1.634 1.634 0 0 0 2.305 0l17.658-17.66a1.635 1.635 0 0 0 .018-2.324z"/><path id="w0fleg" d="M504.935 1572.186a1.634 1.634 0 0 1-2.755-1.157v-4.969h-4.178a1.635 1.635 0 0 1 0-3.26h5.803c.903 0 1.635.732 1.635 1.635v6.594a1.626 1.626 0 0 1-.505 1.157z"/><path id="w0fleh" d="M473.858 1566.903h-8.264a.404.404 0 1 1 0-.808h8.264a.404.404 0 0 1 0 .808z"/><path id="w0flei" d="M473.858 1569.943h-8.264a.404.404 0 0 1 0-.808h8.264a.404.404 0 0 1 0 .808z"/><path id="w0flej" d="M473.858 1575.063h-8.264a.404.404 0 1 1 0-.808h8.264a.404.404 0 0 1 0 .808z"/><path id="w0flek" d="M489.732 1575.063h-13.838a.404.404 0 1 1 0-.808h13.838a.404.404 0 0 1 0 .808z"/><path id="w0flel" d="M482.616 1578.183h-6.722a.404.404 0 1 1 0-.808h6.722a.404.404 0 1 1 0 .808z"/><path id="w0flem" d="M473.858 1578.183h-8.264a.404.404 0 1 1 0-.808h8.264a.404.404 0 1 1 0 .808z"/><path id="w0flen" d="M497.52 1604.877a4.224 4.224 0 0 1-3.002 1.24h-32.212a4.224 4.224 0 0 1-3.416-1.754l16.813-10.387a4.93 4.93 0 0 1 5.298.073z"/><path id="w0fleo" d="M479.501 1553.8s-15.683 21.535.964 51.483l-9.54 1.653s-23.544-32.143-1.506-69.796c0-.01 12.313 2.296 10.082 16.66z"/><path id="w0fleq" d="M483.377 1521.95s4.444 17.587-18.604 20.204c-6.427-11.35 3.857-17.532 3.857-17.532z"/><path id="w0fler" d="M480.288 1605.74l1.496 4.408 3.517.744 4.913.817a4.086 4.086 0 0 1-1.534 1.534c-.786.287-1.626.4-2.46.33l.752 2.205h4.197l-6.06 2.93-4.867 1.533-4.26-2.333-.8-5.455-1.322-1.57z"/><path id="w0fles" d="M473.601 1612.035l7.915-4.702-2.525-4.913-8.071 4.518 2.681 5.097z"/><linearGradient id="w0flc" x1="699.91" x2="748.12" y1="1399.82" y2="1399.82" gradientUnits="userSpaceOnUse"><stop offset="0" stop-color="#2e3dc0"/><stop offset="1" stop-color="#6452f4"/></linearGradient><linearGradient id="w0fle" x1="704.14" x2="720.33" y1="1400.54" y2="1400.54" gradientUnits="userSpaceOnUse"><stop offset="0" stop-color="#2e3dc0"/><stop offset="1" stop-color="#6452f4"/></linearGradient><linearGradient id="w0flk" x1="658.05" x2="716.44" y1="1411.08" y2="1411.08" gradientUnits="userSpaceOnUse"><stop offset="0" stop-color="#2e3dc0"/><stop offset="1" stop-color="#6452f4"/></linearGradient><linearGradient id="w0flF" x1="642.91" x2="672.12" y1="1410.55" y2="1410.55" gradientUnits="userSpaceOnUse"><stop offset="0" stop-color="#2e3dc0"/><stop offset="1" stop-color="#6452f4"/></linearGradient><linearGradient id="w0flI" x1="689.35" x2="732.8" y1="1402.81" y2="1402.81" gradientUnits="userSpaceOnUse"><stop offset="0" stop-color="#4525d0"/><stop offset=".34" stop-color="#3f1dc8"/><stop offset=".86" stop-color="#3006b4"/><stop offset=".99" stop-color="#2b00ae"/></linearGradient><linearGradient id="w0flL" x1="422.55" x2="613.52" y1="1541.84" y2="1541.84" gradientUnits="userSpaceOnUse"><stop offset="0" stop-color="#a763f3"/><stop offset="1" stop-color="#804cdf"/></linearGradient><linearGradient id="w0flN" x1="422.55" x2="613.52" y1="1462.38" y2="1462.38" gradientUnits="userSpaceOnUse"><stop offset="0" stop-color="#2e3dc0"/><stop offset="1" stop-color="#6452f4"/></linearGradient><linearGradient id="w0flbE" x1="536.83" x2="843.9" y1="1536.32" y2="1536.32" gradientUnits="userSpaceOnUse"><stop offset="0" stop-color="#a763f3"/><stop offset="1" stop-color="#804cdf"/></linearGradient><linearGradient id="w0flbT" x1="657.48" x2="721.47" y1="1568.01" y2="1568.01" gradientUnits="userSpaceOnUse"><stop offset="0" stop-color="#ffac2e"/><stop offset="1" stop-color="#fb5db9"/></linearGradient><linearGradient id="w0flcw" x1="742.46" x2="770.95" y1="1577.93" y2="1577.93" gradientUnits="userSpaceOnUse"><stop offset="0" stop-color="#8571ff"/><stop offset="1" stop-color="#5b18a8"/></linearGradient><linearGradient id="w0flcy" x1="742.46" x2="780.95" y1="1565.93" y2="1565.93" gradientUnits="userSpaceOnUse"><stop offset="0" stop-color="#8571ff"/><stop offset="1" stop-color="#5b18a8"/></linearGradient><linearGradient id="w0flcB" x1="742.46" x2="781.94" y1="1589.93" y2="1589.93" gradientUnits="userSpaceOnUse"><stop offset="0" stop-color="#8571ff"/><stop offset="1" stop-color="#5b18a8"/></linearGradient><linearGradient id="w0flcE" x1="742.46" x2="792.44" y1="1601.42" y2="1601.42" gradientUnits="userSpaceOnUse"><stop offset="0" stop-color="#8571ff"/><stop offset="1" stop-color="#5b18a8"/></linearGradient><linearGradient id="w0flcI" x1="590.25" x2="590.25" y1="1549.26" y2="1555.52" gradientUnits="userSpaceOnUse"><stop offset="0" stop-color="#ffac2e"/><stop offset="1" stop-color="#fb5db9"/></linearGradient><linearGradient id="w0fldc" x1="719.25" x2="780.64" y1="1557.82" y2="1557.82" gradientUnits="userSpaceOnUse"><stop offset="0" stop-color="#2e3dc0"/><stop offset="1" stop-color="#6452f4"/></linearGradient><linearGradient id="w0fldj" x1="720.02" x2="770.49" y1="1688.14" y2="1688.14" gradientUnits="userSpaceOnUse"><stop offset="0" stop-color="#2e3dc0"/><stop offset="1" stop-color="#6452f4"/></linearGradient><linearGradient id="w0fldq" x1="719.26" x2="763.56" y1="1551.93" y2="1551.93" gradientUnits="userSpaceOnUse"><stop offset="0" stop-color="#2e3dc0"/><stop offset="1" stop-color="#6452f4"/></linearGradient><linearGradient id="w0fldD" x1="488.16" x2="540.72" y1="1531.51" y2="1531.51" gradientUnits="userSpaceOnUse"><stop offset="0" stop-color="#2e3dc0"/><stop offset="1" stop-color="#6452f4"/></linearGradient><linearGradient id="w0fldH" x1="492.69" x2="504.62" y1="1540.95" y2="1540.95" gradientUnits="userSpaceOnUse"><stop offset="0" stop-color="#2e3dc0"/><stop offset="1" stop-color="#6452f4"/></linearGradient><linearGradient id="w0fldM" x1="455.14" x2="498.15" y1="1554.37" y2="1554.37" gradientUnits="userSpaceOnUse"><stop offset="0" stop-color="#2e3dc0"/><stop offset="1" stop-color="#6452f4"/></linearGradient><linearGradient id="w0fldS" x1="483.37" x2="491.52" y1="1536.38" y2="1536.38" gradientUnits="userSpaceOnUse"><stop offset="0" stop-color="#4525d0"/><stop offset=".34" stop-color="#3f1dc8"/><stop offset=".86" stop-color="#3006b4"/><stop offset=".99" stop-color="#2b00ae"/></linearGradient><linearGradient id="w0fldZ" x1="487.9" x2="518.31" y1="1553.81" y2="1553.81" gradientUnits="userSpaceOnUse"><stop offset="0" stop-color="#4525d0"/><stop offset=".34" stop-color="#3f1dc8"/><stop offset=".86" stop-color="#3006b4"/><stop offset=".99" stop-color="#2b00ae"/></linearGradient><linearGradient id="w0flep" x1="460" x2="480.46" y1="1572.04" y2="1572.04" gradientUnits="userSpaceOnUse"><stop offset="0" stop-color="#2e3dc0"/><stop offset="1" stop-color="#6452f4"/></linearGradient></defs><g><g transform="translate(-360 -1287)"><g opacity=".1"><use fill="#270970" xlink:href="#w0fla"/></g><g><use fill="url(#w0flc)" xlink:href="#w0flb"/></g><g><use fill="url(#w0fle)" xlink:href="#w0fld"/></g><g><use fill="#2e3192" xlink:href="#w0flf"/></g><g><use fill="#ff907d" xlink:href="#w0flg"/></g><g><use fill="#fff" xlink:href="#w0flh"/></g><g><use fill="#ffcda9" xlink:href="#w0fli"/></g><g><use fill="url(#w0flk)" xlink:href="#w0flj"/></g><g opacity=".21"><use fill="#0091f4" xlink:href="#w0fll"/></g><g transform="rotate(-180 703.5 1387.5)"><use fill="#14afff" xlink:href="#w0flm"/></g><g><use fill="#003c9a" xlink:href="#w0fln"/></g><g><use fill="#3bfaff" xlink:href="#w0flo"/></g><g><use fill="#14afff" xlink:href="#w0flp"/></g><g><use fill="#14afff" xlink:href="#w0flq"/></g><g><use fill="#ff83b3" xlink:href="#w0flr"/></g><g><use fill="#ef2674" xlink:href="#w0fls"/></g><g><use fill="#ffcda9" xlink:href="#w0flt"/></g><g transform="rotate(167.47 741 1363.5)"><use fill="#4949ce" xlink:href="#w0flu"/></g><g><use fill="#ffcda9" xlink:href="#w0flv"/></g><g><use fill="#270970" xlink:href="#w0flw"/></g><g transform="rotate(-12.53 766 1342.5)"><use fill="#c2d4ff" xlink:href="#w0flx"/></g><g transform="rotate(-12.53 767 1342.5)"><use fill="#e7ecff" xlink:href="#w0fly"/></g><g transform="rotate(-12.53 767 1342.5)"><use fill="#4949ce" xlink:href="#w0flz"/></g><g><use fill="#4949ce" xlink:href="#w0flA"/></g><g><use fill="#4949ce" xlink:href="#w0flB"/></g><g><use fill="#ef2674" xlink:href="#w0flC"/></g><g><use fill="#ef2674" xlink:href="#w0flD"/></g><g><use fill="url(#w0flF)" xlink:href="#w0flE"/></g><g><use fill="#2e3192" xlink:href="#w0flG"/></g><g><use fill="url(#w0flI)" xlink:href="#w0flH"/></g><g opacity=".21"><use fill="#0091f4" xlink:href="#w0flJ"/></g><g><use fill="url(#w0flL)" xlink:href="#w0flK"/></g><g><use fill="url(#w0flN)" xlink:href="#w0flM"/></g><g><use fill="#b0bfde" xlink:href="#w0flO"/></g><g><use fill="#ffc40e" xlink:href="#w0flP"/></g><g><use fill="#3bb6d5" xlink:href="#w0flQ"/></g><g><use fill="#dcc1fa" xlink:href="#w0flR"/></g><g><use fill="#dcc1fa" xlink:href="#w0flS"/></g><g><use fill="#dcc1fa" xlink:href="#w0flT"/></g><g><use fill="#dcc1fa" xlink:href="#w0flU"/></g><g><use fill="#dcc1fa" xlink:href="#w0flV"/></g><g><use fill="#dcc1fa" xlink:href="#w0flW"/></g><g><use fill="#dcc1fa" xlink:href="#w0flX"/></g><g><use fill="#dcc1fa" xlink:href="#w0flY"/></g><g><use fill="#dcc1fa" xlink:href="#w0flZ"/></g><g><use fill="#dcc1fa" xlink:href="#w0flaa"/></g><g><use fill="#dcc1fa" xlink:href="#w0flab"/></g><g><use fill="#dcc1fa" xlink:href="#w0flac"/></g><g><use fill="#dcc1fa" xlink:href="#w0flad"/></g><g><use fill="#dcc1fa" xlink:href="#w0flae"/></g><g><use fill="#dcc1fa" xlink:href="#w0flaf"/></g><g><use fill="#dcc1fa" xlink:href="#w0flag"/></g><g><use fill="#dcc1fa" xlink:href="#w0flah"/></g><g><use fill="#dcc1fa" xlink:href="#w0flai"/></g><g><use fill="#dcc1fa" xlink:href="#w0flaj"/></g><g><use fill="#dcc1fa" xlink:href="#w0flak"/></g><g><use fill="#dcc1fa" xlink:href="#w0flal"/></g><g><use fill="#dcc1fa" xlink:href="#w0flam"/></g><g><use fill="#dcc1fa" xlink:href="#w0flan"/></g><g><use fill="#dcc1fa" xlink:href="#w0flao"/></g><g><use fill="#dcc1fa" xlink:href="#w0flap"/></g><g><use fill="#dcc1fa" xlink:href="#w0flaq"/></g><g><use fill="#dcc1fa" xlink:href="#w0flar"/></g><g><use fill="#dcc1fa" xlink:href="#w0flas"/></g><g><use fill="#dcc1fa" xlink:href="#w0flat"/></g><g><use fill="#dcc1fa" xlink:href="#w0flau"/></g><g><use fill="#dcc1fa" xlink:href="#w0flav"/></g><g><use fill="#dcc1fa" xlink:href="#w0flaw"/></g><g><use fill="#dcc1fa" xlink:href="#w0flax"/></g><g><use fill="#dcc1fa" xlink:href="#w0flay"/></g><g><use fill="#dcc1fa" xlink:href="#w0flaz"/></g><g><use fill="#dcc1fa" xlink:href="#w0flaA"/></g><g><use fill="#dcc1fa" xlink:href="#w0flaB"/></g><g><use fill="#dcc1fa" xlink:href="#w0flaC"/></g><g><use fill="#dcc1fa" xlink:href="#w0flaD"/></g><g><use fill="#dcc1fa" xlink:href="#w0flaE"/></g><g><use fill="#dcc1fa" xlink:href="#w0flaF"/></g><g><use fill="#dcc1fa" xlink:href="#w0flaG"/></g><g><use fill="#dcc1fa" xlink:href="#w0flaH"/></g><g><use fill="#dcc1fa" xlink:href="#w0flaI"/></g><g><use fill="#dcc1fa" xlink:href="#w0flaJ"/></g><g><use fill="#dcc1fa" xlink:href="#w0flaK"/></g><g><use fill="#dcc1fa" xlink:href="#w0flaL"/></g><g><use fill="#dcc1fa" xlink:href="#w0flaM"/></g><g><use fill="#dcc1fa" xlink:href="#w0flaN"/></g><g><use fill="#dcc1fa" xlink:href="#w0flaO"/></g><g><use fill="#dcc1fa" xlink:href="#w0flaP"/></g><g><use fill="#dcc1fa" xlink:href="#w0flaQ"/></g><g><use fill="#dcc1fa" xlink:href="#w0flaR"/></g><g><use fill="#dcc1fa" xlink:href="#w0flaS"/></g><g><use fill="#dcc1fa" xlink:href="#w0flaT"/></g><g><use fill="#dcc1fa" xlink:href="#w0flaU"/></g><g><use fill="#dcc1fa" xlink:href="#w0flaV"/></g><g><use fill="#dcc1fa" xlink:href="#w0flaW"/></g><g><use fill="#dcc1fa" xlink:href="#w0flaX"/></g><g><use fill="#dcc1fa" xlink:href="#w0flaY"/></g><g><use fill="#dcc1fa" xlink:href="#w0flaZ"/></g><g><use fill="#dcc1fa" xlink:href="#w0flba"/></g><g><use fill="#dcc1fa" xlink:href="#w0flbb"/></g><g><use fill="#dcc1fa" xlink:href="#w0flbc"/></g><g><use fill="#dcc1fa" xlink:href="#w0flbd"/></g><g><use fill="#dcc1fa" xlink:href="#w0flbe"/></g><g><use fill="#dcc1fa" xlink:href="#w0flbf"/></g><g><use fill="#dcc1fa" xlink:href="#w0flbg"/></g><g><use fill="#dcc1fa" xlink:href="#w0flbh"/></g><g><use fill="#dcc1fa" xlink:href="#w0flbi"/></g><g><use fill="#dcc1fa" xlink:href="#w0flbj"/></g><g><use fill="#dcc1fa" xlink:href="#w0flbk"/></g><g><use fill="#dcc1fa" xlink:href="#w0flbl"/></g><g><use fill="#dcc1fa" xlink:href="#w0flbm"/></g><g><use fill="#dcc1fa" xlink:href="#w0flbn"/></g><g><use fill="#dcc1fa" xlink:href="#w0flbo"/></g><g><use fill="#dcc1fa" xlink:href="#w0flbp"/></g><g><use fill="#dcc1fa" xlink:href="#w0flbq"/></g><g><use fill="#dcc1fa" xlink:href="#w0flbr"/></g><g><use fill="#dcc1fa" xlink:href="#w0flbs"/></g><g><use fill="#dcc1fa" xlink:href="#w0flbt"/></g><g><use fill="#dcc1fa" xlink:href="#w0flbu"/></g><g><use fill="#dcc1fa" xlink:href="#w0flbv"/></g><g><use fill="#dcc1fa" xlink:href="#w0flbw"/></g><g><use fill="#dcc1fa" xlink:href="#w0flbx"/></g><g><use fill="#dcc1fa" xlink:href="#w0flby"/></g><g><use fill="#dcc1fa" xlink:href="#w0flbz"/></g><g><use fill="#dcc1fa" xlink:href="#w0flbA"/></g><g><use fill="#dcc1fa" xlink:href="#w0flbB"/></g><g><use fill="#4842c6" xlink:href="#w0flbC"/></g><g><use fill="url(#w0flbE)" xlink:href="#w0flbD"/></g><g><use fill="#e3d4ff" xlink:href="#w0flbF"/></g><g><use fill="#9f9fff" xlink:href="#w0flbG"/></g><g><use fill="#004696" xlink:href="#w0flbH"/></g><g><g><use fill="#f8f6f8" xlink:href="#w0flbI"/></g><g><use fill="#a763f3" xlink:href="#w0flbJ"/></g><g><use fill="#f8f6f8" xlink:href="#w0flbK"/></g><g><use fill="#f8f6f8" xlink:href="#w0flbL"/></g><g><use fill="#f8f6f8" xlink:href="#w0flbM"/></g><g><use fill="#f8f6f8" xlink:href="#w0flbN"/></g><g><use fill="#a763f3" xlink:href="#w0flbO"/></g><g><use fill="#dcc1fa" xlink:href="#w0flbP"/></g><g><use fill="#dcc1fa" xlink:href="#w0flbQ"/></g><g><use fill="#ef2674" xlink:href="#w0flbR"/></g><g><use fill="url(#w0flbT)" xlink:href="#w0flbS"/></g><g><use fill="#dcc1fa" xlink:href="#w0flbU"/></g><g><use fill="#dcc1fa" xlink:href="#w0flbV"/></g><g><use fill="#dcc1fa" xlink:href="#w0flbW"/></g><g><use fill="#dcc1fa" xlink:href="#w0flbX"/></g><g><use fill="#dcc1fa" xlink:href="#w0flbY"/></g><g><use fill="#dcc1fa" xlink:href="#w0flbZ"/></g><g><use fill="#dcc1fa" xlink:href="#w0flca"/></g><g><use fill="#dcc1fa" xlink:href="#w0flcb"/></g><g><use fill="#dcc1fa" xlink:href="#w0flcc"/></g><g><use fill="#dcc1fa" xlink:href="#w0flcd"/></g><g><use fill="#dcc1fa" xlink:href="#w0flce"/></g><g><use fill="#dcc1fa" xlink:href="#w0flcf"/></g><g><use fill="#dcc1fa" xlink:href="#w0flcg"/></g><g><use fill="#dcc1fa" xlink:href="#w0flch"/></g><g><use fill="#dcc1fa" xlink:href="#w0flci"/></g><g><use fill="#dcc1fa" xlink:href="#w0flcj"/></g><g><use fill="#ef2674" xlink:href="#w0flck"/></g><g><use fill="#dcc1fa" xlink:href="#w0flcl"/></g><g><use fill="#dcc1fa" xlink:href="#w0flcm"/></g><g><use fill="#804cdf" xlink:href="#w0flcn"/></g><g><use fill="#dcc1fa" xlink:href="#w0flco"/></g><g><use fill="#dcc1fa" xlink:href="#w0flcp"/></g><g><use fill="#a763f3" xlink:href="#w0flcq"/></g><g><use fill="#dcc1fa" xlink:href="#w0flcr"/></g><g><use fill="#dcc1fa" xlink:href="#w0flcs"/></g><g><use fill="#dcc1fa" xlink:href="#w0flct"/></g><g><use fill="#dcc1fa" xlink:href="#w0flcu"/></g><g><use fill="url(#w0flcw)" xlink:href="#w0flcv"/></g><g><use fill="url(#w0flcy)" xlink:href="#w0flcx"/></g><g><use fill="#dcc1fa" xlink:href="#w0flcz"/></g><g><use fill="url(#w0flcB)" xlink:href="#w0flcA"/></g><g><use fill="#dcc1fa" xlink:href="#w0flcC"/></g><g><use fill="url(#w0flcE)" xlink:href="#w0flcD"/></g><g><use fill="#804cdf" xlink:href="#w0flcF"/></g><g><use fill="#804cdf" xlink:href="#w0flcG"/></g><g><use fill="url(#w0flcI)" xlink:href="#w0flcH"/></g><g><use fill="#fff" xlink:href="#w0flcJ"/></g><g><use fill="#804cdf" xlink:href="#w0flcK"/></g><g><use fill="#dcc1fa" xlink:href="#w0flcL"/></g><g><use fill="#dcc1fa" xlink:href="#w0flcM"/></g><g><use fill="#dcc1fa" xlink:href="#w0flcN"/></g><g><use fill="#dcc1fa" xlink:href="#w0flcO"/></g></g><g><use fill="#4e99ff" xlink:href="#w0flcP"/></g><g><use fill="#4e99ff" xlink:href="#w0flcQ"/></g><g><use fill="#fff" xlink:href="#w0flcR"/></g><g><use fill="#fff" xlink:href="#w0flcS"/></g><g><use fill="#fff" xlink:href="#w0flcT"/></g><g><use fill="#7dd7ef" xlink:href="#w0flcU"/></g><g><use fill="#4a81bd" xlink:href="#w0flcV"/></g><g><use fill="#3d43a5" xlink:href="#w0flcW"/></g><g><use fill="#283c8e" xlink:href="#w0flcX"/></g><g><use fill="#8adef9" xlink:href="#w0flcY"/></g><g><use fill="#5485c9" xlink:href="#w0flcZ"/></g><g><use fill="#00217a" xlink:href="#w0flda"/></g><g><use fill="url(#w0fldc)" xlink:href="#w0fldb"/></g><g><use fill="#9f9fff" xlink:href="#w0fldd"/></g><g><use fill="#7b7bff" xlink:href="#w0flde"/></g><g><use fill="#003591" xlink:href="#w0fldf"/></g><g><use fill="#706aef" xlink:href="#w0fldg"/></g><g><use fill="#6050f0" xlink:href="#w0fldh"/></g><g><use fill="url(#w0fldj)" xlink:href="#w0fldi"/></g><g><use fill="#8bdefb" xlink:href="#w0fldk"/></g><g><use fill="#5383c7" xlink:href="#w0fldl"/></g><g><use fill="#8bdefb" xlink:href="#w0fldm"/></g><g><use fill="#5383c7" xlink:href="#w0fldn"/></g><g><use fill="#5282c7" xlink:href="#w0fldo"/></g><g><use fill="url(#w0fldq)" xlink:href="#w0fldp"/></g><g><use fill="#4671aa" xlink:href="#w0fldr"/></g><g><use fill="#2e3192" xlink:href="#w0flds"/></g><g><use fill="#3d43a5" xlink:href="#w0fldt"/></g><g><use fill="#283c8e" xlink:href="#w0fldu"/></g><g><use fill="#cdd5d7" xlink:href="#w0fldv"/></g><g><use fill="#4e99ff" xlink:href="#w0fldw"/></g><g><use fill="#ef2674" xlink:href="#w0fldx"/></g><g><use fill="#94c14a" xlink:href="#w0fldy"/></g><g><use fill="#fff" xlink:href="#w0fldz"/></g><g><use fill="#fff" xlink:href="#w0fldA"/></g><g><use fill="#fff" xlink:href="#w0fldB"/></g><g><use fill="url(#w0fldD)" xlink:href="#w0fldC"/></g><g><use fill="#ffcda9" xlink:href="#w0fldE"/></g><g><use fill="#3bfaff" xlink:href="#w0fldF"/></g><g><use fill="url(#w0fldH)" xlink:href="#w0fldG"/></g><g><use fill="#000f1f" xlink:href="#w0fldI"/></g><g><use fill="#00217a" xlink:href="#w0fldJ"/></g><g><use fill="#003591" xlink:href="#w0fldK"/></g><g><use fill="url(#w0fldM)" xlink:href="#w0fldL"/></g><g><use fill="#2e3192" xlink:href="#w0fldN"/></g><g><use fill="#ff907d" xlink:href="#w0fldO"/></g><g><use fill="#ffcda9" xlink:href="#w0fldP"/></g><g><use fill="#131637" xlink:href="#w0fldQ"/></g><g><use fill="url(#w0fldS)" xlink:href="#w0fldR"/></g><g><use fill="#14afff" xlink:href="#w0fldT"/></g><g><use fill="#14afff" xlink:href="#w0fldU"/></g><g><use fill="#2e3192" xlink:href="#w0fldV"/></g><g opacity=".3"><use fill="#001f5f" xlink:href="#w0fldW"/></g><g><use fill="#fff" xlink:href="#w0fldX"/></g><g><use fill="url(#w0fldZ)" xlink:href="#w0fldY"/></g><g><use fill="#000f1f" xlink:href="#w0flea"/></g><g transform="rotate(180 478.5 1594.5)"><use fill="#005fff" xlink:href="#w0fleb"/></g><g><use fill="#0023c5" xlink:href="#w0flec"/></g><g><use fill="#9f9fff" xlink:href="#w0fled"/></g><g opacity=".3"><use fill="#008eff" xlink:href="#w0flee"/></g><g><use fill="#001b8d" xlink:href="#w0flef"/></g><g><use fill="#001b8d" xlink:href="#w0fleg"/></g><g><use fill="#3bfaff" xlink:href="#w0fleh"/></g><g><use fill="#3bfaff" xlink:href="#w0flei"/></g><g><use fill="#3bfaff" xlink:href="#w0flej"/></g><g><use fill="#3bfaff" xlink:href="#w0flek"/></g><g><use fill="#3bfaff" xlink:href="#w0flel"/></g><g><use fill="#3bfaff" xlink:href="#w0flem"/></g><g><use fill="#0089ff" xlink:href="#w0flen"/></g><g><use fill="url(#w0flep)" xlink:href="#w0fleo"/></g><g><use fill="#2e3192" xlink:href="#w0fleq"/></g><g><use fill="#ffcda9" xlink:href="#w0fler"/></g><g><use fill="#3bfaff" xlink:href="#w0fles"/></g></g></g></svg>