<svg xmlns="http://www.w3.org/2000/svg" xmlns:xlink="http://www.w3.org/1999/xlink" width="102" height="58" viewBox="0 0 102 58"><defs><path id="quf0a" d="M479.458 3214.983a4.838 4.838 0 0 0-2.393-3.796l-7.367-4.255a3.229 3.229 0 0 1-1.606-2.798v-4.574h-9.562v4.575a3.229 3.229 0 0 1-1.606 2.797l-7.367 4.256a4.838 4.838 0 0 0-2.392 3.795l-1.385 16.8h35.062z"/><path id="quf0b" d="M479.458 3214.978a4.838 4.838 0 0 0-2.393-3.795l-5.078-2.933c-2.045 2.557-5.17 4.195-8.676 4.195-3.506 0-6.63-1.638-8.676-4.195l-5.077 2.933a4.838 4.838 0 0 0-2.393 3.795l-1.385 16.8h35.063z"/><path id="quf0c" d="M458.535 3199.56v4.575c0 .246-.041.485-.095.72a10.973 10.973 0 0 0 4.876 1.15c1.75 0 3.4-.421 4.877-1.15a3.225 3.225 0 0 1-.095-.72v-4.575z"/><path id="quf0d" d="M455.34 3186.67v8.056c0 4.448 3.568 8.055 7.969 8.055 4.4 0 7.968-3.607 7.968-8.055v-8.056z"/><path id="quf0e" d="M427.204 3214.333l-5.157-2.607a3.226 3.226 0 0 1-1.762-2.882v-6.064h-9.563v6.064c0 1.22-.682 2.336-1.762 2.882l-5.157 2.607a4.84 4.84 0 0 0-2.643 4.323v13.124h28.687v-13.124a4.84 4.84 0 0 0-2.643-4.323z"/><path id="quf0f" d="M427.204 3214.326l-5.157-2.607c-.068-.035-.12-.09-.185-.129a9.458 9.458 0 0 1-6.358 2.46 9.458 9.458 0 0 1-6.359-2.46c-.065.04-.116.094-.185.129l-5.157 2.607a4.84 4.84 0 0 0-2.643 4.323v13.124h28.687v-13.124a4.84 4.84 0 0 0-2.643-4.323z"/><path id="quf0g" d="M410.72 3208.276a12.55 12.55 0 0 0 4.781.948 12.55 12.55 0 0 0 4.782-.948v-5.496h-9.563z"/><path id="quf0h" d="M410.72 3181.835c0-2.67 2.14-4.835 4.78-4.835s4.78 2.165 4.78 4.835-2.14 4.835-4.78 4.835-4.78-2.165-4.78-4.835z"/><path id="quf0i" d="M415.502 3205.996c-5.28 0-9.562-4.328-9.562-9.667v-3.222c0-5.34 4.281-9.667 9.563-9.667 5.28 0 9.562 4.328 9.562 9.667v3.222c0 5.339-4.281 9.667-9.563 9.667z"/><path id="quf0j" d="M412.315 3199.552v-9.667a9.68 9.68 0 0 1 2.414-6.405c-4.919.4-8.789 4.552-8.789 9.627v3.222c0 5.075 3.87 9.228 8.789 9.628a9.679 9.679 0 0 1-2.414-6.405z"/><path id="quf0k" d="M490.406 3235.002h-98.812c-.881 0-1.594-.72-1.594-1.61 0-.891.713-1.612 1.594-1.612h98.812c.881 0 1.594.72 1.594 1.611 0 .89-.713 1.611-1.594 1.611z"/><path id="quf0l" d="M422.063 3231.779h-13.124a1.6 1.6 0 0 1-1.581-1.411l-1.195-9.667a1.605 1.605 0 0 1 1.58-1.811h15.515c.959 0 1.7.85 1.582 1.81l-1.196 9.668a1.6 1.6 0 0 1-1.581 1.41z"/><path id="quf0m" d="M471.277 3231.779h-15.938a1.6 1.6 0 0 1-1.581-1.411l-1.195-9.667a1.605 1.605 0 0 1 1.581-1.811h18.328c.959 0 1.7.85 1.581 1.81l-1.195 9.668a1.6 1.6 0 0 1-1.581 1.41z"/><path id="quf0n" d="M415.502 3183.44c-5.28 0-9.562 4.328-9.562 9.667v1.61s3.188 0 6.375-3.221c0 0 4.781 6.444 12.75 3.222v-1.611c0-5.34-4.281-9.667-9.563-9.667z"/><path id="quf0o" d="M412.315 3189.885a9.68 9.68 0 0 1 2.414-6.405c-4.919.4-8.789 4.552-8.789 9.627v1.611s3.188 0 6.375-3.222z"/><path id="quf0p" d="M413.91 3225.33c0-.89.714-1.61 1.595-1.61.88 0 1.595.72 1.595 1.61 0 .89-.714 1.61-1.595 1.61-.88 0-1.595-.72-1.595-1.61z"/><path id="quf0q" d="M461.715 3197.948v-11.278h-6.375v8.056c0 4.448 3.568 8.055 7.969 8.055l.033-.003c-1.007-1.35-1.627-3.01-1.627-4.83z"/><path id="quf0r" d="M472.875 3189.836v-1.56c0-4.45-3.568-8.056-7.969-8.056h-3.187c-4.401 0-7.969 3.607-7.969 8.056v1.25c0 1.111 1.08 1.892 2.117 1.526.77-.271 1.69-.707 2.665-1.409a12.583 12.583 0 0 0 1.593-1.367s4.1 2.762 11.034 3.171a1.617 1.617 0 0 0 1.716-1.611z"/><path id="quf0s" d="M464.906 3180.22h-3.187c-4.401 0-7.969 3.607-7.969 8.056v1.25c0 1.111 1.08 1.892 2.117 1.526.77-.272 1.69-.708 2.665-1.409a12.582 12.582 0 0 0 1.593-1.368v-3.222c0-2.67 2.14-4.833 4.781-4.833z"/><path id="quf0t" d="M461.72 3225.33c0-.89.714-1.61 1.595-1.61.88 0 1.595.72 1.595 1.61 0 .89-.714 1.61-1.595 1.61-.88 0-1.595-.72-1.595-1.61z"/></defs><g><g transform="translate(-390 -3177)"><g><use fill="#fad7a5" xlink:href="#quf0a"/></g><g><use fill="#e02d7e" xlink:href="#quf0b"/></g><g><use fill="#fad7a5" xlink:href="#quf0c"/></g><g><use fill="#ffe1b4" xlink:href="#quf0d"/></g><g><use fill="#b48764" xlink:href="#quf0e"/></g><g><use fill="#4949ce" xlink:href="#quf0f"/></g><g><use fill="#b48764" xlink:href="#quf0g"/></g><g><use fill="#6e4b53" xlink:href="#quf0h"/></g><g><use fill="#c39772" xlink:href="#quf0i"/></g><g><use fill="#c39772" xlink:href="#quf0j"/></g><g><use fill="#d1d0fc" xlink:href="#quf0k"/></g><g><g><use fill="#dbd9dc" xlink:href="#quf0l"/></g><g><use fill="#dbd9dc" xlink:href="#quf0m"/></g></g><g><use fill="#5c414b" xlink:href="#quf0n"/></g><g><use fill="#503441" xlink:href="#quf0o"/></g><g><use fill="#fff" xlink:href="#quf0p"/></g><g><use fill="#ffe1b4" xlink:href="#quf0q"/></g><g><use fill="#d59f63" xlink:href="#quf0r"/></g><g><use fill="#cd915a" xlink:href="#quf0s"/></g><g><use fill="#fff" xlink:href="#quf0t"/></g></g></g></svg>