<svg xmlns="http://www.w3.org/2000/svg" xmlns:xlink="http://www.w3.org/1999/xlink" width="70" height="70" viewBox="0 0 70 70"><defs><path id="treia" d="M1044.194 3210.968l-4.492-1.684a2.188 2.188 0 0 1-1.42-2.049v-1.765h-6.562v1.765c0 .912-.566 1.728-1.42 2.049l-4.491 1.684a4.375 4.375 0 0 0-2.839 4.096v9.494a27.227 27.227 0 0 0 12.031 2.787c4.318 0 8.4-1.004 12.031-2.787v-9.494a4.375 4.375 0 0 0-2.838-4.096z"/><path id="treib" d="M1035.005 3208.751c1.228 0 2.4-.236 3.484-.649a2.152 2.152 0 0 1-.203-.867v-1.765h-6.563v1.765c0 .309-.084.596-.203.867a9.775 9.775 0 0 0 3.485.65z"/><path id="treic" d="M1044.194 3210.97l-4.32-1.62-3.326 3.325a2.187 2.187 0 0 1-3.094 0l-3.325-3.325-4.32 1.62a4.375 4.375 0 0 0-2.839 4.097v9.493a27.227 27.227 0 0 0 12.031 2.787c4.318 0 8.4-1.004 12.031-2.786v-9.494a4.375 4.375 0 0 0-2.838-4.097z"/><path id="treid" d="M1034.996 3206.564a7.656 7.656 0 0 1-7.656-7.657v-3.28a7.656 7.656 0 1 1 15.313 0v3.28a7.656 7.656 0 0 1-7.657 7.657z"/><path id="treie" d="M1031.715 3198.907v-3.28a7.656 7.656 0 0 1 5.469-7.336 7.648 7.648 0 0 0-9.844 7.335v3.281a7.656 7.656 0 0 0 9.844 7.335 7.656 7.656 0 0 1-5.469-7.335z"/><path id="treif" d="M1030.63 3187.965a4.375 4.375 0 1 1 8.75 0 4.375 4.375 0 0 1-8.75 0z"/><path id="treig" d="M1027.34 3195.626v2.455c1.211-.574 2.695-1.479 3.83-2.825.333-.394.9-.475 1.348-.223 1.442.81 4.824 2.353 10.134 2.702v-2.109a7.656 7.656 0 1 0-15.313 0z"/><path id="treih" d="M1030.816 3189.22a7.645 7.645 0 0 0-3.476 6.41v2.454c1.211-.573 2.695-1.478 3.83-2.825.175-.206.414-.321.666-.353-.81-1.54-1.443-3.547-1.02-5.686z"/><path id="treii" d="M1023.66 3212.72a4.36 4.36 0 0 0-.69 2.341v9.494a27.157 27.157 0 0 0 4.375 1.692v-8.484c0-.87-.346-1.704-.961-2.32z"/><path id="treij" d="M1043.621 3215.443a3.281 3.281 0 0 0-.961 2.32v8.485a27.152 27.152 0 0 0 4.375-1.693v-9.494a4.36 4.36 0 0 0-.69-2.341z"/><path id="treik" d="M1034.997 3173.747c-14.474 0-26.25 11.777-26.25 26.25 0 14.475 11.776 26.25 26.25 26.25s26.25-11.775 26.25-26.25c0-14.473-11.776-26.25-26.25-26.25zm0 54.688c-15.68 0-28.437-12.757-28.437-28.438 0-15.68 12.757-28.437 28.438-28.437 15.68 0 28.437 12.757 28.437 28.438 0 15.68-12.757 28.437-28.438 28.437z"/><path id="treil" d="M1036.089 3232.775v-12.002a1.093 1.093 0 1 0-2.188 0v12.002c-17.22-.568-31.118-14.466-31.686-31.686h12.002a1.093 1.093 0 1 0 0-2.188h-12.002c.568-17.22 14.466-31.118 31.686-31.686v12.002a1.093 1.093 0 1 0 2.188 0v-12.002c17.22.568 31.118 14.466 31.686 31.686h-12.002a1.093 1.093 0 1 0 0 2.188h12.002c-.568 17.22-14.466 31.118-31.686 31.686zM1035 3165c-19.299 0-35 15.7-35 35s15.701 35 35 35 35-15.7 35-35-15.701-35-35-35z"/></defs><g><g transform="translate(-1000 -3165)"><g><use fill="#fad7a5" xlink:href="#treia"/></g><g><use fill="#fad7a5" xlink:href="#treib"/></g><g><use fill="#e02d7e" xlink:href="#treic"/></g><g><use fill="#ffe1b4" xlink:href="#treid"/></g><g><use fill="#ffe1b4" xlink:href="#treie"/></g><g><use fill="#c09576" xlink:href="#treif"/></g><g><use fill="#af876e" xlink:href="#treig"/></g><g><use fill="#a07b64" xlink:href="#treih"/></g><g><g><use fill="#ff3a93" xlink:href="#treii"/></g><g><use fill="#ff3a93" xlink:href="#treij"/></g></g><g><use fill="#d1d0fc" xlink:href="#treik"/></g><g><use fill="#4949ce" xlink:href="#treil"/></g></g></g></svg>